<mxfile host="app.diagrams.net" agent="Mozilla/5.0 (Windows NT 10.0; Win64; x64) AppleWebKit/537.36 (KHTML, like Gecko) Chrome/138.0.0.0 Safari/537.36 Edg/138.0.0.0" version="27.0.3">
  <diagram name="Page-1" id="yohlTPGjUdH9MkS1M_gE">
    <mxGraphModel dx="2520" dy="1627" grid="1" gridSize="10" guides="1" tooltips="1" connect="1" arrows="1" fold="1" page="1" pageScale="1" pageWidth="850" pageHeight="1100" math="0" shadow="0">
      <root>
        <mxCell id="0" />
        <mxCell id="1" parent="0" />
        <mxCell id="ACYndl2Ck1AMMyre2MPW-31" style="edgeStyle=orthogonalEdgeStyle;rounded=0;orthogonalLoop=1;jettySize=auto;html=1;" edge="1" parent="1" source="ACYndl2Ck1AMMyre2MPW-30" target="ACYndl2Ck1AMMyre2MPW-1">
          <mxGeometry relative="1" as="geometry" />
        </mxCell>
        <mxCell id="ACYndl2Ck1AMMyre2MPW-30" value="" style="whiteSpace=wrap;html=1;aspect=fixed;" vertex="1" parent="1">
          <mxGeometry x="-710" y="85" width="500" height="500" as="geometry" />
        </mxCell>
        <mxCell id="ACYndl2Ck1AMMyre2MPW-3" value="" style="whiteSpace=wrap;html=1;aspect=fixed;" vertex="1" parent="1">
          <mxGeometry x="-60" y="40" width="535" height="535" as="geometry" />
        </mxCell>
        <mxCell id="ACYndl2Ck1AMMyre2MPW-6" style="edgeStyle=orthogonalEdgeStyle;rounded=0;orthogonalLoop=1;jettySize=auto;html=1;" edge="1" parent="1" source="ACYndl2Ck1AMMyre2MPW-1" target="ACYndl2Ck1AMMyre2MPW-2">
          <mxGeometry relative="1" as="geometry" />
        </mxCell>
        <mxCell id="ACYndl2Ck1AMMyre2MPW-35" value="REST / WebSocket" style="edgeLabel;html=1;align=center;verticalAlign=middle;resizable=0;points=[];" vertex="1" connectable="0" parent="ACYndl2Ck1AMMyre2MPW-6">
          <mxGeometry x="0.2083" y="-4" relative="1" as="geometry">
            <mxPoint as="offset" />
          </mxGeometry>
        </mxCell>
        <mxCell id="ACYndl2Ck1AMMyre2MPW-14" style="edgeStyle=orthogonalEdgeStyle;rounded=0;orthogonalLoop=1;jettySize=auto;html=1;" edge="1" parent="1" source="ACYndl2Ck1AMMyre2MPW-1" target="ACYndl2Ck1AMMyre2MPW-13">
          <mxGeometry relative="1" as="geometry">
            <Array as="points">
              <mxPoint x="105" y="113" />
            </Array>
          </mxGeometry>
        </mxCell>
        <mxCell id="ACYndl2Ck1AMMyre2MPW-38" value="SupaBase js Client" style="edgeLabel;html=1;align=center;verticalAlign=middle;resizable=0;points=[];" vertex="1" connectable="0" parent="ACYndl2Ck1AMMyre2MPW-14">
          <mxGeometry x="-0.4845" y="-4" relative="1" as="geometry">
            <mxPoint as="offset" />
          </mxGeometry>
        </mxCell>
        <mxCell id="ACYndl2Ck1AMMyre2MPW-33" style="edgeStyle=orthogonalEdgeStyle;rounded=0;orthogonalLoop=1;jettySize=auto;html=1;" edge="1" parent="1" target="ACYndl2Ck1AMMyre2MPW-24">
          <mxGeometry relative="1" as="geometry">
            <mxPoint x="140" y="319" as="sourcePoint" />
            <mxPoint x="285" y="264" as="targetPoint" />
            <Array as="points">
              <mxPoint x="140" y="260" />
            </Array>
          </mxGeometry>
        </mxCell>
        <mxCell id="ACYndl2Ck1AMMyre2MPW-34" value="Oauth 2.0" style="edgeLabel;html=1;align=center;verticalAlign=middle;resizable=0;points=[];" vertex="1" connectable="0" parent="ACYndl2Ck1AMMyre2MPW-33">
          <mxGeometry x="0.4413" y="-3" relative="1" as="geometry">
            <mxPoint as="offset" />
          </mxGeometry>
        </mxCell>
        <mxCell id="ACYndl2Ck1AMMyre2MPW-1" value="" style="shape=image;html=1;verticalAlign=top;verticalLabelPosition=bottom;labelBackgroundColor=#ffffff;imageAspect=0;aspect=fixed;image=https://cdn1.iconfinder.com/data/icons/ionicons-fill-vol-2/512/logo-vercel-128.png" vertex="1" parent="1">
          <mxGeometry x="70" y="300" width="70" height="70" as="geometry" />
        </mxCell>
        <mxCell id="ACYndl2Ck1AMMyre2MPW-15" style="edgeStyle=orthogonalEdgeStyle;rounded=0;orthogonalLoop=1;jettySize=auto;html=1;entryX=1;entryY=0.5;entryDx=0;entryDy=0;" edge="1" parent="1" source="ACYndl2Ck1AMMyre2MPW-2" target="ACYndl2Ck1AMMyre2MPW-13">
          <mxGeometry relative="1" as="geometry">
            <Array as="points">
              <mxPoint x="420" y="113" />
            </Array>
          </mxGeometry>
        </mxCell>
        <mxCell id="ACYndl2Ck1AMMyre2MPW-36" value="Consultas DB/ Auth" style="edgeLabel;html=1;align=center;verticalAlign=middle;resizable=0;points=[];" vertex="1" connectable="0" parent="ACYndl2Ck1AMMyre2MPW-15">
          <mxGeometry x="-0.6158" y="2" relative="1" as="geometry">
            <mxPoint y="1" as="offset" />
          </mxGeometry>
        </mxCell>
        <mxCell id="ACYndl2Ck1AMMyre2MPW-32" style="edgeStyle=orthogonalEdgeStyle;rounded=0;orthogonalLoop=1;jettySize=auto;html=1;" edge="1" parent="1" source="ACYndl2Ck1AMMyre2MPW-2" target="ACYndl2Ck1AMMyre2MPW-24">
          <mxGeometry relative="1" as="geometry">
            <Array as="points">
              <mxPoint x="408" y="310" />
              <mxPoint x="285" y="310" />
            </Array>
          </mxGeometry>
        </mxCell>
        <mxCell id="ACYndl2Ck1AMMyre2MPW-2" value="" style="shape=image;verticalLabelPosition=bottom;labelBackgroundColor=default;verticalAlign=top;aspect=fixed;imageAspect=0;image=data:image/png,iVBORw0KGgoAAAANSUhEUgAAADgAAAAxCAYAAACPiWrWAAAAAXNSR0IArs4c6QAAAARnQU1BAACxjwv8YQUAAAAJcEhZcwAADsMAAA7DAcdvqGQAAAKISURBVGhD7ZlNbptAGIbf9Ab9WcJ3hiirEnyGtBsq4zMki1iKfQZTyV60Z4gte1P7DCB2Uc4wsKx6hXbhjoUpEzMfM6RYPCuLsQUP8/2BL96/dX7jjHlTPnBu9IJdpxfsOr1g17mw3Qf9gQff/wjXdUHkwB94ECIHAGQigxA5VqsNkjgt/9QIVgSJHAzDAJPpuLykRIgcq+Uaq+XmcANMYFxwMr3XEisjRaPZorzEwpggkYNv3+fwB155iYUQOT7fBI1304ggkYMfuw2InPJSI0xIGhF8ek6Ny0maSjZuE9vd2pocCtHBpZHgZHpvLOdeQuY3h0YhqrtzLrmHz0QOrq89hKPg6DsquKHKFiRyji64LpnIgL8XLAlHAR4m45M3bPm4wd2tXgtiCRI5eHpuPnkkcYooWiCJ90XqVJsRIsfVpXq9ClYODsN6YXUKf+Bhu1sf8uvudozlo7qgyFFPB9YOQjP/XHKx3a3Lh4+QOQbgxZ3UDVOWoG7+1a2CRUnV4JDEKT7dfCkfVsIS/PlrXyhsEM3miGYLhKOg8qbo5iFLUBU+ppBFp6qQtSJYFTqmESJXjoAf3tVPD5ag6sSmuLrcPxRXpUIrRcZmiMon++1uXXmeVgRt7t4wDOC6rnKEO9Ury7AEZYN+DVoR7BJsQX/gWQ3VKpI4bfdpQjVt2EC3/0lYwzYKb7/a4mv071RTB/YOSmz3RDDmzyLsHZRwnrJ1ECJny8GEIPdVQh2SOGXlXZHGgrAk2SQsixgRRKHKRbN5Y9FoNjciBxNFpgoiBw+TsXav1J1S6mBFsIj8+8z3vcNbACLn0LSzLEOW5cbFJNYFXxtjOfi/0gt2nV6w6/SCXefsBf8AXZ87tKaVqA0AAAAASUVORK5CYII=;" vertex="1" parent="1">
          <mxGeometry x="380" y="310.5" width="56" height="49" as="geometry" />
        </mxCell>
        <mxCell id="ACYndl2Ck1AMMyre2MPW-12" style="edgeStyle=orthogonalEdgeStyle;rounded=0;orthogonalLoop=1;jettySize=auto;html=1;" edge="1" parent="1" source="ACYndl2Ck1AMMyre2MPW-4" target="ACYndl2Ck1AMMyre2MPW-11">
          <mxGeometry relative="1" as="geometry">
            <Array as="points">
              <mxPoint x="100" y="450" />
              <mxPoint x="100" y="450" />
            </Array>
          </mxGeometry>
        </mxCell>
        <mxCell id="ACYndl2Ck1AMMyre2MPW-37" value="WebRTC" style="edgeLabel;html=1;align=center;verticalAlign=middle;resizable=0;points=[];" vertex="1" connectable="0" parent="ACYndl2Ck1AMMyre2MPW-12">
          <mxGeometry x="-0.2" y="-2" relative="1" as="geometry">
            <mxPoint as="offset" />
          </mxGeometry>
        </mxCell>
        <mxCell id="ACYndl2Ck1AMMyre2MPW-4" value="Vercel" style="text;html=1;align=center;verticalAlign=middle;whiteSpace=wrap;rounded=0;" vertex="1" parent="1">
          <mxGeometry x="75" y="370" width="60" height="30" as="geometry" />
        </mxCell>
        <mxCell id="ACYndl2Ck1AMMyre2MPW-5" value="raylway" style="text;html=1;align=center;verticalAlign=middle;whiteSpace=wrap;rounded=0;" vertex="1" parent="1">
          <mxGeometry x="376" y="370" width="60" height="30" as="geometry" />
        </mxCell>
        <mxCell id="ACYndl2Ck1AMMyre2MPW-7" value="" style="strokeWidth=1;shadow=0;dashed=0;align=center;html=1;shape=mxgraph.mockup.containers.browserWindow;rSize=0;strokeColor=#666666;strokeColor2=#008cff;strokeColor3=#c4c4c4;mainText=,;recursiveResize=0;" vertex="1" parent="1">
          <mxGeometry x="-510" y="230" width="280" height="190" as="geometry" />
        </mxCell>
        <mxCell id="ACYndl2Ck1AMMyre2MPW-8" value="Page 1" style="strokeWidth=1;shadow=0;dashed=0;align=center;html=1;shape=mxgraph.mockup.containers.anchor;fontSize=17;fontColor=#666666;align=left;whiteSpace=wrap;" vertex="1" parent="ACYndl2Ck1AMMyre2MPW-7">
          <mxGeometry x="60" y="12" width="110" height="26" as="geometry" />
        </mxCell>
        <mxCell id="ACYndl2Ck1AMMyre2MPW-9" value="https://www.draw.io" style="strokeWidth=1;shadow=0;dashed=0;align=center;html=1;shape=mxgraph.mockup.containers.anchor;rSize=0;fontSize=17;fontColor=#666666;align=left;" vertex="1" parent="ACYndl2Ck1AMMyre2MPW-7">
          <mxGeometry x="130" y="60" width="250" height="26" as="geometry" />
        </mxCell>
        <mxCell id="ACYndl2Ck1AMMyre2MPW-11" value="" style="shape=image;verticalLabelPosition=bottom;labelBackgroundColor=default;verticalAlign=top;aspect=fixed;imageAspect=0;image=data:image/png,iVBORw0KGgoAAAANSUhEUgAAAHcAAAA0CAYAAACw9adIAAAAAXNSR0IArs4c6QAAAARnQU1BAACxjwv8YQUAAAAJcEhZcwAADsMAAA7DAcdvqGQAAArgSURBVHhe7Zp7jB3VecB/58xr5z725fXugl8Y22BTuwXbQE0wIkCIEiAJCZCgRFGStqogoklVVfmnqlJVbaUmSqJaohVqEkHIi0CkNg8TBYNj3l4/6+die/3a9e6aXe/u3b3PmTmnf8zd2XvvLu0lEHS5mt8/u3vuOccz85v55vu+a7F0xVWamKZE1g7ENA+x3CYmltvExHKbmFhuExPLbWJiuU1MLLeJieU2MbHcJiaW28TEcpuYWG4TI37vb4WkgTJdEAJRyiO0X/WxNmyEDkAFVeOzaGmirQTCWPj+0lojCxnQCx+etly0aSMCD+HlF54nBNqwEIE373NttiCCEmhVNc7ssdkuQimEX6g5h9k9SxVjjUmdcgUQTlMtbRTW30Xhxs+jOpaBkIhChpY9P8HtexJRnKG44WPkN91P+tl/xjy/r2IbQZDqprDxAQqbHkAnF5X3no/IXKDz3+9BlHJzg9LA611HbuuX8VbfDNKEIMAcOoD78mPYZ3aHMsqoVBczH/17RC5D4nfbMKZHCdqWMHPn1wguW0fbE1/EmBycm9/aS+7GL1DYeB/YSVAKeekM7uuP4xzdjvBL5G79K7wV19P+3QeidY1K/XKlxFu2kem7/xHVuaJ2AgAiN4E5dBBv1QeQuSnST38FqyxXWy0U195J9ravolsvq11ahQg83Oe/RaLvBxAEIAQq1UVu68MUr/0U2rBqlwAa+9AvSe56FGPiHGiFSnUx/bF/wlt1C87Bn2OMDZDf8mfoRAcyM0zb45/HmBxEOWmK136C3M0PoxPttRsDYFw8gShM4S/fjDF6jI7HPlk7peFYOCbWIiSllVuY+syjkVihfEQhg8hnohClEx14a24FWXPxhaC47sPM3PX1SKwISojcJCI/hVBe1XTjwmGc48+FYgHtdpLd+jCFTZ8OxWoNpTwiNw6lbDlsCkob7iF7x9+i0r1V+wEU//hecrf/DTrRASpAlrIIrVB2ivz1nyW39cuRWOGXwuMqZBAqfN0E3Wvwl2+u2bWxMVrbF329drCWoH0JMx//F3RrL2iFMTmIdfw32P0vYJ3twxw7hXYS6GRXtEaUcjhHn8XIDIfr7/0G2m0P148exz7+W5z+HVjn9iInBlEtqfDCAzIzgtO/A1mYQkuT4vp7yG99CISEoIR9chdO/w6c/hcwR48hCtOo9GIwHYKulaAC7DOvoW2X0tW3hzekEIBA5CZxDv039skXMYcO4S/fSP6mPw/PDY154SjOkV9hn9yFObgfmRlBJ9rRTqq8B8jsOO7en0bn2qjUJbew+UG8q28DaSKnR0nsepTE609gn92NNXQAe+AVzIlz+D1XoVOLoVLu9Ai5Wx7Cu/JmQGOMHCO5899o2fcU1uB+rKGDWKdfQ+Ym8BevQSc6UK09GKP9WG++gXZS4ROf6gKtsQ//mtRz/4rd/zzm8GGsc3uwBg+g3DaCrlVgWPi9a3H2P40QzMkFKOVJvPIYyZ3bsIYOoB2XwrWfxFt1MwiJOXiA5HPfoOXAM+Fxnd+PdXYPsjiDf/l6tJ0AQGbH3hdy6wrLpSu3oA0HVIB1ZneYXFQmOmis06/h9v1oXvapzRaKG+4FQJQKOKdewjr9alW2KYISzhsv4Bx7Ngy5QlLccA/asNCz0gBjbAD3wDPIqeEowaP8pLt9P8QaOhiOWy7eFTdGn8/iHN1Oy/6no1CrUr14yzaDNEAFtPT9KMoRZpHFaexDv8A8v/ctM/9GpS65uqUtLHmUj3VuT1h61KIV5oUjiPx09bCVQLutAIj8BMbI0QXLCOHlMMbPQCncO+hZC8IgSPdE4dAaOoB58UTNyhBz/DTGpbNRyeNduaV2CvbZPkRhJvpbOwl0azcAMjeOOXp83s0JIEszmIMHw9LufURdchHlaeVE5i3RPlBd7yLnSh0R+Ai/WPVxhNagAwTlC2iY4U9pz83xCuia5CtCBQitIrnaCkNoJSIoIiqeeIRECyP8PfARQc2xV+IV5tXKjU5dcqPa0TDxl2yInqRqBCrVg3LDpCiilIfyHa+SHQSL1yy83jDQiU60kwYoh16FnB6Jpvi961AdyysWzaHcNgK3A2R4StbQ/top8+QIr4jMZwBQ6W6CdDcL1t3CIOhdh5blG+59Ql1yzQtHEMpHSxPvyg/g9a4P31MVqLYe8tc/iJh9ystIL4c18BIA2k7hLd9M0HnFXDQAkAZ+zzWU1n2oPKBxDv0CfA+Zm0CUBfjLrqO4+pYosZlF2wkKG+/HW3VTKEcF2P3PV81ZCDnzJuaFQ6F0aVLceB9BalHVHC1NSks34q+4Yd45Nzp1ZcsiO05pza1oJ4V22/G71yD9IrqlFd3ag3fZH5H/0y/hrZ2VU5EtTw1jjp2muP6usFTpWIZKdYfB0UkTtF+Ot3QT+Rs+h7fyJgCMyWESu7ZhZMfCZoTt4i/bGHa4lm+CwEPbCXRLmmDxakpr76Sw+cFyxwusgZdx9/4UbVWUQoBz7DcYYwPREyy8HNqw8VZsAjtB0H11WOtqwG0naF+Gt+J68lv/kqB7dUUp9P7IluvrUAmD3JYvkf/gI+hyg0IoHzk1gtY+qn1p2AqsQM6MzXWopEH2tr8mf8MXwAjvfqF8xMT5MOR1LEOUL5woZHBffgx3z08QpSwAQcdSZj7yD+Uns0wpi3HpHCrdHUkFMEaOkf6vr2FePFHVoRLKJ/Wzr+Cc2FmVNKnWy8hufYjShrvRlhsOBh5ychBh2ATp3uiYZ2muDpVWuH1P4u7chshPhUPSJOhYiuq8IhIrSnmMiydA1WScKsDd/STW2d3RkJYmatFKVOfySCxaYw+8RMuR7ZFYAGPyAskd38Q69eKcGDsZvgcrxFpn+0i+8B2MsdPR2CzGmb5yNl19bDIzjLv7CZzDv0LMJouGhVq0kqB9SSRWZseQ42er1jY6dYVlEAjlYY4cxRw5iihmCTpXgOkAoIMA++TvSD7/LZwj2xHKI0j34ryxAyMzHM5x0hT/5OOodE/N3hUI0NLCOr8fI3Oh4gONzF3CGvofjLEBVNvlYTdLCNAaOTmI++r3cXc/jjl0OKpjtZ2gtOZWZGaE5K5tmBdPhBl1DTJ3CXP4GNbgPlSinaBtSZQ7iNwkLfuewn3lP3GObEelutB2EnffU7XbNBz1heVKhEQ5qTCzNa3wAgcBMj+FzI0DoJx02JyfvhjVxNqwKWy4m+yH/w60IvHq97BO7UIoReGaO8nf9BfhBdUaY/Q4rc98FePSuZp/PNxHJxehZtuBWiG8AjI7Pq/+1tIMO2Y6QGbH//8mhJCo5CKU2xZm3VqHPfDsBLI4DVqjkl1oOxF+OdHgvH257wBt2pSu+iD4Ps7JndHF1tLEW7WVzH3fDqOBVqSfemTe+zHm7VFnWH53ECrAfPMU5vjpqppT6LCelb6Ht/LGsLmQWhy2OcshNubtU19C9R4g/CJyehS8sIPld6+OGhIxvx+Nc/U0aOXPPanSBL1AtyimbhpGrpYG2m2Lak2ZGQXi9+07oUHkCoJFKyle85GoxWcf3Q7+W3xJEFMXDSFX2y6F6+7DX3otlLtU9sBLcTL1DmkIucIr4PQ/h5wcQqsA98X/eMvvbWPq5z2tc/9PhKS49g6CzpW07P1x+H+WY94RjSM35l2nIcJyzB+GWG4TE8ttYmK5TUwst4mJ5TYxsdwmJpbbxMRym5hYbhMTy21iYrlNzP8CoWud3cmJxt4AAAAASUVORK5CYII=;" vertex="1" parent="1">
          <mxGeometry x="45.5" y="450" width="119" height="52" as="geometry" />
        </mxCell>
        <mxCell id="ACYndl2Ck1AMMyre2MPW-13" value="" style="shape=image;verticalLabelPosition=bottom;labelBackgroundColor=default;verticalAlign=top;aspect=fixed;imageAspect=0;image=data:image/png,iVBORw0KGgoAAAANSUhEUgAAARgAAAElCAYAAAA/av3/AAAAAXNSR0IArs4c6QAAAARnQU1BAACxjwv8YQUAAAAJcEhZcwAADsMAAA7DAcdvqGQAAHm+SURBVHhe7f1ZtyXHdecJ/raZ+zn3xo0IAAQBkARIAiBBkBRFcRApDiIlUVJOyqys7MrOXv1Q3yXf+zN0r1VPvaofurMqKysnTSTFSZQ4ipREkCBIECQxDxFxh+NutvthbzO3c+65gcBwY7r+j/B7fDA3Mx/237dt27ZNHnjgAWXGjBkzTgFhc8eMGTNmvFmYCWbGjBmnhplgZsyYcWqYCWbGjBmnhplgZsyYcWqYCWbGjBmnhplgZsyYcWqYCWbGjBmnhplgZsyYcWqYCWbGjBmnhplgZsyYcWqYCWbGjBmnhplgZsyYcWqYCWbGjBmnhplgZsyYcWqYCWbGjBmnhplgZsyYcWqYCWbGjBmnhplgZsyYcWqYCWbGjBmnhplgZsyYcWqYCeYGQQEVW7ZB1BYAVSWjaBBGzagEhAAqZIQkgYwgCKugCEBWEkoWUJSkSsyZiKI5WfmqiELIiqiAnYkCGSX7P2nqs7nMmHE1zARzg9AK7SbafSVNyEYEUYGU0TFBVlSNKAA0Q0yKjJkgYuSlEFXonHASgoZAFiUr5GyL0dI2tlNjnBkzXgdmgrkOUNVjC649VJLJWpeqsWDrgmsZY6bXQEQJdhJBMlEUSSMhjXTJykwoOMkUTQUEEQEJjGNGEWKMBA1rmtQm+RVNa9syY8bVMBPMDcJJ+gJMB0ozKgukYKSRI2RViJHQd6CQVyO9RIIEEMjRiSUlUhpJosSdBYuuJ60SjJlF7Oljh6rlnwXyZj0cOqswM14nZJ7Z8fRRmjAtRCeCKUdbjcAVDiOZokWoEruIjJlhHOlCRLL6V0LQAFkyGTXNBEFVGcYRgEiArPRdDwhjSmSseaR9IChEzYSquShZFNH175DIidQ4Y8YaZoK5DthKMDhzbJBIe7zsJxhRIEJOiSh2VDJ0EtAgrCRzIBldgCw6ogS6DKiSNJPGBAmWGugGs9UoSugXHI4DdB3xBILhKgQzU82Mq2EmmOuAbQRT0GoquZHW4LZVIyJFRIghkFNmzAMiYhpHjOzngWFvQbjrPHL/Rc7f+xYuXrzIudAzrlZceullXnz2OQ6ffoX08hXOHcHuqNYmipFBQCUSFLpsBCNghmDRE1rSgsh2I/WMGQUzwZwiCkEUggkIihlcC6FUg2k5RxUJgpIJWYgaQJUggZQGFKVbLEjDgHSRgzCyumPJ3b/xHh799EfhgbtYXDgHMcA40il0YyYfrHj6J0/xwy9+nfHJZ1lcGekGhZTp+540CAEhAqIyNcuqqjVdE67BzNrLjFfDTDDXARPBgDa2l+QCnN2+EoLZSBRFRAkqZv9QUxWCwJAGQtczpJHVAnYfvId3fOrDvPvzH2U4v+BgR6ALDDkhmokq9DkTs7IcIvGZS/z6Gz/gB3/xNVbPvsI5jSxVCLmfNC0JG/SRJ4qRiWBmzHg1xIsXL/77zZ0zTgkNlatMMlxsLwFBgKjQZQgqqIh1N6s5vcUYGfPIailw3wU+9e/+hPs+9UFeOC9cOicMIbGSkdxBith2SAy9cHkR6c/tcPc9b+XcuXM8+8yzpMMVywR5NNuKxuDOeULAm0Brjjkzwcy4dswEcz1RSEWwrt9WUBWiBHQcWYRIl0sDC/OgUwVNaFDGnUC6e49H/smnuPtjj7B/PnLYK7mDjkxUJeRMUCVg9hsV4VJvvUyLvueee++FIDzzi18R9lf0BLIIo2glPMHsPDPBzHi92Ga9m3Fd4HYO3wqAZGXhXc855dqcigidQOwjQ0gc7kXe9ZkP845P/yaX7+g4WChxEYiagQxiTayynoOSBCIZ7YUrXebKXuC+j76fOx95F+n8khSFFExLMtuLomRUjAilLLPlZcZrwEww1xHFaFqNu75fipKQszWTFAjW/ZyAJMoQlSthYHWh5+J738F7Pv0RuPscR11GJaPDii7buCGcuLLYWCUIBGB3zMScyR3sL2Dxznt49+98mP2lcKSJHATC1DVkdW20lxkzXiNmgrnOKOK6KbamHYCmbD1JMaAijGRSJwyLwKUlnHvPO/jgv/w9ePtFrsTEQCIEa3JZz5N1cYsKokJQIWahS4HFmCEncoSjHl6JibseeoDlW+8kd8E8ecsQhkpSGxWdMeM1YCaY64ky9qhaV8qab4Vgo5jFhgUMOaNdx9h1XAoJ3n4n7/tnn2X58NtY7UVWOkJUcgCNNkTACGEyFkcnGjMqC30IkBMjI6teGfY67nngHbDboWSiE1SprEomi42tLiOkZsy4VswEcx1R6UQLBbhNw62qOWeI1jQaRRkiDFE4kES6Y5eHf+/j7L3/AWQnshoGokAQ4SitGIMyaJoIRoVgJpipWRYDJDcYi8IikvrAcm8XghHLQqWSTFAl+MDM9t+MGdeKmWBuFLQIsWkaotY8AWMhDUJeBFaMsNPx/s98jPd99uOM57rKVBIiSTOx70kS0Lhhgm3sPHiTZ8xmxAUYx4HQRaSLSDJfmahCTBCzNa3i3Eaa8QYwE8wNgvhwAPElADFEsiqjZgZJEGFcwMWH3sZH/8nnCBd2GAMMwXxcclBC6BiGAVFXVZxIWiNyQVInLqydlrMNdbzzrXeuNX7Kb9W4mjxmzHgtmAnmBqEIbSEXUTPUZsFtKsKRjOy992188H/6fS7f3XEpjgydchgSYwnboEonHb0KfVFNGgNtdeJTc+RDIuIR8Tp3pkuaSQg5CmOAFMyWk0XIYt3p4Ibo2QdmxmvATDA3CJvaRUYZ1Qy2OcAYMv3de3z8X/4eOw/fwyvdyBiteZMjEEzYA0KHEDUSNRoBlO7mYF7A1YdFhCBCIHizTH10lFq8GQ+9aTYb8VAOM2a8fswEcwPRNklEhNBFiJHcR9Lde7zvjz/N3nvfwWHMZB/iHDHDa2gi4rVot0tTaTo2tZuk2H7qwdIckjJIoBqi50bSjNeLmWCuE6qoVlJQ85b1kAgDmTGPpKAc7Aj3/vYHuO9TH+LS+chRb1pN9uDd5uMC4pF0cSIpPUjHoZXOihm4EE/pNneW8/1qNh0LRTXrMTNeN2aCuZ5ofGBczMmijDEbgXTClUVm75H7efQLn2J1vmfYjegyejhLQcUc4tTHF61pKL6/3TYS8qaQdVWhHoKzdBAVXvKjZiCu2zNmvH7MBHOdoG50Tb5oFWz3LgnK0VJYPHgPv/Wvv4C87Q7STmRIA2NKINaMipsZz5hxE2MmmOsEdbXFemecYNSaIoJyIAOruxZ87N/8Mf2D93C4E0gRYggsukgaR3Pjn/1SZtxCmAnmFKFlipIWzg+q2ZouYj1Gwx07PPj5j7H33rcz7kYSiYDSpWxOcLFDJMyhEmbcUpgJ5jpB1BzbLEqdEkMgCezHzJW9yHv/4JO8748+xdFeYOwSgYzm5D4ypunYcMbZKjLj1sFMMNcRHQFJGUlKJ4FVyFzZFfqH7+Ndn/4wwx0LDntlwOK3pKCMoRn9sxHdf8aMmx3zG3uaaLp8bdBgZhEDUWDQkWEB5x96G7/77/6EcN9FjkKyeY1CJouiruVUu00Tbe6NQP1P6c2aeouq6dnxJhQ240xjJphrwOsVs6J5RPcpCaKMeSBH5WCRyW/b4/1/9DvEB+/m8JyQxSanDz5drGUQSGJEo2I2m9frri/F2OzrxSenklbx0isWacRfkddX3owZM8FcA16/1UNQFVIIjAKHZHRnwWEH4527vOfzn+CtH3oPlxhIEcYoJNTGDeVGu3D5DgrxpPldZ8y4CTETzGlCgTKmRwIaAvs6cGVHuPej7+OBT32I1cUlcm5p8VyCotHmFghOKO1SvW7fJLx+4pwx49owE8w1oMZyc+lWH8Vc4reU7uicLdxl7Z52t35r6SjdInIYlb33PcAH/vAzcMcuqy4zkt1N30IpqBt5cY3FpjAxTSa9QYYpdaTaX0pd/bqME5sBkhsZzJjxGjATzOuFW0Y1T22WYhspgmqu/BkRZZTEy7Ji9+F7+MS/+UO6d9xBWkYLqi1tMMowhb4Ue0C1uVTHG70+qE9BSyEW1IY0XpVFrnZsxoyrYyaYa4BzyTEIEMRuYdFgWiSPZxsDrGLm8K07PPzHn2LnXW/loE+sYiZrtsntgxARJCvq2ahNPGLjlFzO3zxxF0TCpHltHp4x403ATDDXiE0BLIKeVS3wEzZxms0j7e0bgdh3HI4Dw07gfb//Ce75zYdJe5Gxg9SJxWHB8pCsBCxmiwWgMnJJYkTDlvAMV0XTXKtNNvG4DAWlV6rZNxVxErXOmHFtmAnmGiCoedY2rv8W7S2AWDcyIvQeJU5SgpyIqhyQeOGujvs+/WHe+6nfor97j4MwMmoywgj2CKQ16maIalHnIKD++5q7jDeCTUkonCGWbwaRwGLZk4P1eGkAxLrKSzgJi101RYeZMeNaMRPMa8HGx7xoEyFY2IQjHdEukEQZRc0TdylcePjtfOiPP0u85w4OSAyayUFIwV3/G6ktqzVuzEaIh/AGFAr14QamYLnWJMKi72fmmHEqmAnmGlCFvt3ngl72Zawps0oDoQtIb/NF9/ffxUf/1R8g77yLy71yKJkcA7qIjCV0gzeJpCGWllTqvjdALsAUbKpu2xLjHARixulgJphrwYZwTw2Vyf5CEIg+cZpmViS4Z49H//hTnH/0AS51mVW02LdjDAwebLtoFJsKxNTNPe3bTPNaUUc1qYIIIQTf0/QkzWaXGW8iZoJ5jZDiAtPoAZqdDHwC+VXMhLfu8c7PfJi7f+thjs4HVh6wG/GI/d5FHBEkmffumobiaduxR29U7te60b15ZD1IbzTnGTO2YyaY14BCAMUxTXwqkE4CAhzlgaMIh+d7zv/Gg7z3C59kvGvJpXRIt4iImEZiU7pCLM2fbPvXSWaKhltCWJZAVW8Ua3k0DoMzZrzZmAnmjUCtW7l2B8fAsAicf9d9PPL5T5Dv3OFQMnHRk9xHRoCggY5osWFK1/SG9lLnNArrDnZvZDR16QGzbnTz6rVerDeQ6YwZV8FMMNeAoELQYI5pEghdj4jQByHkgTGtSD2sukT3wJ188N/+IbuPvoP9zscWebCpQhJdznRJ6XKg00jMAVFbSrd0IZXs/jBFu3kjvUhoN63XuMCCesWmiWdlWrSEDJ/NMzNeO2aCuQZYlzIMKAQhkdEAK0ZWkqEP1kV9YckHP/dJzr/7bVxaZHS3s27orPQh1ubPFJPXttsm0LZm0BvtPSpYG2PU6i2ytjVjxpuGmWCuAXUkswhZzSS6IrHq4WgJq14Z9jre/4ef5h2//UEOdwKrDg7TiAbvIsq5ah/akEglGd+/STKbov8mcU2DmVhmnB5mgrkWqPf4hGCxcceRIObiv+oy+8vMvR9+mAc//3GGu3fhXEcXAuo9NOYB3GRHM/eQk0lLLtX+st5YKS2WU4F4vShk54Zs2577mWa8PswEcw1IwRdVNGV2QkTGkaCZ3MOFh97Gh/7Z73J414L9JRzmkZwTfYxoVlLOSAxT08i1BvXmUllwomkhntAI5pTYhUaRWSujVa9mipnx2nGmCKYd+Fd6VE46trYACWEkkzUx5kRYdqwkE956nk//X/8F8eH7ONgVBtI0g+KY6GJE3O/FtBXThtQnnG+1FTaaTLzJTaRt1z1jxmniTBHM60XMQsxKHhM7e+dYhczlvKK75wLv//1Pke6/g5d2lSPJdCEQgKhC33XklAldx0oTSWxwoWpGxAYWlqVgm46ybd8bwdzgmXG9cCYIpny5j6JpDGXUMmo9PDH5fM2dcJgGVJUQAgh0EshBgMxu33NweIUUlf07lrzlDz/BHb/3Ea7c0aNB2FHzyk0CQ4SVZjPyZmWhgT5DyB7OQSwYeFmEXJdAJooFCVexaWURS1Oc+18rVBXRTAjW3e4NNLQzI3WJ2xd9FLiImI+PN9vUtbA5csyM14IzQTAFpRdns5u42D9kzCwWC1h0jJphzOhYQi8IaRjIfWR/L3LXBx/iPZ/6CN35JanMAuA45vbfQP3P5vG1sAqnZWsRsSaSG62lbDvMID3bW2a8eThTBNOVSHEbvTRJLHCUKESEISU0Z7oQjRDE5ogOQRl2AzvveTsf+Ke/S7zvDmsWLXo0l4GPJpwtRUhDZpxiT9C1oMTkLUQ222RmnCbOFMFE743JjbG0ko34Fz5l4mr0phGMoqCZxMjYQ75jyUf+xe9z7r1v53IcGIJ6tLlszYxKHiVgUxmz1OI6M0yrpah1Ok/d57o2XODqytNVD86YcQy3NcFs9poUTUKcWLJ4KEogIGTNhKzsaiQkn8K1D3QxsGLkYC/ywT/8DBcffYD9c8LRAlLEbBeuFSjUSHDJm2LV5oNL8HWW07WiRXx843Rvuq6rdSrXsA1XJ58ZM47jtiaYbRC3f6j7txT7S0hKR6AjEKM1jbKAdoFDSeyf73joDz7BA5/5MPvnhFW0UP+ZTFALt6CqqGRUdM23pZSLE9uNQrG7iJMvQAiBvmvGKM16yow3EWeKYNSFJ/hKmfcZ12B2NBCxZtGoGVFlGEde6RJ3fughHvnjz3B01w5HUelCoE+m8QhmuyEXXxdfqmPdzSG02bvHJVhtRIxguq5z4qlqzPqJM2a8TtzWBLPZI5MwzQKgS9AnI5uibUjKSLI2VIgQojCEzB3vf4gP/8s/5PI9O7y4WCExEccjNGRCVJKMDJ3WoNpZhDEEuix0CqPAyu90Ox7ptLHZRMweuByFgI/eFpkaUeLmmtnwO+NNwm1NMJuQNvatX3zpUk4BhkXkQBJJExKtadTde5EP/A9/AA/fw8s7ytBblLmQBW8lQfFOqT42fqzI6Q1SYTa7vtteoyCh8spMJzNOC2eKYIqxdXMCjuBuZpd1xVGnJFFWkkhv2eGhP/htdh99O5fc7iLBIkBJJaeGORpy6ZxganNpy3KjYIZcq8HcTT3jNHGmCKYEdCoqhZa5h9Tc+0VgsbNk6JWDix33f/bDvPvzH4VzHYHEIkE/KtGbVcVInCtfCaJC1Gk+6U3caHIJPg/TeiVuZI1m3M64rQlm0wYhFJf3aZBhORpU6Qms0opLC2X30Qd48PMfY3XXgiGOCJk+ZbpsEd7GIIzVaa5EffMuaDWimSLENbA+4hti52jtUa0h9wZUZcYZwW1NMJso2kPROoqTneKhGCSz2gksHnk77/snn0buu8B+nzkKI0lSlcksNmpIZcpEMdtMBtu/nV5MdzrN4QAzZtxEOFsE05BKJRlM6jUIK8nkO3f56J/8AXe+752slsLYQ8ojAbUpRlSrdmIGYycLsQnstTrbWd6l9VRbUc3vjBm3O25JgilNn+0GyqKnqPftTIsGRdz1P2QbSU3OxAyrDq7cvctDv/tx7nzo7RydCwy9kocVXexIqgwkRsnkOv1IcEOvIt7sMSe7TJbt8w1t12uuD8qdgKmHqyW+kyAqZr/KJzT7Zsw4AbcUwRQv3KuhjX9vPi+2LihZhZQUJJCjQATpbLK0oc889NmP8L4vfBIu7DKgjKr0Xc84JiQEJEYft+O6SWvEaVFsM9tkcdu+64U3oeyZYGa8Ftz0BCNqE5OFPGkJLVptRlURN66U6Coq1lMUNDCkTN8vQWA1HCECR/mIV/oV5x66j0f++JNcuqvncpfQznqcNAshRCCQszm+mA3F7KSbfia3M27365vx5uOmJ5iCTdX+JKw3iqbzFIixZ1wNaMrs9guCJvJOZOfRt/Pb//OfMN59joOQGDr72sfiMSPByKs4qkmjTm3I3Cbh3C7kc6vXf8aNwc1PME1LRCndwiejGm6bFkHplu68edOFAJq5PByS79njff/8s/CeeznqlS4K5uSqRJ/SlcY5T3j9MVRuNSFt7Vyv95pnnG3c9ARTiCV7ZP/xVWqcxHpyRMWmZlXbTiIkHen7SM6JI8mE+9/C/b/7Ue780Hu53GVy55mLksW6rYXsVBU2jBi6EVlmxowZm3gVcb1xKKKsrn2kjdHPJyG7D4pN92oLiPmuSCbpaL08Fxa89aOP8uDnPs6w2xNCYAjKGMqgSCUFBcmbrSDHTCwzZrwablqCWRff9dmRxzaOC4IQUCcR8RCY6k61QbF5oBVyWpFiZnU+sPvI23joj36bo7t3WPXZpoNFGUMJFGW9UEmEoErUTNBcjcylvPVovDc5dLqLiA2WUswxsE61IthdVUEk3DY2pBk3BjctwbSwV7s649u+OjNAcWwzgQ96PDSmeLS6rgtc6TPcfxe/9S9+n513vIVxCfRAF4xUtJzVUtw2bcVY7NYSO6+tuH3Fryurh/30bftrmt+tdoUzbi7cEgSDE0pZugx9NiIxrcO1Fk/XJYtQl0XJIaMkNMBhpxzcseD9/+JzLN9zHwedIjGQcianRACihDV/G/VBjZuTpMmtdPO2oBBvCMFCN5QZBZgNujPePNz0MlI1lmaJCjFDyE4ATgJFMGJWC2MZAM3kPJKjcmVPeOQLn+DO33qYg71I7iCIkMahEkvIFv6yNekWfaaInTSEt1W5uQUgIiT36zm3d+7YsVv2wmbcVLhpCaZ9vVvtpQSIOklx15xJOZHSiKaERMjLwEGfuefj7+V9v/8J9I4l+/mIEAJ5HOh8UvsSL6aW0WgxxeYzNR9uLRTyLb48ZlexCxIxTabVXMyncSaZGW8MNy3BsMULv2oOZUS0175oNBGLN5sXke7cEo1wFJUXuoHdR+/nN/7k8xzd0XMgI4tzO4w6klKil3iMxCww1cR0a5SypW63Atyk64bq41cwG3JnvNm4eQmmQWkaFaj3FCUBwQI8xSbA09jBlTSQAhwuYPHgvfzmv/4Ci3e+lctxZJDMYR4YO+h3Fug4WjknaEitNkNpLq0Fmro1UEZaKMf5ZSaXGaeBm5ZgZOtkZRZzZQyZHBSKv0u2ruSMMmoik0m98rIeom/d4zf/2e9y5/se4JIO9Ls7EAOj2iRpQxrRLlTfF8WmVUWtV2oMU5S6otXcqqIozRS3ta9MAHEP5ZLOVUU5zkMzNlDeh61L87Fq35nt+uM6Xu87tq2sGzmn+E1LMDR2AG2nhhep9pDpAXpXdc50ndCFwCCZeM9FHvzsR7jwwXdxaRfComccR3RMLPsFOSlH4wiL3uc6nJpeyX1ciobUajc36Fm9YZTrMOKoDSZ7IesKNktlfVNf76t+NlDu4baF5t6uvTInNFFblA9ACfrx6mcYjqVrhtncCNy0BKPg7vo+FqkEifLjpcliTnU2Zqj3LupxOEJ3Ivd/+BEe/NSHCffdyZWFms0mCDEE8jASFBZ9z+iT24MNRVgFI5mgNrVJrVORtVtU5gTzE6I6KDYvwI16A28BFA2gLO07eTVkUdOMaWIX+Rzokm29jPcqSy1HWnKZwqxupj+2lLp5HVqb4o3ATUkw9aZWFl9//1s1UEUZNKGS6bvAShKr3Y7dh97Og5/7OOFtd3KA9SgNOVmPCUJEiCL+0PyhlIh0rU9N9vpsGHZf5d26qVHIuWoujrnX6LWjJZvNZS32s/j9bW/xpm3PX6r2/Rc1d4zoDqSvRhRVVlqSaZ759cYNJZiWeVsI62EPijSLCDlnNCtIaB5IJkflQBIvLjPj/XfwoX/zBbpH3sblc4LuBNAEIXjsXb/5Cni3bQrWzAqNwViAHKz89kVp63krYO3+CkiwWH8pZ5vlcYNkVCGlVJe88ZxOem6bx96MZWueKdfFohJOy+a514pyTs7Z3rFmu70/xRhemu8pTem3QYvAYzM6qOB5KkGE4PmVcsHeSfGPYOexkCyqkdh1XgXH7tUmqV1n3FCCuSr8yRQVD1VSGonBbr45iZmTXN93jFHY7zPcvccHv/Bp9h5+BwcLOEoD4zgSYqzsr0xkIf5lIAiERrtRbPhBMM3mlh2T07xcyb+LKSeSZqSLqMCopeFpEJ9StiztFW8K0ubLfMvepw2U6xQf31btfR7Co9jjQnMMP1aW4AJW7sRqHOwj1kUIYj5bKaHZpvQNIZjWk7P5cJVbXe5vEPvgXQW1PP9A0rzrNwI3lGCu+jJ6mxOd2LsPHV3ozPTaRcaU6EIkp8QqJI52A+/5zMd458c+yLAbyWQWEgijTUgfsLvfaiPSGj+1eRvKl2pjuaWgxZTrCALRe8z8DTSVei2VrZf7v3Hs1VC+xPVrfBNhkwy3LdtQCKWSigtvUPMEb9/ftbzKO+XZxq6DICSUpKYZhRCIMRJitPPdxpMx4k9qg29TFI7IDJV1tqMSnG9rsV1uEbHrgRtKMFeH1EUVM1AijEcDEMiqED2eLgNjD/d++L08/PsfZ3XXkisxkd2gC+rjbfAZASy/8g+RtS9NZfypdVZx9cd7cyO7404XIjFEa2pmNe3OKVRDCVpuAczrv7JdWlTl8Wyg1Xxwe9ZJabeiPoRpdcqiPDsfXe/SK63agNZwptNnYVqmY00h2xZXTcq/gqrR+LZP3efvj3XtT8e9TPxD6cHhpXw0QyAGCxyfhxHJSifRlhiJMUIMaBBzq3At2z6VtqyP6rdSW0IsWvuZIpj2a7Ht66FY86SOn1bQbNOFLBZLC9oNhEXkQAYOd5Q7HnkHj/7Rp+C+8+z3mdwJGmAckwWeSuU1sSEB9XFcg/q4+e7dqhACecjEZM1AUehECDEgouSgrGJm6JQxZl8SWRIJC2lhXkbZ7DKlW79Zkua6jKIWJEwgBanOkSWcRvt1LYulLa4Clt+IMqJevsXpScGm+B1CZiWZwZcknk4yIxtLUEsXlDHY9toSm0WUwfMfPe+x5Om/icyI3Zvym6RZmnummhnGASUjwXqYBkZGtYG4fW8xiUIGhhFWI4zJmusEok9JHNQJRm0K4yIjZS6uQiRl+uLgiqR1Wp2spZ0W5IEHHriuJbYXKM1k7O0+AHWpbzXCnBKalbCIHIZEiMJRl9AH7uCz//O/Zu+99/PCMjN2AsuOtFrZyOpOOBwH+q6zPK2gKePbFU4CBR0LxmGFBAhRGMfEW9hFfv0S//X/8f8kPXeJZe5sihJX8VXUu/Cn+2UqeEAEC/DV3MrNDwXqjoti60VpAB8LxTrBK/5spLTSNt8Pa+mVtO0VavP+UOrS1qeMvyrbzVWZXuLVLMfVSrDYOJ6mJPDtUr/Jkc3r7nm1b5mqmqHX3+VyP3JKSIJehWXo6DXYB1GtKaUqdF1nWnurjbQfSkcWm4anhCwpA4FHsQgEbNyj08Z1JZjjL8txgqE87PrWqWkvbmyMMXCUB446yL2yutjxnn/1OR78wm9zsFAOdiOrNBK7DkmJXoUYhKM0enPJH8h1vMk3Eu397egZ02D3XTIg7OUOnrvM1/+X/w1e2Wcndz5nt8FCXpgY29ze5YX2Bot9SNdQXmBxYpItL3VpaoBrMu17IEZs5dzmTyNMnj5YUKyyp4xPo5ztJwjNx6otu61Ls7+WV+wXNc1EgsLUy1nuc3svpvLt3KyZEKOd47NkjMPI6so+4yv7HD7zMoujRFxl4pARCRCsGUSC3jsfhqAWXK10XRctJYBKXjNAZyeZLN6Z4dd7vXDTEEzO2drtjsD0BSsPX7O5948dDD2sLi545A8/wUP/9Hd45Y5IWgb2GevXI6rQVYOK3fXreXNvCjRaTNaAkuliqE5cS410l0ce+7NvsDzKLHOsHsygpGAGcvBZLRGLdFdSuIBVUim/eA9cMYJ6z1R5lkX4Jpm38zRYvpPxtBH61qDqZVre5mJgxUz1aOsk4i4HTNpIqZcU73A/p9StzaPkY+qTlUlw20vtMLD9bb5tXXJN05JdoCPQrRKrp1/kxSd+xVM/epznn3iK8dIBfRJiFvocWI4QCRx0Jgdg73cY7VlqjGQZq2bzamiv7bRwXQmGDZKRhmDUuzhDCKSUzPjYmWVdRGxfDKyGFWk3crQr7H34QT7zf/8T0j3nuNQnchdIJFRMgIJ7rgafkVDFugPPFBqCGdV6koIbRpMqfY5w5YjHv/Id+sPMIkcTWAHFAnbBRMxmNCwksy7Q9dcFaY1gggufJTIJaJ5FMQqXc4t/SKjksS7sFNcBF2ptBLqSQyGRUq+mi7fkZ/UVkn/b2v31TQ0+ZY0TlZHq5NZgl9LUodbFrzn4MR9Lh4jdW4AoiEREhWUWwtHAThIOn3yWx7/+XZ7+3o9IL+xzXhf0+wMdwmGHhzMN6Gj+NCKdfRDEBu5W/irNKD1Z0zxNXHeCoSEZ2dJEWq1WLBaLSjRjLrMqBmKIjCQuLxPLh+7jN/5vf8yF97+Twy4xRoubq64qjuWFUIhZiGo9Ttfjpt5UWNNgXMg0ETHDeUeH7h/x4298l7CfWOTgPRXWa1QCnxcqcXGtxFI0GNZIwASxCH+9504yntic/Bzl5S8CWs6r58okyLZp9WzLzkUDagS8CnxDWuVY8PKlajBFcH2/l6vBYxVbxrbuZYeGxKZrmsot+wu5aUO0hYST+7+Ia907IXL+SFm8fMTw5HP89G9/yGNf/y57VzJ7KViZKuQxkyWABIJEbxKN5FYzdDeMoNZUanE9ZCFevHjx32/uPG2svTgNggc9ijGSsjkaxRjdIUw5TCt0p0PvO88n/qd/xoUPvItL3cjQKRKFPtkDtx4o/3oWLcZf4iIY9eGfJUhAfL6nqEa+fYiEMfPCr55FhkxEIAQXckUC3iVc+MHtMALBv8yItWn9Xa/b2ixEey7muOhtYLffaBQkehdsEDTaQvTzgqUh2q9GIfuvxvVzJHodogm75QsShdSF6VzvZazbQdAYpvJqmX6+OCFFu75CYu01l3Up11f4NICIIjZBKMGbVtFdL0Sg8w+ooOYISaI7t2T33ru4cP993PW2t3Ll8mUO9vfJq4HocpKDNf2ye/sad3rvq3Ncscm0Gsw2+TsN3BCCadFeaLXDiK0vQkfKypATKWYOdpTxLQve+YWPc88nP8jR+cjYwSjuP5CMVKZuO5eTWljzc51u8M2E5MQeMnQu3RGBVeKFp59Fh2RfVf9KVz8KMXYWCvGUpWgL03OU8oUvX3Bf7Ks/bZsgFOHzCopLg2VUBdiaHo2WU+1pjf7v+0LJp/q8TCSoEbMnhel3qp/NslCto6JOhFMZ5RrEyy7XDk7EpS7l2kp+JQ1YKNeqAMlUT7AubJQQhBiFFYmDkMnnl9x131u57777+PWzv2b/ymWimw2OciL2PSQ3MZSL9ZtaLiFU7W77x/20EDZ3XG9sNpFsH9B1rIJ5L7LsGPvI0W7H2z/+G7znMx9j2Os40NGaTtG8ef01azLa3HG2UQKXZ+9dMBuLjSBX8R4jF+SymLpdJaZhCf9Mm7qwrpbUb3MkaCBqQDRQ/7XbGhE1dzVR2w5ETykEDQTMRmHrJpZ+BsGbKZZ2EqypvtOPrdrGpiYr3mypu5w8LaVgqpFdl5XYrIt5q4hEtKgpzb0o6df2e49cgfrYJBEhoxyJMnaBsQ+sejg4F9l95B184t/+cy6+7528slDGnUjXdzCO9IBsuCVYxjdWDG44wRS0vUh2Q8RitXQdEgJDyLzl/Q/yoX/+e+S79zjqBe1tuEAaBkIIjD7PD+Xjsf5uzXBI8zJmnEhKc6Wst0tzpoI3tVzw1oQpNEJoxFEELFYyqa5jlVjsaCS4oFYSciG2VE5aTkxOKZ7OUgXx/W4Ateaca141J/Fy/ZyyDyPLiUCcxmqbZyKUQjaIkUolF69TSy7l+EQqZfFmfL21gvpgzYDYtYj1nI5khmXghcVI/9638aH/4Qvsve9+DhfGp4ukhDET2o/1Zk/SDRKEsLnjNKAb4z3apSCEQPZBX9Hnju4CRJT9owPufvc7+MS/+H3yW3dZxczReGj2ypzpQ2fC4jaBSZUuwlS2y9foBt3tGwG3Q+HGvohYt2gIdBKqP4Y1QdwW4fFI7F6Wmzf1klhTYGoKWVMmICE2wn1cmyjqudWnWVzSyutgv1O9a0qRpot8yqc8U1P9y+J5+D4RL6c5q5QrpW6FnIIvnkYpTUEv36+tXksoNg8b1mLetcXNotZkrW6FXOq7qmrDBrD3tSfQYa4BOScGMlzY4ZUd2H30fj78zz5PuPs8R3mFjgNL98Y+9u77nbD6XH9P3utCMNeKMkhuHAdyGum7jiMZCffu8Yn/8Qucf/A+rgRzGl90Ec0jXRBIiYALR3mPHEU+bKO542cJfs3mOm43xF7waWTwlM4+fZMYTJqNSZklLS/y+nFb2mdQSEJpvF03nkM538jAflUs9BKFB8Sd4kW9Ho2BeY3I1v/i5FAKtdWpnM1zkUb6C5H4udZj5uXjRCITiVCuxa/TxmTZudndMNbKcZuIZ8YwmBNkDD5Xlyqh6+i6Dg3KIQOrhXJ5Cefe8w7e9cnfhLv20EW0IRz+smu52rZe0+p1xU1FMCJCjBFF6ZeRVRxJd+/wyJ98lvD+t/PKuUTq8/r4leB+BkkBGxhWXoB2zFF5jc4ygn9Rc4SVj7XRpqvVfUaxb7kr8yJVxS97tTQXJNY3WcQoRESRYIu1EsovNoZJsnf72sBKrYZVXw8eGzmAhoyKxV/WtWXSntSJpvyuaRd1Ma1D2i7ihjymnrGybffLOEAQL3ciF/Wpd4th2NbNs8XGGoGiOqJq9yRE/P6Y9YuqEU1LF6yLKudMwLyb1X2QqsFdlSEq4x1L3vnZ3yK8+61cWmTGztwObhSRnITrQjAnC/m0RxW6GEFtWPuRJlbLwIO/85u8+7Mf4dIdHYfRPBize6IWNb5+kdpPSS3UCad+qc4uzLnLh/+LknAjrn+YsY/q9FKIqQ+FdOz/JICbkOJINu2wr777gOBf+LVnEjyN52vpaTQVXy/uB54WCWjbJyy2z5pQ67YYy3uytYh4U26LvcaWSq9uQ3ECFvG6mCC3l6pu0xIxlcYuz3rdFG+alBPsstbIpRAJORPsJAtI5c1ayYqMI8sYkRhY9UK8704e/dxvI285z0qy2dobtaVwd9EQbwROlWBUPRyAs28o80YriNqXMIsZ7sTtATklUoCj3UD/Gw/w8D/9DId70SPL2UA8RYkSbJyRPVX3T/Cb6y/x9HW7cTf4ZoKgBM2gHuCIaRyLkYHdw6AJsPEuhGCk4xoKkqsnsIVhXyvgmL2riC14k6EhkyBClEB0H5Nap2M52PsRCB5uw5tL3q0Ldk3GY/UFcxO2a1WFl8qxyiOmOZU8veFj7i9VOzGfITyeLq7PtWZa04j8Qp2oTP9YJ1VrZpWm1UQGNMMVVKxLWYuWrv4xjR1jVnS00GHSwTsfeTd3ves+jhawitO7bjWb7qbdi+uPUyWYq0Hc4UvUu0c93pp2wuU+c+ED7+ID//RzpHvPM/Rio4B1MmLNuI7wey7TSpFWE761L3E5ZkmL02MVQDFyEZkeZPFZWs+zrq6ltXxKTaZyatlNGfaWlZ2l2vUqjqOcd5WPknqdDJa41M9y9m2vx7R/O0qjRkq92qRiFKuuRgb3fbH7CcM4EnaWvPsD72PViUUpnGrl5Gf5b7uW64FTJ5jCpnW73edfDv88oJo47DO87QIPf+GT7L7vfl5eZNJOb7aVqzyoGaeIKumTgFNk2/et7S+PafNxNURUEhVhKefWpC4m1WGyCq2ta0NU1bbi9ri6fzPfKsTrZdVjnn6ir81EBcevtZRX6llyKeRzDEUoWuEoZZf7VKvq5O0aTwyCakY7Ie923PPog+QLO4ylKB8gLEXWXL5uBE6VYNZfJrtBhUlHMkc+UjerGfLSAg73hAd/9yPc8egDrHaEFGGlgwXlDqbxXO+uttsB4ve/vLjly1nG47RdIZtCUewLVeCLAATzPQnFjbUImGVS04Vg44Y2890cm9Se4+2yeo59kOy4rdu2iY6Vrdq8c0zni697QS58DaHUanhZG9Ws0lrq4tsniq3WP2vv6kSA03WZfEz1bhevYD2/XLdmD3ruthi55wJvee+70D5C9jmtmkn22HZN1wmnSjBrN788IN+pUcidMEpGo3IYE/t7gYc+91He/anfJF9Y0i0CURXNTkDkq3xVZlwV227bxgMSF9LNvgh74W2/+vNQVbMNYL0+RUigbRa5QDRltzYCy9wTetoqWJ4XLpiUurmxtKQr5ZSycRK0Mj2Nr5ddEyZdxc7z+rb1rHXzOmzcx3azcklTkIjbYkqoi/YMX93+Tm9QV2tsx84dRbkSRi4vhbe89wG0N81G8GfVaC4buV03nCrBtLBLdUu5WKso+AjPIcLlhaLvfgvv+YPfpnvbHeyHkVEzC4TobKysBxSa8cZQXzr/8tsrbL7lVRTEv/7NV7cK7TG5WG/SFLNpObb+a+vlfWh2rRNS2bmZqKxZJW0p3ddefklay3BtZk1LKJpMKJlNGs5JaPM+JrjN5dR3/Sp5nQR1blDU3DD8n7ifTAzCoCNpEUl7C7jjHClM9uty51XUg4sdq+l1wXUR1/LQLTKdvwwpIYMZrA5l5I4H38bn/92/It5zBwcxkReBlUc+7dQcxIJ4sO8Zbwra174VOPWD5U63XbDmPOaR8EO0IFIucOrTn4hM2kI5Jk4cDUfZvrLh5217ullLTJopLZQLKASxRYhLIZ60JZo2iV1zQ6hV6yn3yP62dVNcu2lRycTTmzpY75u2Xuxbr3Q71N/9mkd2TT4II8rQw1sfeBvSBbtPVru15tmxul4nnCrBiGZUS+xRm6ReBwURQhS6TknLDPec5+P/8g+ID7+VF/eUw96Yt/g2hRjpCMRk+2a8Tmy8ZDUeiwu/xVPx5qvYbyqjmZvztAhPIyRSDa+T/SAU8fRybbuxLzg5FZKpZFM1JNcAiqNc9UWxPE0bcQF275caeb80q5iureShYoRU6lzHHXo9jQinerRXWq5FrIfbut1DQL1u1jQpw44mra/8lvqVczRMgbo9oVXD64/Xx+xnAdRlIFs85CGAxsDu7g7gM0KgZo9CCDkgORKbQlriOW2cKsGot2FLJHk6c2kecyIJXNGB4XzP+373Y9z5vndxtAwk725L2YNHYZHltXWsm/G60N66bS+ZyXPzJS9CaVLuL38R+rIf8G+m7Zsyq4JaBKwhn3Z/WbecmnrWcmyj1Q7a43Xf+iErZ23HhhayrYnToJRbf5p6toem9ea6moPt9Z0Ir+tamRso2o/dW7+PTtymUZo4e1XsnImnKq6pPm8STpVgqr+TP9gsIH1AIgwxs7q44N2/82Ee/f3fYX8vctApK58SQnzQmQabkTCVgVzX8ebcbijCXFT3rfB7PAm+E4ofM4K3Z9BqGfW51O3pRTZSmb7oJSxB2W+/vpRqFALz4mpVapm+w7WYUhf7mYSvpJU1e9Brx1SzsmO63lITSo3Kddmf14Xp6hq4YR0RH2LhzzJboLCc85q8bbve60kunCbBqHs9BswLUoAxjww6sgqZo93IHe9/N49+/pMcnIusFkLqBIKp7l2jPhdNaNsNm3Ht0A3NJWd/YdXeZD3mAuDqekMARgxFhd/cv76PRti1Crw9ywovrgqTFVh3TkSzTjh2bMqvktgWATq+h9qzs6HTgNe51KXNrs2n1OgYynXTkEw9Vqo4kVJZ2nNL4uO1s2BUuHcvWWG0aUrGw1VT0vF6VeLZormeJt4QwbxaZQVBshvoyXSLjlVUjnYC5x66jw/+k88S3n4nh0shR7ulwd20JRszF5WwPvRXKXPGyajPy4XRNBlj/zLzJVtefCl2i7LHJbvIdIXvaAW07vMk5elZ82T9WVbBa2wn1Z5R1isBNXmXzaY2U93bralZVPPf0GyqjJdrqJWfrn27FrBt3zqMdKZ82uVYntuyU39OfgGiygKhz3DwyqX6QS93tjUnbMvueuCaCKa0/WobsHlZtx0rKMGM8N/9NLDfZYa7d3nv5z7Oxfe9k0u7MOz1rIKPJ1EbQoAvlXlvwrmObzn481lvophmUDQT+/WeoS0vfvULgfraVgLy85FWw5mEcvPTUMotedTfpmzb3+7zOq51nduipWpreZb1RuDEyy4k2eRrkrlBfHaClbd25M1FW3dbPaG8rGYnxmZ75Gjk5eeeh2Qy4t/k5jndOFwTwWxik0hOQnbjbi5hGvsAF3d59Hc+yrt/6wOsloGDXrgsI0du/Y4ZC0qN9fcHn7uXws4ez2TGq2Mb+VcZq0LYrpvQFbTv5ySE7c51gVg/UM6ZlvUvamGD9fKPEctJ5GeZ2J+a1M8vxNUSx4ZPTiFES0AdTX3S27V5lbXOtuH71tO8FtT6Nnn7gTaZ7cpK8HjKEWE8OuKFp58lj8nOVTXv5pZ0bxCumWDWDLZe42gjxK0J5G1Cxb5eQ85kiUgSuhGGLrF/Ubn7Q+/k0c//FuNdHQdxRQyJPgo5CEkCqhG0gwQkUPX9IZIQtPG7mHF1FEEt90t9fujSjdl5r8MYFOkiKQrJu6ibTNAY/PmU8clTU4PmfSjpi+Br/bjY3NIEppgu4i7t7osg5Zi/aHGzS1p8OhVptCMvo9jnylIis2xrglUywBLbe0udRZpQAnhnJChBbCnN93ovVa18rGva9lnZlvWkfYtIzUdl5Ki3MXejj36OirlguMauqkhW4qh0o9ITQDJZRwjKKiREYPdI2Rs6zq96nn/sKWQUNHSof5RjznQuk7lpAl9PvOFS1ZsyAZ80LSdyzixDpBtHdrqOsVOu9MruO+/ld/7VH6F3neOyDkgXWI02UVTAgjZXIhN/uTcLnPHmoXwwynZD3JWYju1rjhVyadLW1FWxcK1og+wmIno1WJl1q91osNaYWEvS1L++Vk3z6Fj+9lvMU5tY2+cZrmt9rhH5vlJfKbFdNEwT0/v7TkPYxRVDfV8WSGQj0dJrFAMrzQxAJLD/q+c4/NXzdO6wG32hmTb2RuENE0z70iTNSLRgPhGhl8BhXvHyItM9dA+f+L/8E8J9d3I5JIYII0rX9+Rk3WymCZWnOJPLdUMJkLT2PF0wPMl0bHJ6q0ttxrT+GU5OVQg9n41zSxrTglzo2/J9/zFMSdaOTvVpjpS0tW6lTtvI4HhZpXlpglrVktoMKSinl/uxxlzYZGkhQ5cD0WMZFYLJxaQQJlKopOM9XrGLjO7FKzESFj3j/iE//sZ36S4PdNlJLHv0QmzGiFuaYKhqor80QUCUlEdGHTlYZMZ793j0jz7FxUfeyX6f0WUHXURFyJoR904M3p1NYfQtz/sG3qtbH9rcYOuodYkwoVQmYZQqcJYW3572TcdNsFxYC5k0D6qQTU0/HWoEsZBC2d+Wv76O59nW0bOwupak/uu5T7vWs6rYKKKivotONNvey5JxKafss3vqJxSPY7X5ps0T2Jt47jFdm5+NFiNizbCUMjFEcgikrOgqcelXz/PKE7+iO0hGYFOrs2pAykRk1xtvmGC8CWuLWtdy1sQYYFwG9K4l7/ncx7j/Y+/ncj9y0MO4EI50tLZyynQECwnoN6G9MWWZsPlkZ1wrjE7s/lVDvQcyEle//ftv9722B9bv+ZogNj1IBabO+2GMceq0rX4O0pxbyEWmgZUFRmob6+VwTWc7q3BfxY/QruvYS+WY7sP6Xv+tTXa/luaam9X1fe4gahqJTNOf1OaR3QsjGV8v9SzX7Ttt9gchAb0GlvuJZ773GFeefIZzdHTJ8lw/98biDRMM/kIld/6RbK/xYchc2VXu+a1HeOizH+HwQk/a6djPK/bzYONdcmbRdZV1La/p5rQsjj/QG33Dblu0TYeNJsykZZTeqHVNpmGAY8TSoua3drwhl1qBdWJZz2gikvZve3zb3halmLa8TaxrRrZufDCtF2K1XcczqUXUJpDNmplLmRvvd6G1cl6xR4orZcEH/XYjnD+E4Ue/4udf+Q7LI0Wy9SiJTk0tlSlU7Y3CGyaYGjA5BPq+89n1IPVw4aG3897f/wTpnj0OFsqV4Yid3R1iFy0ea7DBW9p0PZuKWF6y6d310tqNGW8iTI4KmZR7v+7Wv2n0rERkGy74k8AWEqmEUJ5nSyY1Mz+jSW/b25/5CbsNbd5Nvu2hSnOb9WjytrI3ydbPX6vAVSojeM8YZkqoPWvlJnuikrzYZQqp+NHS7IkZLhxBeOYS3/8//5LwzCUWRA7SwOBNgNwYdsU67yqJXW9clWAmHwqbzhKbeMJvmE3hlbL594Qs5AxHXeZyGFg8dA8f+rd/yPKhu0ndQAojLIVRExZ32iKl5+wzBRSLebBAOqOYy4tosbgbe4vXa8arY9MHpkURYptN0IhdotnFVMqI39IN7F3DdV+zv+Y3ycuknZR5jMyIbNUob76TiQtvaITd5cubM2aoUE+rqma7azsB/Gtt2TrReYVKXaubZj1uacrxMlDQkgQ/Z72jW7xOhUqD59PeH/F7Z6Ok3Tbps06mMk1vMM/1MZQpWSyYelRfUiZmsYG+wTpDkJ4FS84PS869MPDUV7/PweO/ZjkAq5Fd6egJHPSBIQSUQJeE5WikVK//OuOqBFNQXoSUlM5HbWYySRMEIYUStDtbZPO37PHo5z7B+Xe/jSudsursYZVeopCtPUl5SL7eWrvLg5Vi/PUdx0VlxkmoGkb5AoOPwZnkfEq7vl2gng9rv9P6tH8iDpPvUmZlnQmNtmPJJ1vMlKbUSdaeupT8/diUZgOebm37BJx0SNomX9HUXjPsrOIXU/IJfqhcWZSAZqWP0c5we1gqHuwpEw4TyysjP//69/iHL/41sj/CqEQCaUzeYbJdW9my67rgmghGveJ935NSIiUfI+RfFhuAZT1CeSfwwCd/g7s/8ghX9iLjuZ5VwALmJKVLanNxueq2iaLN4DelqIzS+AjMeH0IwcexbBBEwTYhKkSxSVSU9A3ptORiD6/s2zjXjxVysUKPl4y/D3jdtbQbTkI51qTZmnXZt+UeQKmbVXIiynLohHM2YNn7dbsZQGRqssBkCghlsjURDg+OTFa6jqSZLnYEAv0o3DFEVj99hp9/8W9ZPLfPbrJpX3RI7MTO5okqzalaxlSfG4FtMn4c/jIENSnXTFUjRUCy+WqOPVx4172885MfIt17nsPO1LsgAkOq/fNG2969rfjkWW1xdjsKsRSo22hmvA74fVf7swXukVpJZuPNdKJYX8pDsqXGgG2/ClVYm6ZW+1TrR8Mr1Rr5fbuk1yKUBe3L0ZDVRALr5NUmL1jLoubt6b2qkxbX7rftY3nWY80vFEcOO1zqVaoHkH2ur64jo6zySOh60piJI5xPHaunXuQb/9ufMvz6ZXbHSFolQoz0nfmS1eL99mszVGf7Mz99XBPBlJZoygkUYrApQ7NHrAuabbK0vcC7P/Gb7L7rHg66TMojofEsjGvMKla8lAa0TcCG2uRatVdpw2hlTmHHHuuMV4F5vXhgSNmwY/nLTvN8TE4mm0JN44vFejUhqnYbP7FqmeV8T1fG+9B8LMqwBSOP6Zy67nlmAfFOgWptXrsEy7elR6tSqUzdYTieRbM17RXsnbP75WE7C1E09aUh0oLW/hUkVMGvTf7Cw1npJJBzsjnCfFhG0sy5bsH5ldC/cMAP/+zrPPePPyeMEGOHhGh2ymjNq5pfKb/c02sV9FPANZUrMjWTohgB5GyDEyVAiMKwFBYP3cdbP/II+eIOSTIxBjPi4jfBvwbltxBHq8bV5pM/45Imy7p6OePNg8mJ20MqmYgLkjSSMC0mU05a5fm18uUbLkdrglye/xrWzm3yct+TaXM6eKzcNo8tKKeWa6Wesp7Bpl4iblwWr8s2bJ5j+7w8pphI1Q7pH9zQ2CGzqlsy1SLUZaXfH1k8t89P/+KbPPU3P+ROXZBHZUgZCdFkMdnwgUquXpa28nVSxU8Z1yyvpsUEonS2FoSuj2iAo2HFUVTu//gH4d4LHEQzAEsIJFEGdN0Furn4gvb93UYwbboZrw+mvRhp1H8NkayvF0H0Ze1fyXA6B/u+130mWMdRtZur7LMSLAPFpbSU4VpN1RYqu2wX8hblWorkCzXbml/NdwMiFnB7WxknnOJo7qUzrdC+66atiwihixDsoxySsshCvz/yy2/9kMe++E36V1bEg5FF6EyRS0pIkFP2QcClRMM2cr/euCaCURWUYJO7Bh9V6tpLSitGBrqLO9z3Gw9xtBsZDw/YlUjKozMxBLWzsgRymFTs9uLLa2RTxGZUMjlkUshkKf7CN/J23boQBPW5pG3uHPVvZZkKRsr31SeRL1/5jW7uViqLQMo0qVjwX2TyTC3pJRZhmxbKGLRGq8C1oon0bN8E1yS8LC1NLf9a29ISpS2KBdouO6ZZILXuUynzQk9d8cUYS7DJ7EtXfbaq2N2t5FWIa7pH5YOaQiZ3MIRMjtaVnNW1QFU0CDb0Vwgo3ZWRK088w2Nf/Da7zx5wbqXELpAVYujMA15BfSyfIKSQGVxmEPMbjk39TiLQ08I1EYzdfxvGn932IgppHElkwrkld7/r7ezcdZEjScTlAo0eZT0luhA9jsu6j0Ob/7Z19T/1llzfe3NbwTRQH46xhaOnF+/4S1i3XeiRQghlvwuWiD9jW+pJjskPZlosi820frypxpYq+74tL8WadtKWdxWcmMR2bmpZWDHHNJpt9axkE/xXMFuLWKzpIZhRNw0jMXZ0oWM5BsZfvsg3/+OfceUXz9HlQBesO1pEyCkjPh1K3/fklNaCspV6CDdW678mgrEBWvZSqUAqwYdzJmlmP2TufNfb0S6SAhxI4kBHsqppL957tPmo67qvtOuUB7jxYLc85xmvgqKBiJjeIm5TwIlHAaK/CptfOv+VNY1g/YsofvzV0Bo9p2e7TjIn5bOuzVwFWzSIgumaXx3GlVMeLbH6jlrnFqXsck/KYnOr2/0WMZuLYEaYjCLRgqt1Q+ZcivTPHfDj//4N0uPPsTyEQEQz9NLZR9ftQVrua5mSdsvFbSPH64VrIphSv9qkcdWyC5HQRcLegotvvweip/SbZc6NdjPbvETBFETz9CyLFvN6eYl9rptWzdv24sy4Ctrmjb+MIo2U+ayZJjh+oPTieJey3Xc77KmnDO3kutrubiGNgE97JpKx9c2zDE0SR5vPpCtR0xa9ohwpothi2751lLOP1WuL5nI1KOvpVcwMENV8wjofKjOiLJOw89wBP/3zv+W57/yE5ZXEblzaZ146VIWg5rSquGtAmHI3o7E/llrijSOZqxJMy8D4TSoOQeVrpGoXeP7OC8QgSEqEMuixdD82j7Lm6bd887rbdrQwGcPa4zNeH0pPCLidpNEKggSINqG9YUpX7BDFFtE+I8t47Wc6vYi52J9QJ36fkhnnNHYeMcEpZ1s2a+JZ19DpmkIIxz4+9fyyvVbwMe4FTzOR7UYGBaWqJUmTr12OfSS1eV+rphjKV3pqMomYfVKkY7kSnv/2Y/zyr76LvLBPzJPmZ0MXLLwJks0kJNi+gH2o/d/Up3RjcVWCKSgGNKFoH/YQskfbIgbO7e2Rg2krFkjHJkpLwYyIaz1BJzy3bShprzX9jJOh6qTf+HWUd92e7/a7vCaYdfXktO2RoqGU35NQy9C2Hqax2tb6vvKzSSptMhPqhoDaJE09165vAyfdk4LNc6U2o1xgHO3dzpptzi8CWQOjQkiBC0eB/cd+zY/+/Jt0z1ziYo6EUdGUnJyL8dsJ0p9b+9Et2svNgmskGLsY0ybW47ZoFELfsdhZWtAcLA3exdyG7KsfDM+n3PZ2KcbIgk0NZsYbw0QpdceEIrAuH+2bOsmRkYUlO+FVFvtTzjlOLkVKJuKRohUXG8Uapu2petNfy6+kWSeOGszb7RbilT9WpU28aoItKJq512Xz/ghF87ctHRVGJYSe3RSRn77ID/73v+ToF8+xOBg5Nwo7CXqR2vMn3sFyYs1uMnm5JoJBAFW6GOjs1lg/vAopgSKkbL7JgeB9+/YCqLgaS+PB6Cr3NmzuXaebGa8d9tLbqn8F1WimaKbrAuofjvKvuhNMxKPFwCglTz+vfVa+z1R12whYz2I5vE5ARgDBdP3Je7ig4b22nFqPKVnzx05SrNemheVRmdLOXSOgiUiRohq092CqR7kPtSwv3pKKG0YERInATowWdkoDO2HBHezAswf85M+/ycvf/yn95ZEuLhmHZDbI2LHKyVoIecvA0AabGs2NxrURjN8oTcnsLzmbJ6/aER1GVgdH9aGVFmC9Tm8nH7/u8vS2LRtJZrw+tPfPf8vmJKj+bFrSb4XLt1thnKRv/bx1MV5/dG32xyrFJOClLsc/QibB/u2q2CzTKj+RgGe4maimodpdSl5tjttuhKH6yhTB3iA7r0att6giOcM4Itm6mRcaGX71Ek985Ts8+c0fsHsEu9KjGULfozEy5BGNVoeq3W25nJsR10Qw4g81qw8PECGESAzR5i4alfHgiCxCiva10GJ3KS7W2yxqM24IihCbQNvvdNDeXfuS1xOm4+1LvgVVoLDziud2QV0X+yOuEV0zXLuw9c26rWO6xpPrvLl3sk8dx5TH2lUeh9eruOmb3RKiRNTjJoVRWAzQXxl4+fuP8/iffp3+xX3OxyVpNaCaSaIcpIGVZnPyu1qZNymuiWDwm6siDCkxanYPSiUQ6EbllaeeJa1GiIExq3mDqg/kChEd02aWM24ATnxBjWlMeAsBNWRykoAeE/ATklGaDgUuw5uiXMfOXA1Oips68audtobNajfXcQK/rMNu0DGs36f1BDa/FEjXsSBw/hAOf/wrfvbFb7F4dt+0mTQi0QwRWSB3AelscLFy681wes0Eo971JtHdpf1iY1Zkf+DFn/2S5aDEbF1uQzJCEbGu7Rij3aDSvb2e/YxTRnnxyzMoMFuaorkMI5gaCWWtiMk2kmnPqfFmCtpyaib+sSoDFYp2u0EsJr/FJlLWN4il/JT9hQz93JOwlnfZ5z1NZbFDx/Owckr+Uq9RcJ+vmn+pV7k24SgnNHbW/Fkpw9Mv8rf/8U+59NgvuNgtiVg0gYDZoFK5Jz7rhqgPatzyHG5WXDPB0L50/oKICEsierDi+Sd+weLKyCJh44+CjY4ICOqxKmbcWBQh3PqCbghbERCuds4mimTVbdOGNjWSYvcw+fQmNJa2ntegqdmx/Vav5ryT6lmSsJH/SemvEeVeUQm5Oea9PaFcswq9BvZSRJ+/zE++/l1eeeLXLEcYj0Yk49OZ+FgrP7dEGMC7pm8lXBPBbDq6mZXcviQ9gT4Lhy+8wpVfPku3SqRxtK+AfR4tGtlMMjc/XOjrun3n15OsbW1D/bYbgZS9RfZdoE0wPTf3DPdTtsDr1VZv/ejx89qyvFbSElDzc03keRKcfLXR5KZjVq6vsiDQHSbii/s88ZVv8/OvfZfdg0QnkRgj0UdWp+aCggf6jj7T7iZZ3+y4JoIp4yhg8ksRLBD4OCaWoUMOBn72nR+y2B/psPCZAORcHfMKUW19IRoNyRZPpVuWGa8P2TR680uaBFx9RPXkcyQWCMztblpmjvAvqJQuZ1xgN4ikdulSmjWWZzXmlkcohWiOQ6HpIp+8o7TNrwh1eaFK865kWATezyn5lJ1WsgU8K/mX9KUs+6DamUVYyn4rxgoP+Chs31fqbedCGJXFSrk4dLzygyd56qvfh2cu0Q3KcHRUY8KYLmd3ufTFlssTbi4fl2vBtRFMs17eH1WLyztmpY893aA89cMfMzzzEkusa0083qiqefvaTfd8ClHVl7q5iYBUMtlcZrx+2D2cyNvvqCjJBcZIozwnC0lgglzOp5LK9OFvn8vU3ClEsPncpq+657N21LAmR8cS+Elej7qv/LhG0UKcsCgEVOtmv5VgSnOw0WrKvSiZlu5pWzctXZhmFShXp046CSWOcGHsuPL4r/nHP/068utX2NOOTgO7yx2GYUCLbxI+XqzUu9ShPK9bCNdEMMUzd9ohdS4jCcI4ZsIIq+de5vHv/BC9dEhP5zPYuUcvNnTgJAVkG+HMeHNRiVzrK+uYvLMN9pDqrjJ6fl3uXCCnZbsuYmjP24oimFsTtvvWj1cbjKoTzrbzDVcjNDiWdd0OPj9Uydve0elqy7ewRAyI2LzTRQOJWdijJ750wDf/w3/n0o+fYnmQCKtEn4V0NNL3PQQhR+/edvPCsWbXLYZrIpgCUXvZBMjeXRajR7jLys6h8sRff4+jXzzP7hDQUdHYIbEj5YR4mxJn6uRLPracjJMIasa1w0SyqOO+r/aOTIt1MfmPRXqvZ2y+9kV4t2HSZE6GJZmaBM0fO96e7mQmXu+qYzSJpvzqVgPfLqQofv1r5XldxCL3S6O1SNHixbVA93kp56UAGgKaoRuEvSHSv3jID//rV7j82JOcGwPL0LMIHYw+MLjpxSsNuc17fCvimglmasbYnYwx2o3VjAboCZxLgfzMK/zwT79K/+w+y0GIBHTM9HR0yYxVJCcSn6AqiQ1VL+3V5q2u3dqFfEoX97xsX46huYdJrdlanN/KSGnE2/9FBffxMtJGmwsWMpKy3Qpzsdd4BaZDtmL73Zu7WYpgW7pykmkiJtxTHs4GNUm1y6g25Xj9mCphe/x6gocGCeojkRU8UmIr2AWmtEzXmTfCtwIEz0O8WZYEBhHGKEiIdAn29hP/+Gff4PEvf4tz+0qXA0mFhL3/MXZVczftZ/0+rS0NCd4KuGaCaVFeRGt+Wvt9RJFVZu9QePn7P+UXX/oWey+tOHeoLHMk+uwBAoQu1KHqTts2RWm5eVdpJr0mr88Za1CPpKZizdUs6nN1rjtB2stcxLbtZm6EViYhfjWsE0Wzf8u+Cj+n8k9J79vlbalvzTXWZRtaEtmG9qi4napckhGlkEmI2uwAASFqIIywPFRe/ocn+fFffoPFi0ecSx0MCjUiUvD5jEK5tKvdlVsO10Qw5YLXLr6QTA2lGYgIO0k498rIE1/6Fk9/8+/ZefGI5SpbYOIuMJA5GgfwsA4MyYLuIHQqdN4ltw0WtWtz74xrRbGBTeQy/bZzUFMEtyGaTXt76eu4GiYNwPPZ0HymhJs7NoV62nLdxomnEI6TzbZ8xM/acgxOOGkT5UI91jBNnYpmLWIuG7JK9KOyHIULg3D0xDN8+z/+OTuvDOyox6eW6Hk05OZE5TP33DaIFy9e/PebOzex7eGVF86CEAU6hU5tIGRQJa9Gnn76aZa7u5x/612EvV0OJEEnSGeR08lKDJEQ7Dxxj0WAXDyLXHe04n3fVZcZ65juiQlm+/ZOke4PLh2QDo78i+NCVOwOVQbEg9w5URRNospdo2HUZk4R7nKgFr1GFJa+edGa/Ns81/Mo6+t1oSEcLclah7/mvEqodVcpz+sfvAtaIHu+wdOVD576/pigiz2dCjuHijz1Mt/7P/6Cy//4FHsrISTv7gdAa4+dbflv2dUYkQvK5d9KuEaCsSubSKW9TmNla8oaSXSxIx+tGA9XPP/sc4zjyB333g27PQmfXylbaIcYohl8c7L2rTO4lkapd9lZtK5NMtm2sGXf2VnW4uyI2TP88bHINj4Mm46dLkOvQsxwcHjEsH9gbgXTDLP+7O0Z2AfchbkhmVoA/m5UzWc9TV2vx/xcofrd1HPqIQt3YB+yKn01v2JDsqwKoTVpZbL9lLqVvK2AdQIs55ZrKDMsWNe7pbLmvGs0WsoIdAgpJZYp0r+wz2N/+g1+/a0fsXcUiAfZpnkVCOTJSOzw22LX73f9dsA1EkyrWk/7gkKfhZC9vRQD2R9sUGvyjPuHPPvLX3F0eMBdF+9kJ/ack44+22x0MQRCiKauRyG7sayQGpSxF9Ptt/bqScvZ/ne1O9Bpm86apSHb7+H+EasrB/VZqwtSedgmd3Vl2t4QBftANwJK++tC6vmWX23IyoTZy7REtjTpS56lfPuZ0qyTSLOvnl9WSz2beq2dYwkt4L3fE23vS3nrjPMiRuJ7V5Qnv/Z9fvrlb7FzaWR5mNlRC9ZtzVT3m2nqc7tCHnjgAd3cuQnxcA2jPXoT8TIdbLaHnFAGRpaLJUerQ3uBd5YcSeKSrhj3Ijtvu4tHP/NRHv74hwh3XeCSjBz1MCwjR5pQyYRszaSTKmXiMeMk1AbQ2j20tU6n+CUBDwo2JqIILzz/Ei8+9zyAzQbh6SNCklydyMC/3A1xrKHaybaQQPUInwQUF2JxDbklB/HzSoCrcsyyb4ilEdR1gimhXqd8NvO2uq2TUimrkFIs97JW3+sRBJFgmrVCSMqdY8/RD3/Bl/+X/0B8bp/FgbIzCDEHchRSsOlK7K7cRsaWE3BNBFO6/2r3pj0768LM9smLYvO2HAyHhC6iMXCUVhZSMwQkwqEOHO0Ezr/7Ph7+2G/yjg+8l+6tFzhYCnmnty47F4YiCP4ONJUxYruR2Cy+rd71wOstPwtoVhMMdwgjg6jy/HPP8esXniN5j17ISqdCn2Ho7HnggmcaR0MGJqYmeDWQ9UQuNE2n6SDevW0pivCvCbsnVbER1zFGtAQub5op2d/PteNML2rZzg2x1Lr5vva3EpbXsUNKX7tPyuZaFyCxI2bocmZ5qIxPPs+3/tf/wv4//pKdo0CfIzGZ9qhuVK+GRr83tzNeE8HgLwr+kqu9GUQCfTYGz5pJUWzRTMQ65BTlqFOGqIyS0UUk7O3ylvvv5W2PPMhd73w75+99C925JaHvzPclZ6IH2ll7cXL5+kxQV2NxX5n2JbXj0743fBxXcU86/mrnv9HjVynfbCyVmtsUJDecx2C9GMM40ncdw2rgmcsv8czBKwydC7Pal3uhwiq6JlDKLwRTBLLRBiaCWdca6rlObiJGEnaw/vHzyrrtb8mtEkujwWwjGMHfz4ZgprpMBFPv8xaCsSTBbIveVBp9cnqJEVEbJsPRyN1hh93n9vlv/6//lZf+/kkuDh1hBUE7OiKkMpZJbaKwUuhtjmsimOyu5LWHR2D0uaYRoctCn6BL9mKPQRlFbGoFb07hPUOj2BCwRGYUn0JzERn7gCwiYacH115yVkIz0NIgNk7pRJzQxz3DXmzXYkqTJ6Hs7Ozwlt98L3e85wH2l2XKVxPSLuPzVU2CqEXYG22gCGchH5fYiQhwQin7mATZN2zVyzavENudVet0KsVlv57vx3GCKTAyMtvgRDDNsdo0ApCJtL1+Ux62z26BQAysROn6njyMLHOkX2X2Xjniyf/6dR77i2+iV0aWKRJTh2bziwmI9ZI6wViNvUK3MV4zwYjaVCQpwOgvVMj2IvbZWpUZSGJtd3G7QMwQ3FsyRSOoHOxrQIBRM2kcTW3Hg00zPWx7AfCX4WoP5lUv5w2jyAWY5nS9cbXyr9aq15wIMXqPnRL7nsPhiG655ME/+DgXfuNhXlkq2gcz5osZLmmFr+pHLqCtb0hrK/HzizCD22AKORSUtLZRic/yt725hPyoBGPlWxlTONbwagRTtCuvP0VbknWtcKq/NwdL+pwZBVh2JIUuwQXtWFwa+NlffpMn/9PX6F88sAnShsyCBZqsjECw+YuwOd3t7V67E7clrkow5cGVW+HPqzaPshiRqJiDXHASUk9jk6p7PItyrpPSQGbQEfUZImMISIaQM5KtS1qD2HCCtcex7psxYx1rt2XDWN6rkHImd8KgybT/CEMfeNfHPsD533k/r+wF80Eqs20Woi86hRcgPgBQi8A7kbRNKdMQpvVWwCtcgHPJ0yO2beqhlo1rTEwEYGRgeWwace0apvpkL99CoblGU5rgpenmvUTq+Wjw0K+AaiL0PYeaURUuhh3OX15x+e9+xt/8v/8z+WfPc3e3x6iKjiM9Nk4vJxvHJZtd5WcA10Qw0pAM/hAKrFt5umGbvCzeRDLiUZIC0W+0E0cuTnaYcTH4C1W6xZVJRS91wV9IheOf8bOM5uZv3pWOntXREXGns6aqZlJQxmXkgY+/n4uf/qARjORKMIh9d4twlwKCay/W7JiaG5tCXvbj424KbFfVGazrVqQafms+/i605Ys/e19x4TU9q2R+EsGIU6U4wYj7pmgw+1Wbt5GnrQdVuqz0iwVXhhWd9Jw7hPSTp/nh//fPeeUHP6PXjl1ZkI8GqERmZavmWtZZIpiradQTvGmk/tKqk0aXoU/Qe7StXGZyFH94nq6cS7DpSUcyKSco3aESiGLNqxACEiLq02mq+oujbnvxX9Fgv7lsz4v4/SnL5jHN5mlKDjBCR6STDk0WjkHLQNINwg6VVvyv1FUnkYkEqDI5NT9q4o18i5gVEria4JX827IrudjGtP8ElMPlHW73F3Ip0HrAe37E7kseRnYlcmfu6J+9zA/+y19x9OOnuXAU6HLHaswkhRA7I6h6za9SudsUVyWY+tA3702zHVUJmhH1UamS7QuI7TNl1/aP7usiAhLti1YeZPlaZDFL/ehBkFIw57skkOqD9y9MqUt5w+fFv5n+b414jKi72FlkuzFBxjx6Qzd1v9IYdBuIzx8mgmsH1jwq4lPlyAfC1/OOvTz++tQy7FePnTddVpH0sl7Kr2dXLamcU0ivvL/+q019/HjJcSJRbzr5eerd9oqiHvB+kQLx+X1+9uVv88pjTxEPM8u4pCsfva5HPQB6GYV+NfK8nXFVgmlhqrChaCS1CeMLTXOo/SL4+40/44r2gwuT8TiJx4kJZrWvvRoe3qGUOy/Hl/J11s376z1GQ0qIwHKxRICj1REpGXUbycjG9708y9LcmbqN8Wc6PenjKBYccCLw3020AlhIYZ1YcCo4GXa0pJh+y1p92f2DVt5J8fcWL7vcO9Qd4hJmuFWhG4Xdy5mff+37PPHlb9O/PMCQORpHNGe6YFOMpDR6s2jK9yzi2gjGX6zS3aZuwB19SX7vAlME9OCvqY3YnV50qSp380KpPYBAIRIboxSweZVCOacQ17ycuFwNGtQWUbImMt62je5AVppJLnVVE3IfkLW8mgUX1IIiTCU/KPaVSfM4ERuHbdPJbcvx1wIrvxBuqbTlGxAWsWMYRxvgKNY8z6pEiQQCS42cOxTGnz/Hz776PfoXBw9HYnmOUUiakJzoVOmCkLNd+2az86zgmgimvTXlIeuGzYWGACoZlC9B82un+/iOou14es/a83Gjr1gAnkJu0dXZeTm+lPvdai3qGofdfyMXu8nY/YyBLkb/WvsXAJ2IoAhi85GpuzGhNUIpv35as67lhG1CVjLaOKccouUkbwLWalaUfFvKKybfpsy66lpKPWBxo1NK9H2HgGt10MWOcTUgKbMc4PLPn+Gr/+G/c/jUCyxWsJsCuxoJIhb6wuf+Fs1WgHic3XKNtcyzgbC5YxvKTVFXw8vLZsI+qc7tV0q9OVP2FYIoFnxhUku1IaDy/pe3qv0ql/JNaOZlc2HLfTby8X06+Kh06DRYKEgCktSmlRHqcX/M6199o6jp+W15PmskUeoG5M3xZf4cEaOCct6k2dqLIG7ob88zkrFz3Czt6c29Ibi/yUaJtb5TwC1PoRBQkiaPjRPoNbAg2n3qIudSYPniEY9/+Vtc+dnTxP0VvX8ER693VNcOo6Ah+vuaGTtljNnuT/NRPQu4JoKZcXugvtRqQzpyzmg2B8dxHN2gefWZA03PaUmkPXocRlTrWocR1JYT13b5xsZ5aztotBsvx7b9t2pXdqz41gSffyg4KaaorAJkURZdRxqTjUGSSBiVfqWElw/40Ze/yZPf+Xv6o8xOXCCYP9dYbGCFfJvmqvo2OmmWldjOAGaCOUsQMR3EbSNFu1Rs3FfBNntB0Qdcfot6s5lsHa3ws8EGdWfJz0mnEMRGuvUzJy3YyKQQS9me0sBEcMVLuHZE1Ga+MHRC6DrSMBJDQEUYh5EuCReHjl/+7T/w+Je+xeKFI7r90ZxHQ2fneqeEiBwjF6vJVP/WEH8WMBPMGUIljg27SQgWwL0VVJdRO69ZN2lxgW0SVQH3ZpK4vcSEexIxO72U1aRbO+75lH9NeaWYUnZLLHjepblYFhNomRwGcSLA+t6TWPNFXfjHbLpILx07OXL5saf40Z9/k+ULR1wYIufo0TGTcibJ5CEcGm/22ivlpoA1I3mt8+2PmWDOEMqXvYVuOqCsiXoLk+5iU2mPV42haCEb+9ewRjbTepNgWurhQkDba9ai2IpK8nVtIVgzqRKPeTOXCHUpJQiBGHvCqOyOgeHXL/HN//BnpF+8xM5K6HOAZFEbV2mEIHTRRtAFJ5O2ftJO/drc5qtdw+2EmWDOFI4LqDrJZJ9IbxtM2+GYWBw/Y1NsjCScI948NCRlm35dkzoDW+sHEuJk4C09Psm6lUNwV/6UuUhPfPYy3/8//pL0s+fYG2yWABBi16MihL5HYuTo8JDgJFKIRL2GoQRma/3DZiPvjNsb9nqrzx9eBLM0oWqTpIE0PUk0NpnCHq1wbwr6MZx0+KT9J8HL3oZt5JJQQmfhWVWE4FOMaPJhK+512xPIL13h8a9/h+d/8BO6/ZElEYmBHAKj5poHquz0C4LPklHcBQoKyWxqNmcFM8GcAUwOb/71LK0PCSYQYl2sRcBKzJXUeE7rBmmIvzwiFmKhdmNX7cASTTYYY6lCTC1ZYVNmeXe7rZfDJW0ZypBqWsuvEt+xuEEN/NBOgDwcoXmkixbhP4aeLixRiazGbM50r4y88reP88svfZfdZ4/YSZG8SuTSxILJ1yX57Bg+W4A2/mFJhFECqxgYPNyEqGuMWynw9sNMMGcYqtNrntKkzTS24LqvhTh5vJZvck25cYplvT2f1p6zue/4kS1wAirn2Gj+TOjMmU7HZEIfI12I7NKxu59IP3+ex7/+bYYXL7Mjnc22GCLkbPaqtqmzoZlUza4Qo5g3u7o96NoqfvtgJpgzDDPwFg1nIwLLCYJQCEHq+gbcYNoebCmh7N12aoEXAa4BVRvLZsItKOml1KMYnwUymRADIQaL0ZIUkloc4gGWRwq/fIXv/+9/zsFPfsXyUImjupegOdXF4FpfQy7SEovvKNtFm6tDZkpFz4YCMxPMWcIaKRRDpFg8nnE013gT5k23W8O6tlFEax2WpBDQcSFfO6fZNlKYDm/TXjYZbUuKiuO+PGLhVwVyTgiw6Hp6At0IO0MkvnzEj7/8t1z+ya/oL482l3roCBLWYkNv3hvd1FbK3XECKsdxgmlJ83bHTDBnCY0EmxCIBUHK5tVrSRopPybEzVYhjKJdFKE5psG03Ui+b/2nyWe97M3SXwu2namomWpU64Rqskpc1J7dy4mffuU7PPnNHxL2R3a7BZJhlUakC6SczDmxIQt83bx4bcHj99aeIx9P2mo4m9R3O2MmmDOHxuBbSGBTM2ibJpVAtibdCsWF+AQIDaHYxmaS14SqJ7WVW6u3rSvWLV3i+o4p02tguT/y7Lcf44kvfov48qFNxUMgis1SoKqk7M54HsOoaCWpLO2gX4xYugzdGe5BYiaYM44NG8dxFFuGk8G14CrEQiWBKa9rzPVEGAlu2WcrayWo202CD4VEhKVEXn7qGb73519DnrnMRVkSQ8eQRpuWpFsw5ozEaL1camxRmkS1R6toNrUM/22WWpMzpMXMBHOWkAKqHmMwqM0yoMoOHWImGMYIgyiZbOFIUyBgkdpMRNyW4bEKTRu6uri08r9mGxHqVMGl67YKrBOHejTDMcDg8YeQCCFa887HiqsYARRyERfwWpTAYqX0oSeHyAD0OZJ+8RLf+f/8d5Y/fZHz2pNGteumB+mJQ/BwIZOwtD1INunatIgbc4cAYyeMHrlRmpHumz1PtzNmgjnjKE2A2pXrcXml+KQ0aSdNpxEP2dzetMFswHlKmJpfZXe7UbSCcswm8LNA2ipGaoJNM2wwcipeutUXp1ZFyOeWDEGQEc4fBRbP7vPTr36H/Z/9GslKzFIJI7gtN4W1mHxrOFnzm1EwE8wMg2sWQULtbZFGiLb26vj+qUUykUs5ay1t7T5eb9bUc6oGMh0Uj5IYVeizzxNdylMQbM6uEuOl2ESyE6RnjgAHmkljZrlS9l464qmvfIdffvMH7B5k6zFKNtdRmcMLUZt6Z8ul1/vS1HtzmTETzNlEa1tVRRVySo1fh0tmq8VsyIusKyCTQLXk4mlM4JpyG1g9jlt5tETz9Z6bQDsq2XWKSoIlep0bWmtmTY6qkIUdOu5KCy798Eme/Or34Pl9dnJHp4FObZbSLttcSBklyWQUL5jJ49oxE8yZwhTdvmgSivnBJPeDadsDrQFzu/H26oLmJfmGay6b55RNZywRt720STa0muBak3qvTtV+XJup502rKBCy0O9nXnnsFzz2xb+BZy+zlyJhUA9C1WhXtcgzZDA5BcwEc4ZRVHnVXJ3PxCcnO0YnlZi27S4ksn7sJDiHlK3jeTZUJMUILKDeXAluWM6iNv2wgKgSfcBhVGtKVY5AQYQ7xo7lS4d89z/9BVce/yW7gxAGtch1zqaZqZk1heOc8XoxE8wZhSkkTbR/dU2hGRhZsN4kKITQtrPqkSbdCajnHE9diqlHCxP5QEezq1gsaJx0bN9k8I0eUL6GRmjqvnz5iB9/6W8Yf/E8i/2RTj1yHd7j5FpRErPp4PluXH2zNePVMBPMmcI0fYbNVmjdpp0EC7qUbR8x+OhkO57wOZNqs8ntK04yxcaSK914MyeUkdbNuU3Ty7qVvV7GbRUlaDk++DIxTciXrUO79haBIBqIObBM2TxoxebRytm6o3f3M0/+5bf52Z//Lfr8ATH2aLKeoyCBURJJMilkEMu/6C+1ZymbplQw6zavjplgziSsEZJztgnC8vpXuqLutOhv2xMVbLHgbqAI5EmCOWkbxzOShnSsd8j8SULTirEfGwKggI5Kn+DCGNl/7Ff86K/+hrA/sJBoiZ3oskCKUr1xi6HYf6AMA9jA8VrO2MRMMGcN3vIo0qEbzYgWVdzFpFc85skxeMJqOXGtpj1+UhkF5bi4dlSNy6X8ctwN01IIx3kvuzOeRiGp6VKL2HMud+z/+Jf8w3/8IovnD9kdzNel+M9ImOYtWltK2YXQZrwunPDGzLgtUZo1ZVOEEPyLXwSORrp8D0Wotwjamk2iEs06yra0G3V1yqGSTPnTMGHZlLUm2vQCq9hsozkGxpSJGjinHemZV/j+f/kr8uPPcm4lLHMkarAeowyiQnDnwqoMlQt1O462zTovb8a1YSaYs4Qa+2VaN6Gepi2x5oU2ZGKJg++oTnitM1mROmepY/xU1yfCMMaYtJNWw6lC7kRC0VR8CUxqRRV+L14RdvodlgPkp1/hsb/8G/Yff5pzhxipGEMZsYggqnR5ipkLkzczTMMNKvnMeE2YCeYMYeod8l8nl5TMFmNHCumYgFciqfJv9psWJY1WXjBjskhJ6X8LZ1RNatq/hs3tDQS3RWcxw28JkyCqhKTsZGH3SuLXf/1Dnv/2Y8hz+/QponXsksE8fq242JBMqVlZzOZjy9xcem2YCeaMof0Ki3/1U0o14FQ5ssYpJ8HJBCevouVQNSNPVEmkFdvt8NSbuyvEbS9gTaUyRXGQQN/19Any5SMu/expnvjqd4jPXOK8RjQpGddc1Oit2G2yWC9Rsc20znpcRXs5uZYzCmaCOUtwJzrx5lHyztja/BFBc/a3woggN82PthlTuaQsJZ37qpQE2W0j6jMqiqctznFVpWkydn86IzDAjCUlpJNPJO9OdQsVOkyDSjmjCcYnnuWH/+lL6FMvcX6IROkYukifLY8haCUWdZIp29IEiypEU0injIYu2EY6M9YxE8yZR2kGTTaZlkimVJtoBK2wwfFDdbUKoxtNjXjsqPiLWA22da/9tnXKKAMZxIiFNE2F2yvEFw/5hz/9Gld+8ksWo/nHoIFkkzhWKE4gxYi7UceyUfYdv/4Z14KZYM4ynFjEZzW0kdRxbZ5qgxHPphZTUPilHBNXPUo3ctVIPF3pkTEnOdcOfByQbGo0TLajcsymWxFkzPQSEazH6MI+/PxL3+bosac5fxhY0LvOEchp8mWRDcI4fkUz3izMBDOjIqvP3lyJoqAI/dQoqGuFXda2Hd4CAmv2tFDWDaalVZY97EIhH5xgVM2bOMSAZLX4LQR0zLA/cH4ffvJnf81zf/sY8soRjMCQySmjInQhVHLzoqrWVC/hpGXG68bmc59xBlCaRMegOCNMUijucm9ah9tkvKtam0xqz1JhHm0l1zZDE9WtrBcklIQNCSi2ESsfogfoBhhVydEmhUt9JMaOt8gOl/7hF/zsK9/l8JcvWCiqKEQvI2uyLuimV6zUY01rOmE5qdk449UxE8wMxyRIr1mW2vRlvWkGqRgBVT8WnUJMBtdkqtZSmlDWMIOmiYQIEgMD2QyzQFwpwxPP8sP/8mXyc5fZycIiRgtT2QUkCqB0xVu3VK/41fj2jNPBTDAzKlJK5NR2V18bGk6pmoyJddk57QveK7M2UbxA2piitioQmLdxaOYl6rqOXiKLDPrcJR77b1/l4B+f4twgdEAcEppGBk2MOkJOxBLAqpDLBi/OOB3MBHMGUDUTb3e4ybQJsGR0MA4jpGzhDrBuZBEPoynu+SpOIUXNEc+z0Q5MCylpTXPBwyCM1qljbv0+UtG6q5UQMkETnWYWis2XTULJDJItHowKJFhqR/f8Ib/62g94+R+e4vywYG/VE1OH5EinHVKGOGgmU6Z9ta753NiANv1eZrx5mAnmTMG/28YQiK5HuFePir/edHADq0+fqtm6iAvJrGkB7caGiqBio5U1QHZbTtm2BEY0UbWZS8gISFGyZqJEwmhzGYUXD/jV1/+Op772d/DyIZoAIoEOCR0xGMEETPvJOkW7m3KdcdqYCWYGULScab2yg9pUq8U7V7ypsoaiBK3TzTp5iRFSLtqON4myqUjVIBu8h6gQgA0DEIJEdJU4x4I7DwPys+d59us/YPHcZfZcW8nBQlDkZDNV5uwVCEKe6eSGYMvbMuPsojJMJRtF6bqeEKPvmAS1kIf9rpPLVriwq/dK0XQbB4SFdzsXB7gsMAZhFDHtZBR2BkF//Aw//M9fZvWL5+mGiQzjmIkykVXpHTJb0DXUb8abjplgzhDWtBTfV3poci5DBpwumlAO1kzK1dDaEsqatlPLsH3FLuNZgJpdpw4ZKB69AmTbf26541O7CqMq0nc2yVpSlmOge/mIJ/7q21x54mm6Qem7jiTucONl1LqU69O1KjZ1nHHamAnmjEFdCdlsMIhYwO8YzTtl6hmeCKMmxDc3ZXRzu4F471HpQQpmyqnnBICUGYaBEKONC4qBlDIxwd5KOH858bOvfpenfvAT5CARNZKyolgTKBfz0sbFFS1pxvXHTDBnCPY1989809TBNZic3Jm+kdLypV//4Led0b7Hu5SnFOsoBFPCIthgQu/FcqiqxdEVIAQbiKnCcoCLY+S5bz/GT7/0t8grhyyJgLBKCfVR0N2xUieu2STUGdcHM8GcQbTG1yL4Aozjaq3HyIS/2DBCjbuiHoNFi/NaaZ1UD1xXJfy3pZGqTRTG0uyBtDMqEPuelY1hpMuBc6Nw/ki48qOneOyL36R/aUWfo/V4xUAMQsC6t2EkS0ItVB2m21ihxwcrzLgemO/6GULbVGi9aoPaVCBpHGtvEcVIWgmmnmnLhslDjmkJfoKTjIVxmOwuNuyg8VORTIiRw2HgKCdivyAkYedQic9e5nv/+UscPvk851kQCDYTJRBUCSjBYyqoE0zbCW2+OPOrfiMw3/UzDG1c+QHyaNPHBgk+/sg9UZq5kqxnxtI71Tga9mr2tE5sLVEV7UekNMMCGgWJkUW3YFyt2IsLuksD3/kvX2T15LPcERakwxVBoZcOslbjcBlZNOPmwkwwZxSbhs9inwk+RcmkcTSaQPHmLdu+1tp9t6FtPk0etOsTpAEcqSJ9j4yJc0noXtjn8b/6Fs//8Am6o0xOyew0KdNJQDLEYN3nOedNFWrGTYCZYM4AigayqU1UoXdmKCOcNWXztHUrRhnNrOqGYPVmh4BIqFqOlG5tJ6HWFKxqgcX7xcImdsMCREkya450Ee07Do9W7OaO3UPl+e8/zs+//nf0BwqjVTQgRALkbL9m9LH6ncRwjrl7+vpjJpgzhmMk40Rj9hizxYg3jaq2IW6rwdatQeMEUrSXzeEDbm8JYisiQugiq2HFmFLVhkKIEALjmNEMe3HJuf3M/k+e4vGvfgeev0J3VOaPtqlhpRKLX4fbc/IGecyEcuMxE8wZR/vVD2BesB6cqS4NjKBs57YkhVzanqOyEpy4QgwW+jIncvDo/iikzOJQkV++xI//21cZnnyW87ljkQQZraurhNm0QmyYgTvxgGtam8Qy22ZuHGaCOVOY1BfjCduunFEMuX6optaJObwFNJ0HtafI1stO0yAsb28yuQbShQjRgkJJ1yFdRx86lkeZxUsH/PTr32H1k6fZ2c/EIdNJtJHgEnxO7bJYOVUT26xAQVO9GdcXM8GcAZQvuoqipY3UCKj4RGNpNCNq2bcplNZcssZR7X422kHK2GeX9EI+Vq6lD7gzXMqQrTs8pUQaMn0K3HEFnvzKt3nqO3/P8hAWY4AhW6+WgGSb98jYaqpX2bRdGwfBKtS2DWdcN8wEM8OgSiq9NJU5bPS09SY51qR5anys9SRt0Rgq+TjZdCESMjAqu9Jzfgi88PdP8JOvfIvw0iFhVGKGveUuaTWAWmvoWMYzbmrMBDMDnADGcXReaXSB0iYqto22abSGLQzTEhMwqnnrimCxXVQ4F5dczB2v/OgX/OOff4P+pSMuyBJ1t+FhTEiMSAgkcA1qxq2C+WmdUdQu5A2DaAge5LsxvWjOaLZmVOlVmtSUTZWi7Zz2PU4q6sbdNCbzGk5wfowMP32G7/+fX+Lg589yPiwZh1x7hVKJhCdKCtjI6Rm3DGaCmVFh/jL2G0MghmAObMWI23BJ8aFpxX2TatR3ChZYKnTW3OpiR6fCRZb0z+3zi69+j/TkC5zLgZSUURSVQJZg9pvac1RznXGLYCaYM4RtXbjtMYq2UmM11INQgm6vH3DtxPPckm+LISUbMKlKPMrEF/Z54qvf4clvfJ/do0xMwbz/CVaeqoW81GA+MAoe9mrGLYKZYM4gimYxbXhTqDSLPDA2eMDvYERSUJSZTb2ibjcHLU9rNgUJxK6HpOzmyMs/+QWP//X3CFdGwmATqYkKnQRijResNqAx21zU4dXcdWfcVJgJ5gxB1aZ/VcFi46rY6GkfE6QBuhjNBb8MdPRodqru0u/M4f60UCLXleZSGSRZNCIffxRzQBLoKnEh9Vz58S/58V99m/DyEZEI0hGT0KdITMFi8wpks9rYCCmdpn+dcWtgJpgzhaKjtNvTqmZvALU2j6k1tK6yFDT7i5ZTdlmvk4VTiGITrZ1PAXn2Ej/60jfZf+LXLA6SaSUhEJKyGJWQy/QGW5YZtxRmgjlTOIFcMMPuuBqsd6fVQBqNZavLvXga/y3+e+YJPM2rJKrsZGHnSuLHX/4mV370FOcPYDHAUqLNx1Snqp96sbYtM24dzARzBtDGcynbrciKaweSrbmkTadRRo8bb6s2UcjHllCaSt7rZHYcG/ncJWF5JfGjv/wmv/72Y/SXBvoUCBLocqBLShJlCBwvb8Yti5lgzhxymW3I3edtmYYIYPpKCN5kUnITGrPaWCijsC2uC5h9p/RGJdQMtjmwSIHzQyT94kWe/Nr3CM8fcI4FKSdGhDwmIoEUYAhKmvWU2wYzwZwpXN1EWn3YxOO3aDbbSGiMvm0XtruoBMQmS/NjSTMEodNAd5i5kBZc+snTfOv/92dceMm2QxaCdIRgE9WrQPRwEVRNaPsy49bBTDBnCD6mGUxnOWbQkDGx7HqOVisUiD7ZmmoGzXVu6gJXXEC0Wk1STtBFY54Me2EBLx/wvb/4GsOvX2b3SJCjRE7eHEuJQbNrPNCVJtuM2wIzwdzG2LS9xCwoQvIZAqx548GbssLBiA6ZbrFEg0Wq63JmqcpSofPYt0ggBxhj5ihmjjpltFlECF1n2Y2ZECLplQN+/F+/Rv7RLzl3lElp9DmpTWsRETrM94VgQwPAtKKTlhm3DmaCOUNoWkC1T8iCYhrBvPziS96bE+ocSSJCTEqXIaQyMb31LYkfF49O13U9KWdQYakW9vKnf/09fv69v2dnhEWCjmC+NjFe1bN4xu2BmWDOELL37ohrCHicXQH6UbnyzPPklw/ojjIdgRg701ay+chYa6j8QshCN0KfbEK1nDKLrmcxwLlD5ejHv+KXf/13LK6MsBotXINPbi/ZJqhXj9U74/bETDC3MVoNQURIwZpIouZ2qz4hmSAsktBdWfHLH/6Yc0nYDZ35xgjkRcfYBXIUUpkGwN32gzvnJRGyQjcGLqwi6WfP84P/9hXCCwfsjgEZzOUfgTHY6Oiq/fg4pxm3H+Yne4ZgswcYwUjtjrGumSABWSlP/eBHXPnFM+yMQkiWYuwCYxc5kkQS87IVt5+kPnDYwVG0KU8W+yPLZ/f58X/7OsMTz7E8yHA0suh7NwpPTjZzE+n2x0wwZwitDaauuLyrKmGVCC8f8tNvfI/065e4I3fspUBeGdNY6ErFJo41jSUjIIFeAxeGyFuuwK++/nfs/+RXnD9U9gahl8hRTmQxE22XrUk14/ZHvHjx4r/f3Dnj9sQYpsnOCs0Uewqi9CKkYeDg6JCjceCuu+9id7EkR0FzsrAsPk5JQgQVYlb6DOdzz4VXRn7yF3/NT//6+4QrK/pkTaiOQCRauAXjJrJrMDNub8gDDzyw4Q0x43ZD6apWArEJyq8u6ClAnxOoolG4pEccXVxy7j338+inPsZb7r+bvLfgcq8MHpAlJGURojnGHQzoi/s89ld/wws/eILw/BX2xkDUaM2yMg2Ko4xXmh1ebn/MBHMGMA0DCNb7o5MWkfy3yyO9WndzCvCKHnG41xPuOs+9j9zP/Y88xO69d8HOAqIgSQlj5ui5l/jlj3/G04/9jNWzL9MfjOzkSK8RTTaOKQuklInRAzzMBHNmMBPMGUAhmOAEI26PKdpLFgiaCauRc7FDsnJEJu127IfEwVJZnN9FFx3LO88Tl0vS0Yrx0j5yZYXur9DDFcskxBFisMBRKWcIEYmBlPIUzmEmmDODmWDOACaCsXAKWC816hqMDVo0T91uyEjOxEXPgY6kRWCVV6bZoOiiIwUbVhCHTPDJXFElIjbGyINRqbrHbhBSygS33wR1J7+ZX257zARzBtAOFygyXfa4SwxdNqoIqqDKKo1oJ2gMRBRNiaQ2qlqipe08Ql7y0dNZbPxSyDZwUVGS2v5WWTHPm2NDoWbchpi7qc8QilE3O6mA2WOiQkgwrAbGIBwJpD4SlgsAhqSkENG+J8SeQIdoYMygycJh9qEnakSzjaYecyI3cWfmHqOziZlgzhBKJJhCLoJtiEKIkbhccqAjq4WQlh0HaWRUJcSOJIGEkDLomNERkMAYA2MXSGokEm0egCkSXrAJ6efhAGcTcxPpDKFtKr1Z2NRM1ppjs9Zy5jFrMGcYb5QA3uj5M25/zARzhtCO/Snk0P5e69Ket4nNdDPONmaCmfGayeC1pp9xdjETzIwZM04NM8HMmDHj1DATzIwZM04NM8HMmDHj1DATzIwZM04NM8HMmDHj1DATzIwZM04NM8HMmDHj1DATzIwZM04NM8HMmDHj1DATzIwZM04NM8HMmDHj1DATzIwZM04NM8HMmDHj1DATzIwZM04NM8HMmDHj1DATzIwZM04NM8HMmDHj1DATzIwZM04NM8HMmDHj1DATzIwZM04NM8HMmDHj1DATzIwZM04NM8HMmDHj1DATzIwZM04N/39VUIhkWoABbQAAAABJRU5ErkJggg==;" vertex="1" parent="1">
          <mxGeometry x="240" y="50" width="120" height="125.57" as="geometry" />
        </mxCell>
        <mxCell id="ACYndl2Ck1AMMyre2MPW-16" value="" style="shape=image;verticalLabelPosition=bottom;labelBackgroundColor=default;verticalAlign=top;aspect=fixed;imageAspect=0;image=data:image/png,iVBORw0KGgoAAAANSUhEUgAAARgAAAElCAYAAAA/av3/AAAAAXNSR0IArs4c6QAAAARnQU1BAACxjwv8YQUAAAAJcEhZcwAADsMAAA7DAcdvqGQAAHm+SURBVHhe7f1ZtyXHdecJ/raZ+zn3xo0IAAQBkARIAiBBkBRFcRApDiIlUVJOyqys7MrOXv1Q3yXf+zN0r1VPvaofurMqKysnTSTFSZQ4ipREkCBIECQxDxFxh+NutvthbzO3c+65gcBwY7r+j/B7fDA3Mx/237dt27ZNHnjgAWXGjBkzTgFhc8eMGTNmvFmYCWbGjBmnhplgZsyYcWqYCWbGjBmnhplgZsyYcWqYCWbGjBmnhplgZsyYcWqYCWbGjBmnhplgZsyYcWqYCWbGjBmnhplgZsyYcWqYCWbGjBmnhplgZsyYcWqYCWbGjBmnhplgZsyYcWqYCWbGjBmnhplgZsyYcWqYCWbGjBmnhplgZsyYcWqYCWbGjBmnhplgZsyYcWqYCeYGQQEVW7ZB1BYAVSWjaBBGzagEhAAqZIQkgYwgCKugCEBWEkoWUJSkSsyZiKI5WfmqiELIiqiAnYkCGSX7P2nqs7nMmHE1zARzg9AK7SbafSVNyEYEUYGU0TFBVlSNKAA0Q0yKjJkgYuSlEFXonHASgoZAFiUr5GyL0dI2tlNjnBkzXgdmgrkOUNVjC649VJLJWpeqsWDrgmsZY6bXQEQJdhJBMlEUSSMhjXTJykwoOMkUTQUEEQEJjGNGEWKMBA1rmtQm+RVNa9syY8bVMBPMDcJJ+gJMB0ozKgukYKSRI2RViJHQd6CQVyO9RIIEEMjRiSUlUhpJosSdBYuuJ60SjJlF7Oljh6rlnwXyZj0cOqswM14nZJ7Z8fRRmjAtRCeCKUdbjcAVDiOZokWoEruIjJlhHOlCRLL6V0LQAFkyGTXNBEFVGcYRgEiArPRdDwhjSmSseaR9IChEzYSquShZFNH175DIidQ4Y8YaZoK5DthKMDhzbJBIe7zsJxhRIEJOiSh2VDJ0EtAgrCRzIBldgCw6ogS6DKiSNJPGBAmWGugGs9UoSugXHI4DdB3xBILhKgQzU82Mq2EmmOuAbQRT0GoquZHW4LZVIyJFRIghkFNmzAMiYhpHjOzngWFvQbjrPHL/Rc7f+xYuXrzIudAzrlZceullXnz2OQ6ffoX08hXOHcHuqNYmipFBQCUSFLpsBCNghmDRE1rSgsh2I/WMGQUzwZwiCkEUggkIihlcC6FUg2k5RxUJgpIJWYgaQJUggZQGFKVbLEjDgHSRgzCyumPJ3b/xHh799EfhgbtYXDgHMcA40il0YyYfrHj6J0/xwy9+nfHJZ1lcGekGhZTp+540CAEhAqIyNcuqqjVdE67BzNrLjFfDTDDXARPBgDa2l+QCnN2+EoLZSBRFRAkqZv9QUxWCwJAGQtczpJHVAnYfvId3fOrDvPvzH2U4v+BgR6ALDDkhmokq9DkTs7IcIvGZS/z6Gz/gB3/xNVbPvsI5jSxVCLmfNC0JG/SRJ4qRiWBmzHg1xIsXL/77zZ0zTgkNlatMMlxsLwFBgKjQZQgqqIh1N6s5vcUYGfPIailw3wU+9e/+hPs+9UFeOC9cOicMIbGSkdxBith2SAy9cHkR6c/tcPc9b+XcuXM8+8yzpMMVywR5NNuKxuDOeULAm0Brjjkzwcy4dswEcz1RSEWwrt9WUBWiBHQcWYRIl0sDC/OgUwVNaFDGnUC6e49H/smnuPtjj7B/PnLYK7mDjkxUJeRMUCVg9hsV4VJvvUyLvueee++FIDzzi18R9lf0BLIIo2glPMHsPDPBzHi92Ga9m3Fd4HYO3wqAZGXhXc855dqcigidQOwjQ0gc7kXe9ZkP845P/yaX7+g4WChxEYiagQxiTayynoOSBCIZ7YUrXebKXuC+j76fOx95F+n8khSFFExLMtuLomRUjAilLLPlZcZrwEww1xHFaFqNu75fipKQszWTFAjW/ZyAJMoQlSthYHWh5+J738F7Pv0RuPscR11GJaPDii7buCGcuLLYWCUIBGB3zMScyR3sL2Dxznt49+98mP2lcKSJHATC1DVkdW20lxkzXiNmgrnOKOK6KbamHYCmbD1JMaAijGRSJwyLwKUlnHvPO/jgv/w9ePtFrsTEQCIEa3JZz5N1cYsKokJQIWahS4HFmCEncoSjHl6JibseeoDlW+8kd8E8ecsQhkpSGxWdMeM1YCaY64ky9qhaV8qab4Vgo5jFhgUMOaNdx9h1XAoJ3n4n7/tnn2X58NtY7UVWOkJUcgCNNkTACGEyFkcnGjMqC30IkBMjI6teGfY67nngHbDboWSiE1SprEomi42tLiOkZsy4VswEcx1R6UQLBbhNw62qOWeI1jQaRRkiDFE4kES6Y5eHf+/j7L3/AWQnshoGokAQ4SitGIMyaJoIRoVgJpipWRYDJDcYi8IikvrAcm8XghHLQqWSTFAl+MDM9t+MGdeKmWBuFLQIsWkaotY8AWMhDUJeBFaMsNPx/s98jPd99uOM57rKVBIiSTOx70kS0Lhhgm3sPHiTZ8xmxAUYx4HQRaSLSDJfmahCTBCzNa3i3Eaa8QYwE8wNgvhwAPElADFEsiqjZgZJEGFcwMWH3sZH/8nnCBd2GAMMwXxcclBC6BiGAVFXVZxIWiNyQVInLqydlrMNdbzzrXeuNX7Kb9W4mjxmzHgtmAnmBqEIbSEXUTPUZsFtKsKRjOy992188H/6fS7f3XEpjgydchgSYwnboEonHb0KfVFNGgNtdeJTc+RDIuIR8Tp3pkuaSQg5CmOAFMyWk0XIYt3p4Ibo2QdmxmvATDA3CJvaRUYZ1Qy2OcAYMv3de3z8X/4eOw/fwyvdyBiteZMjEEzYA0KHEDUSNRoBlO7mYF7A1YdFhCBCIHizTH10lFq8GQ+9aTYb8VAOM2a8fswEcwPRNklEhNBFiJHcR9Lde7zvjz/N3nvfwWHMZB/iHDHDa2gi4rVot0tTaTo2tZuk2H7qwdIckjJIoBqi50bSjNeLmWCuE6qoVlJQ85b1kAgDmTGPpKAc7Aj3/vYHuO9TH+LS+chRb1pN9uDd5uMC4pF0cSIpPUjHoZXOihm4EE/pNneW8/1qNh0LRTXrMTNeN2aCuZ5ofGBczMmijDEbgXTClUVm75H7efQLn2J1vmfYjegyejhLQcUc4tTHF61pKL6/3TYS8qaQdVWhHoKzdBAVXvKjZiCu2zNmvH7MBHOdoG50Tb5oFWz3LgnK0VJYPHgPv/Wvv4C87Q7STmRIA2NKINaMipsZz5hxE2MmmOsEdbXFemecYNSaIoJyIAOruxZ87N/8Mf2D93C4E0gRYggsukgaR3Pjn/1SZtxCmAnmFKFlipIWzg+q2ZouYj1Gwx07PPj5j7H33rcz7kYSiYDSpWxOcLFDJMyhEmbcUpgJ5jpB1BzbLEqdEkMgCezHzJW9yHv/4JO8748+xdFeYOwSgYzm5D4ypunYcMbZKjLj1sFMMNcRHQFJGUlKJ4FVyFzZFfqH7+Ndn/4wwx0LDntlwOK3pKCMoRn9sxHdf8aMmx3zG3uaaLp8bdBgZhEDUWDQkWEB5x96G7/77/6EcN9FjkKyeY1CJouiruVUu00Tbe6NQP1P6c2aeouq6dnxJhQ240xjJphrwOsVs6J5RPcpCaKMeSBH5WCRyW/b4/1/9DvEB+/m8JyQxSanDz5drGUQSGJEo2I2m9frri/F2OzrxSenklbx0isWacRfkddX3owZM8FcA16/1UNQFVIIjAKHZHRnwWEH4527vOfzn+CtH3oPlxhIEcYoJNTGDeVGu3D5DgrxpPldZ8y4CTETzGlCgTKmRwIaAvs6cGVHuPej7+OBT32I1cUlcm5p8VyCotHmFghOKO1SvW7fJLx+4pwx49owE8w1oMZyc+lWH8Vc4reU7uicLdxl7Z52t35r6SjdInIYlb33PcAH/vAzcMcuqy4zkt1N30IpqBt5cY3FpjAxTSa9QYYpdaTaX0pd/bqME5sBkhsZzJjxGjATzOuFW0Y1T22WYhspgmqu/BkRZZTEy7Ji9+F7+MS/+UO6d9xBWkYLqi1tMMowhb4Ue0C1uVTHG70+qE9BSyEW1IY0XpVFrnZsxoyrYyaYa4BzyTEIEMRuYdFgWiSPZxsDrGLm8K07PPzHn2LnXW/loE+sYiZrtsntgxARJCvq2ahNPGLjlFzO3zxxF0TCpHltHp4x403ATDDXiE0BLIKeVS3wEzZxms0j7e0bgdh3HI4Dw07gfb//Ce75zYdJe5Gxg9SJxWHB8pCsBCxmiwWgMnJJYkTDlvAMV0XTXKtNNvG4DAWlV6rZNxVxErXOmHFtmAnmGiCoedY2rv8W7S2AWDcyIvQeJU5SgpyIqhyQeOGujvs+/WHe+6nfor97j4MwMmoywgj2CKQ16maIalHnIKD++5q7jDeCTUkonCGWbwaRwGLZk4P1eGkAxLrKSzgJi101RYeZMeNaMRPMa8HGx7xoEyFY2IQjHdEukEQZRc0TdylcePjtfOiPP0u85w4OSAyayUFIwV3/G6ktqzVuzEaIh/AGFAr14QamYLnWJMKi72fmmHEqmAnmGlCFvt3ngl72Zawps0oDoQtIb/NF9/ffxUf/1R8g77yLy71yKJkcA7qIjCV0gzeJpCGWllTqvjdALsAUbKpu2xLjHARixulgJphrwYZwTw2Vyf5CEIg+cZpmViS4Z49H//hTnH/0AS51mVW02LdjDAwebLtoFJsKxNTNPe3bTPNaUUc1qYIIIQTf0/QkzWaXGW8iZoJ5jZDiAtPoAZqdDHwC+VXMhLfu8c7PfJi7f+thjs4HVh6wG/GI/d5FHBEkmffumobiaduxR29U7te60b15ZD1IbzTnGTO2YyaY14BCAMUxTXwqkE4CAhzlgaMIh+d7zv/Gg7z3C59kvGvJpXRIt4iImEZiU7pCLM2fbPvXSWaKhltCWJZAVW8Ua3k0DoMzZrzZmAnmjUCtW7l2B8fAsAicf9d9PPL5T5Dv3OFQMnHRk9xHRoCggY5osWFK1/SG9lLnNArrDnZvZDR16QGzbnTz6rVerDeQ6YwZV8FMMNeAoELQYI5pEghdj4jQByHkgTGtSD2sukT3wJ188N/+IbuPvoP9zscWebCpQhJdznRJ6XKg00jMAVFbSrd0IZXs/jBFu3kjvUhoN63XuMCCesWmiWdlWrSEDJ/NMzNeO2aCuQZYlzIMKAQhkdEAK0ZWkqEP1kV9YckHP/dJzr/7bVxaZHS3s27orPQh1ubPFJPXttsm0LZm0BvtPSpYG2PU6i2ytjVjxpuGmWCuAXUkswhZzSS6IrHq4WgJq14Z9jre/4ef5h2//UEOdwKrDg7TiAbvIsq5ah/akEglGd+/STKbov8mcU2DmVhmnB5mgrkWqPf4hGCxcceRIObiv+oy+8vMvR9+mAc//3GGu3fhXEcXAuo9NOYB3GRHM/eQk0lLLtX+st5YKS2WU4F4vShk54Zs2577mWa8PswEcw1IwRdVNGV2QkTGkaCZ3MOFh97Gh/7Z73J414L9JRzmkZwTfYxoVlLOSAxT08i1BvXmUllwomkhntAI5pTYhUaRWSujVa9mipnx2nGmCKYd+Fd6VE46trYACWEkkzUx5kRYdqwkE956nk//X/8F8eH7ONgVBtI0g+KY6GJE3O/FtBXThtQnnG+1FTaaTLzJTaRt1z1jxmniTBHM60XMQsxKHhM7e+dYhczlvKK75wLv//1Pke6/g5d2lSPJdCEQgKhC33XklAldx0oTSWxwoWpGxAYWlqVgm46ybd8bwdzgmXG9cCYIpny5j6JpDGXUMmo9PDH5fM2dcJgGVJUQAgh0EshBgMxu33NweIUUlf07lrzlDz/BHb/3Ea7c0aNB2FHzyk0CQ4SVZjPyZmWhgT5DyB7OQSwYeFmEXJdAJooFCVexaWURS1Oc+18rVBXRTAjW3e4NNLQzI3WJ2xd9FLiImI+PN9vUtbA5csyM14IzQTAFpRdns5u42D9kzCwWC1h0jJphzOhYQi8IaRjIfWR/L3LXBx/iPZ/6CN35JanMAuA45vbfQP3P5vG1sAqnZWsRsSaSG62lbDvMID3bW2a8eThTBNOVSHEbvTRJLHCUKESEISU0Z7oQjRDE5ogOQRl2AzvveTsf+Ke/S7zvDmsWLXo0l4GPJpwtRUhDZpxiT9C1oMTkLUQ222RmnCbOFMFE743JjbG0ko34Fz5l4mr0phGMoqCZxMjYQ75jyUf+xe9z7r1v53IcGIJ6tLlszYxKHiVgUxmz1OI6M0yrpah1Ok/d57o2XODqytNVD86YcQy3NcFs9poUTUKcWLJ4KEogIGTNhKzsaiQkn8K1D3QxsGLkYC/ywT/8DBcffYD9c8LRAlLEbBeuFSjUSHDJm2LV5oNL8HWW07WiRXx843Rvuq6rdSrXsA1XJ58ZM47jtiaYbRC3f6j7txT7S0hKR6AjEKM1jbKAdoFDSeyf73joDz7BA5/5MPvnhFW0UP+ZTFALt6CqqGRUdM23pZSLE9uNQrG7iJMvQAiBvmvGKM16yow3EWeKYNSFJ/hKmfcZ12B2NBCxZtGoGVFlGEde6RJ3fughHvnjz3B01w5HUelCoE+m8QhmuyEXXxdfqmPdzSG02bvHJVhtRIxguq5z4qlqzPqJM2a8TtzWBLPZI5MwzQKgS9AnI5uibUjKSLI2VIgQojCEzB3vf4gP/8s/5PI9O7y4WCExEccjNGRCVJKMDJ3WoNpZhDEEuix0CqPAyu90Ox7ptLHZRMweuByFgI/eFpkaUeLmmtnwO+NNwm1NMJuQNvatX3zpUk4BhkXkQBJJExKtadTde5EP/A9/AA/fw8s7ytBblLmQBW8lQfFOqT42fqzI6Q1SYTa7vtteoyCh8spMJzNOC2eKYIqxdXMCjuBuZpd1xVGnJFFWkkhv2eGhP/htdh99O5fc7iLBIkBJJaeGORpy6ZxganNpy3KjYIZcq8HcTT3jNHGmCKYEdCoqhZa5h9Tc+0VgsbNk6JWDix33f/bDvPvzH4VzHYHEIkE/KtGbVcVInCtfCaJC1Gk+6U3caHIJPg/TeiVuZI1m3M64rQlm0wYhFJf3aZBhORpU6Qms0opLC2X30Qd48PMfY3XXgiGOCJk+ZbpsEd7GIIzVaa5EffMuaDWimSLENbA+4hti52jtUa0h9wZUZcYZwW1NMJso2kPROoqTneKhGCSz2gksHnk77/snn0buu8B+nzkKI0lSlcksNmpIZcpEMdtMBtu/nV5MdzrN4QAzZtxEOFsE05BKJRlM6jUIK8nkO3f56J/8AXe+752slsLYQ8ojAbUpRlSrdmIGYycLsQnstTrbWd6l9VRbUc3vjBm3O25JgilNn+0GyqKnqPftTIsGRdz1P2QbSU3OxAyrDq7cvctDv/tx7nzo7RydCwy9kocVXexIqgwkRsnkOv1IcEOvIt7sMSe7TJbt8w1t12uuD8qdgKmHqyW+kyAqZr/KJzT7Zsw4AbcUwRQv3KuhjX9vPi+2LihZhZQUJJCjQATpbLK0oc889NmP8L4vfBIu7DKgjKr0Xc84JiQEJEYft+O6SWvEaVFsM9tkcdu+64U3oeyZYGa8Ftz0BCNqE5OFPGkJLVptRlURN66U6Coq1lMUNDCkTN8vQWA1HCECR/mIV/oV5x66j0f++JNcuqvncpfQznqcNAshRCCQszm+mA3F7KSbfia3M27365vx5uOmJ5iCTdX+JKw3iqbzFIixZ1wNaMrs9guCJvJOZOfRt/Pb//OfMN59joOQGDr72sfiMSPByKs4qkmjTm3I3Cbh3C7kc6vXf8aNwc1PME1LRCndwiejGm6bFkHplu68edOFAJq5PByS79njff/8s/CeeznqlS4K5uSqRJ/SlcY5T3j9MVRuNSFt7Vyv95pnnG3c9ARTiCV7ZP/xVWqcxHpyRMWmZlXbTiIkHen7SM6JI8mE+9/C/b/7Ue780Hu53GVy55mLksW6rYXsVBU2jBi6EVlmxowZm3gVcb1xKKKsrn2kjdHPJyG7D4pN92oLiPmuSCbpaL08Fxa89aOP8uDnPs6w2xNCYAjKGMqgSCUFBcmbrSDHTCwzZrwablqCWRff9dmRxzaOC4IQUCcR8RCY6k61QbF5oBVyWpFiZnU+sPvI23joj36bo7t3WPXZpoNFGUMJFGW9UEmEoErUTNBcjcylvPVovDc5dLqLiA2WUswxsE61IthdVUEk3DY2pBk3BjctwbSwV7s649u+OjNAcWwzgQ96PDSmeLS6rgtc6TPcfxe/9S9+n513vIVxCfRAF4xUtJzVUtw2bcVY7NYSO6+tuH3Fryurh/30bftrmt+tdoUzbi7cEgSDE0pZugx9NiIxrcO1Fk/XJYtQl0XJIaMkNMBhpxzcseD9/+JzLN9zHwedIjGQcianRACihDV/G/VBjZuTpMmtdPO2oBBvCMFCN5QZBZgNujPePNz0MlI1lmaJCjFDyE4ATgJFMGJWC2MZAM3kPJKjcmVPeOQLn+DO33qYg71I7iCIkMahEkvIFv6yNekWfaaInTSEt1W5uQUgIiT36zm3d+7YsVv2wmbcVLhpCaZ9vVvtpQSIOklx15xJOZHSiKaERMjLwEGfuefj7+V9v/8J9I4l+/mIEAJ5HOh8UvsSL6aW0WgxxeYzNR9uLRTyLb48ZlexCxIxTabVXMyncSaZGW8MNy3BsMULv2oOZUS0175oNBGLN5sXke7cEo1wFJUXuoHdR+/nN/7k8xzd0XMgI4tzO4w6klKil3iMxCww1cR0a5SypW63Atyk64bq41cwG3JnvNm4eQmmQWkaFaj3FCUBwQI8xSbA09jBlTSQAhwuYPHgvfzmv/4Ci3e+lctxZJDMYR4YO+h3Fug4WjknaEitNkNpLq0Fmro1UEZaKMf5ZSaXGaeBm5ZgZOtkZRZzZQyZHBSKv0u2ruSMMmoik0m98rIeom/d4zf/2e9y5/se4JIO9Ls7EAOj2iRpQxrRLlTfF8WmVUWtV2oMU5S6otXcqqIozRS3ta9MAHEP5ZLOVUU5zkMzNlDeh61L87Fq35nt+uM6Xu87tq2sGzmn+E1LMDR2AG2nhhep9pDpAXpXdc50ndCFwCCZeM9FHvzsR7jwwXdxaRfComccR3RMLPsFOSlH4wiL3uc6nJpeyX1ciobUajc36Fm9YZTrMOKoDSZ7IesKNktlfVNf76t+NlDu4baF5t6uvTInNFFblA9ACfrx6mcYjqVrhtncCNy0BKPg7vo+FqkEifLjpcliTnU2Zqj3LupxOEJ3Ivd/+BEe/NSHCffdyZWFms0mCDEE8jASFBZ9z+iT24MNRVgFI5mgNrVJrVORtVtU5gTzE6I6KDYvwI16A28BFA2gLO07eTVkUdOMaWIX+Rzokm29jPcqSy1HWnKZwqxupj+2lLp5HVqb4o3ATUkw9aZWFl9//1s1UEUZNKGS6bvAShKr3Y7dh97Og5/7OOFtd3KA9SgNOVmPCUJEiCL+0PyhlIh0rU9N9vpsGHZf5d26qVHIuWoujrnX6LWjJZvNZS32s/j9bW/xpm3PX6r2/Rc1d4zoDqSvRhRVVlqSaZ759cYNJZiWeVsI62EPijSLCDlnNCtIaB5IJkflQBIvLjPj/XfwoX/zBbpH3sblc4LuBNAEIXjsXb/5Cni3bQrWzAqNwViAHKz89kVp63krYO3+CkiwWH8pZ5vlcYNkVCGlVJe88ZxOem6bx96MZWueKdfFohJOy+a514pyTs7Z3rFmu70/xRhemu8pTem3QYvAYzM6qOB5KkGE4PmVcsHeSfGPYOexkCyqkdh1XgXH7tUmqV1n3FCCuSr8yRQVD1VSGonBbr45iZmTXN93jFHY7zPcvccHv/Bp9h5+BwcLOEoD4zgSYqzsr0xkIf5lIAiERrtRbPhBMM3mlh2T07xcyb+LKSeSZqSLqMCopeFpEJ9StiztFW8K0ubLfMvepw2U6xQf31btfR7Co9jjQnMMP1aW4AJW7sRqHOwj1kUIYj5bKaHZpvQNIZjWk7P5cJVbXe5vEPvgXQW1PP9A0rzrNwI3lGCu+jJ6mxOd2LsPHV3ozPTaRcaU6EIkp8QqJI52A+/5zMd458c+yLAbyWQWEgijTUgfsLvfaiPSGj+1eRvKl2pjuaWgxZTrCALRe8z8DTSVei2VrZf7v3Hs1VC+xPVrfBNhkwy3LdtQCKWSigtvUPMEb9/ftbzKO+XZxq6DICSUpKYZhRCIMRJitPPdxpMx4k9qg29TFI7IDJV1tqMSnG9rsV1uEbHrgRtKMFeH1EUVM1AijEcDEMiqED2eLgNjD/d++L08/PsfZ3XXkisxkd2gC+rjbfAZASy/8g+RtS9NZfypdVZx9cd7cyO7404XIjFEa2pmNe3OKVRDCVpuAczrv7JdWlTl8Wyg1Xxwe9ZJabeiPoRpdcqiPDsfXe/SK63agNZwptNnYVqmY00h2xZXTcq/gqrR+LZP3efvj3XtT8e9TPxD6cHhpXw0QyAGCxyfhxHJSifRlhiJMUIMaBBzq3At2z6VtqyP6rdSW0IsWvuZIpj2a7Ht66FY86SOn1bQbNOFLBZLC9oNhEXkQAYOd5Q7HnkHj/7Rp+C+8+z3mdwJGmAckwWeSuU1sSEB9XFcg/q4+e7dqhACecjEZM1AUehECDEgouSgrGJm6JQxZl8SWRIJC2lhXkbZ7DKlW79Zkua6jKIWJEwgBanOkSWcRvt1LYulLa4Clt+IMqJevsXpScGm+B1CZiWZwZcknk4yIxtLUEsXlDHY9toSm0WUwfMfPe+x5Om/icyI3Zvym6RZmnummhnGASUjwXqYBkZGtYG4fW8xiUIGhhFWI4zJmusEok9JHNQJRm0K4yIjZS6uQiRl+uLgiqR1Wp2spZ0W5IEHHriuJbYXKM1k7O0+AHWpbzXCnBKalbCIHIZEiMJRl9AH7uCz//O/Zu+99/PCMjN2AsuOtFrZyOpOOBwH+q6zPK2gKePbFU4CBR0LxmGFBAhRGMfEW9hFfv0S//X/8f8kPXeJZe5sihJX8VXUu/Cn+2UqeEAEC/DV3MrNDwXqjoti60VpAB8LxTrBK/5spLTSNt8Pa+mVtO0VavP+UOrS1qeMvyrbzVWZXuLVLMfVSrDYOJ6mJPDtUr/Jkc3r7nm1b5mqmqHX3+VyP3JKSIJehWXo6DXYB1GtKaUqdF1nWnurjbQfSkcWm4anhCwpA4FHsQgEbNyj08Z1JZjjL8txgqE87PrWqWkvbmyMMXCUB446yL2yutjxnn/1OR78wm9zsFAOdiOrNBK7DkmJXoUYhKM0enPJH8h1vMk3Eu397egZ02D3XTIg7OUOnrvM1/+X/w1e2Wcndz5nt8FCXpgY29ze5YX2Bot9SNdQXmBxYpItL3VpaoBrMu17IEZs5dzmTyNMnj5YUKyyp4xPo5ztJwjNx6otu61Ls7+WV+wXNc1EgsLUy1nuc3svpvLt3KyZEKOd47NkjMPI6so+4yv7HD7zMoujRFxl4pARCRCsGUSC3jsfhqAWXK10XRctJYBKXjNAZyeZLN6Z4dd7vXDTEEzO2drtjsD0BSsPX7O5948dDD2sLi545A8/wUP/9Hd45Y5IWgb2GevXI6rQVYOK3fXreXNvCjRaTNaAkuliqE5cS410l0ce+7NvsDzKLHOsHsygpGAGcvBZLRGLdFdSuIBVUim/eA9cMYJ6z1R5lkX4Jpm38zRYvpPxtBH61qDqZVre5mJgxUz1aOsk4i4HTNpIqZcU73A/p9StzaPkY+qTlUlw20vtMLD9bb5tXXJN05JdoCPQrRKrp1/kxSd+xVM/epznn3iK8dIBfRJiFvocWI4QCRx0Jgdg73cY7VlqjGQZq2bzamiv7bRwXQmGDZKRhmDUuzhDCKSUzPjYmWVdRGxfDKyGFWk3crQr7H34QT7zf/8T0j3nuNQnchdIJFRMgIJ7rgafkVDFugPPFBqCGdV6koIbRpMqfY5w5YjHv/Id+sPMIkcTWAHFAnbBRMxmNCwksy7Q9dcFaY1gggufJTIJaJ5FMQqXc4t/SKjksS7sFNcBF2ptBLqSQyGRUq+mi7fkZ/UVkn/b2v31TQ0+ZY0TlZHq5NZgl9LUodbFrzn4MR9Lh4jdW4AoiEREhWUWwtHAThIOn3yWx7/+XZ7+3o9IL+xzXhf0+wMdwmGHhzMN6Gj+NCKdfRDEBu5W/irNKD1Z0zxNXHeCoSEZ2dJEWq1WLBaLSjRjLrMqBmKIjCQuLxPLh+7jN/5vf8yF97+Twy4xRoubq64qjuWFUIhZiGo9Ttfjpt5UWNNgXMg0ETHDeUeH7h/x4298l7CfWOTgPRXWa1QCnxcqcXGtxFI0GNZIwASxCH+9504yntic/Bzl5S8CWs6r58okyLZp9WzLzkUDagS8CnxDWuVY8PKlajBFcH2/l6vBYxVbxrbuZYeGxKZrmsot+wu5aUO0hYST+7+Ia907IXL+SFm8fMTw5HP89G9/yGNf/y57VzJ7KViZKuQxkyWABIJEbxKN5FYzdDeMoNZUanE9ZCFevHjx32/uPG2svTgNggc9ijGSsjkaxRjdIUw5TCt0p0PvO88n/qd/xoUPvItL3cjQKRKFPtkDtx4o/3oWLcZf4iIY9eGfJUhAfL6nqEa+fYiEMfPCr55FhkxEIAQXckUC3iVc+MHtMALBv8yItWn9Xa/b2ixEey7muOhtYLffaBQkehdsEDTaQvTzgqUh2q9GIfuvxvVzJHodogm75QsShdSF6VzvZazbQdAYpvJqmX6+OCFFu75CYu01l3Up11f4NICIIjZBKMGbVtFdL0Sg8w+ooOYISaI7t2T33ru4cP993PW2t3Ll8mUO9vfJq4HocpKDNf2ye/sad3rvq3Ncscm0Gsw2+TsN3BCCadFeaLXDiK0vQkfKypATKWYOdpTxLQve+YWPc88nP8jR+cjYwSjuP5CMVKZuO5eTWljzc51u8M2E5MQeMnQu3RGBVeKFp59Fh2RfVf9KVz8KMXYWCvGUpWgL03OU8oUvX3Bf7Ks/bZsgFOHzCopLg2VUBdiaHo2WU+1pjf7v+0LJp/q8TCSoEbMnhel3qp/NslCto6JOhFMZ5RrEyy7XDk7EpS7l2kp+JQ1YKNeqAMlUT7AubJQQhBiFFYmDkMnnl9x131u57777+PWzv2b/ymWimw2OciL2PSQ3MZSL9ZtaLiFU7W77x/20EDZ3XG9sNpFsH9B1rIJ5L7LsGPvI0W7H2z/+G7znMx9j2Os40NGaTtG8ef01azLa3HG2UQKXZ+9dMBuLjSBX8R4jF+SymLpdJaZhCf9Mm7qwrpbUb3MkaCBqQDRQ/7XbGhE1dzVR2w5ETykEDQTMRmHrJpZ+BsGbKZZ2EqypvtOPrdrGpiYr3mypu5w8LaVgqpFdl5XYrIt5q4hEtKgpzb0o6df2e49cgfrYJBEhoxyJMnaBsQ+sejg4F9l95B184t/+cy6+7528slDGnUjXdzCO9IBsuCVYxjdWDG44wRS0vUh2Q8RitXQdEgJDyLzl/Q/yoX/+e+S79zjqBe1tuEAaBkIIjD7PD+Xjsf5uzXBI8zJmnEhKc6Wst0tzpoI3tVzw1oQpNEJoxFEELFYyqa5jlVjsaCS4oFYSciG2VE5aTkxOKZ7OUgXx/W4Ateaca141J/Fy/ZyyDyPLiUCcxmqbZyKUQjaIkUolF69TSy7l+EQqZfFmfL21gvpgzYDYtYj1nI5khmXghcVI/9638aH/4Qvsve9+DhfGp4ukhDET2o/1Zk/SDRKEsLnjNKAb4z3apSCEQPZBX9Hnju4CRJT9owPufvc7+MS/+H3yW3dZxczReGj2ypzpQ2fC4jaBSZUuwlS2y9foBt3tGwG3Q+HGvohYt2gIdBKqP4Y1QdwW4fFI7F6Wmzf1klhTYGoKWVMmICE2wn1cmyjqudWnWVzSyutgv1O9a0qRpot8yqc8U1P9y+J5+D4RL6c5q5QrpW6FnIIvnkYpTUEv36+tXksoNg8b1mLetcXNotZkrW6FXOq7qmrDBrD3tSfQYa4BOScGMlzY4ZUd2H30fj78zz5PuPs8R3mFjgNL98Y+9u77nbD6XH9P3utCMNeKMkhuHAdyGum7jiMZCffu8Yn/8Qucf/A+rgRzGl90Ec0jXRBIiYALR3mPHEU+bKO542cJfs3mOm43xF7waWTwlM4+fZMYTJqNSZklLS/y+nFb2mdQSEJpvF03nkM538jAflUs9BKFB8Sd4kW9Ho2BeY3I1v/i5FAKtdWpnM1zkUb6C5H4udZj5uXjRCITiVCuxa/TxmTZudndMNbKcZuIZ8YwmBNkDD5Xlyqh6+i6Dg3KIQOrhXJ5Cefe8w7e9cnfhLv20EW0IRz+smu52rZe0+p1xU1FMCJCjBFF6ZeRVRxJd+/wyJ98lvD+t/PKuUTq8/r4leB+BkkBGxhWXoB2zFF5jc4ygn9Rc4SVj7XRpqvVfUaxb7kr8yJVxS97tTQXJNY3WcQoRESRYIu1EsovNoZJsnf72sBKrYZVXw8eGzmAhoyKxV/WtWXSntSJpvyuaRd1Ma1D2i7ihjymnrGybffLOEAQL3ciF/Wpd4th2NbNs8XGGoGiOqJq9yRE/P6Y9YuqEU1LF6yLKudMwLyb1X2QqsFdlSEq4x1L3vnZ3yK8+61cWmTGztwObhSRnITrQjAnC/m0RxW6GEFtWPuRJlbLwIO/85u8+7Mf4dIdHYfRPBize6IWNb5+kdpPSS3UCad+qc4uzLnLh/+LknAjrn+YsY/q9FKIqQ+FdOz/JICbkOJINu2wr777gOBf+LVnEjyN52vpaTQVXy/uB54WCWjbJyy2z5pQ67YYy3uytYh4U26LvcaWSq9uQ3ECFvG6mCC3l6pu0xIxlcYuz3rdFG+alBPsstbIpRAJORPsJAtI5c1ayYqMI8sYkRhY9UK8704e/dxvI285z0qy2dobtaVwd9EQbwROlWBUPRyAs28o80YriNqXMIsZ7sTtATklUoCj3UD/Gw/w8D/9DId70SPL2UA8RYkSbJyRPVX3T/Cb6y/x9HW7cTf4ZoKgBM2gHuCIaRyLkYHdw6AJsPEuhGCk4xoKkqsnsIVhXyvgmL2riC14k6EhkyBClEB0H5Nap2M52PsRCB5uw5tL3q0Ldk3GY/UFcxO2a1WFl8qxyiOmOZU8veFj7i9VOzGfITyeLq7PtWZa04j8Qp2oTP9YJ1VrZpWm1UQGNMMVVKxLWYuWrv4xjR1jVnS00GHSwTsfeTd3ves+jhawitO7bjWb7qbdi+uPUyWYq0Hc4UvUu0c93pp2wuU+c+ED7+ID//RzpHvPM/Rio4B1MmLNuI7wey7TSpFWE761L3E5ZkmL02MVQDFyEZkeZPFZWs+zrq6ltXxKTaZyatlNGfaWlZ2l2vUqjqOcd5WPknqdDJa41M9y9m2vx7R/O0qjRkq92qRiFKuuRgb3fbH7CcM4EnaWvPsD72PViUUpnGrl5Gf5b7uW64FTJ5jCpnW73edfDv88oJo47DO87QIPf+GT7L7vfl5eZNJOb7aVqzyoGaeIKumTgFNk2/et7S+PafNxNURUEhVhKefWpC4m1WGyCq2ta0NU1bbi9ri6fzPfKsTrZdVjnn6ir81EBcevtZRX6llyKeRzDEUoWuEoZZf7VKvq5O0aTwyCakY7Ie923PPog+QLO4ylKB8gLEXWXL5uBE6VYNZfJrtBhUlHMkc+UjerGfLSAg73hAd/9yPc8egDrHaEFGGlgwXlDqbxXO+uttsB4ve/vLjly1nG47RdIZtCUewLVeCLAATzPQnFjbUImGVS04Vg44Y2890cm9Se4+2yeo59kOy4rdu2iY6Vrdq8c0zni697QS58DaHUanhZG9Ws0lrq4tsniq3WP2vv6kSA03WZfEz1bhevYD2/XLdmD3ruthi55wJvee+70D5C9jmtmkn22HZN1wmnSjBrN788IN+pUcidMEpGo3IYE/t7gYc+91He/anfJF9Y0i0CURXNTkDkq3xVZlwV227bxgMSF9LNvgh74W2/+vNQVbMNYL0+RUigbRa5QDRltzYCy9wTetoqWJ4XLpiUurmxtKQr5ZSycRK0Mj2Nr5ddEyZdxc7z+rb1rHXzOmzcx3azcklTkIjbYkqoi/YMX93+Tm9QV2tsx84dRbkSRi4vhbe89wG0N81G8GfVaC4buV03nCrBtLBLdUu5WKso+AjPIcLlhaLvfgvv+YPfpnvbHeyHkVEzC4TobKysBxSa8cZQXzr/8tsrbL7lVRTEv/7NV7cK7TG5WG/SFLNpObb+a+vlfWh2rRNS2bmZqKxZJW0p3ddefklay3BtZk1LKJpMKJlNGs5JaPM+JrjN5dR3/Sp5nQR1blDU3DD8n7ifTAzCoCNpEUl7C7jjHClM9uty51XUg4sdq+l1wXUR1/LQLTKdvwwpIYMZrA5l5I4H38bn/92/It5zBwcxkReBlUc+7dQcxIJ4sO8Zbwra174VOPWD5U63XbDmPOaR8EO0IFIucOrTn4hM2kI5Jk4cDUfZvrLh5217ullLTJopLZQLKASxRYhLIZ60JZo2iV1zQ6hV6yn3yP62dVNcu2lRycTTmzpY75u2Xuxbr3Q71N/9mkd2TT4II8rQw1sfeBvSBbtPVru15tmxul4nnCrBiGZUS+xRm6ReBwURQhS6TknLDPec5+P/8g+ID7+VF/eUw96Yt/g2hRjpCMRk+2a8Tmy8ZDUeiwu/xVPx5qvYbyqjmZvztAhPIyRSDa+T/SAU8fRybbuxLzg5FZKpZFM1JNcAiqNc9UWxPE0bcQF275caeb80q5iureShYoRU6lzHHXo9jQinerRXWq5FrIfbut1DQL1u1jQpw44mra/8lvqVczRMgbo9oVXD64/Xx+xnAdRlIFs85CGAxsDu7g7gM0KgZo9CCDkgORKbQlriOW2cKsGot2FLJHk6c2kecyIJXNGB4XzP+373Y9z5vndxtAwk725L2YNHYZHltXWsm/G60N66bS+ZyXPzJS9CaVLuL38R+rIf8G+m7Zsyq4JaBKwhn3Z/WbecmnrWcmyj1Q7a43Xf+iErZ23HhhayrYnToJRbf5p6toem9ea6moPt9Z0Ir+tamRso2o/dW7+PTtymUZo4e1XsnImnKq6pPm8STpVgqr+TP9gsIH1AIgwxs7q44N2/82Ee/f3fYX8vctApK58SQnzQmQabkTCVgVzX8ebcbijCXFT3rfB7PAm+E4ofM4K3Z9BqGfW51O3pRTZSmb7oJSxB2W+/vpRqFALz4mpVapm+w7WYUhf7mYSvpJU1e9Brx1SzsmO63lITSo3Kddmf14Xp6hq4YR0RH2LhzzJboLCc85q8bbve60kunCbBqHs9BswLUoAxjww6sgqZo93IHe9/N49+/pMcnIusFkLqBIKp7l2jPhdNaNsNm3Ht0A3NJWd/YdXeZD3mAuDqekMARgxFhd/cv76PRti1Crw9ywovrgqTFVh3TkSzTjh2bMqvktgWATq+h9qzs6HTgNe51KXNrs2n1OgYynXTkEw9Vqo4kVJZ2nNL4uO1s2BUuHcvWWG0aUrGw1VT0vF6VeLZormeJt4QwbxaZQVBshvoyXSLjlVUjnYC5x66jw/+k88S3n4nh0shR7ulwd20JRszF5WwPvRXKXPGyajPy4XRNBlj/zLzJVtefCl2i7LHJbvIdIXvaAW07vMk5elZ82T9WVbBa2wn1Z5R1isBNXmXzaY2U93bralZVPPf0GyqjJdrqJWfrn27FrBt3zqMdKZ82uVYntuyU39OfgGiygKhz3DwyqX6QS93tjUnbMvueuCaCKa0/WobsHlZtx0rKMGM8N/9NLDfZYa7d3nv5z7Oxfe9k0u7MOz1rIKPJ1EbQoAvlXlvwrmObzn481lvophmUDQT+/WeoS0vfvULgfraVgLy85FWw5mEcvPTUMotedTfpmzb3+7zOq51nduipWpreZb1RuDEyy4k2eRrkrlBfHaClbd25M1FW3dbPaG8rGYnxmZ75Gjk5eeeh2Qy4t/k5jndOFwTwWxik0hOQnbjbi5hGvsAF3d59Hc+yrt/6wOsloGDXrgsI0du/Y4ZC0qN9fcHn7uXws4ez2TGq2Mb+VcZq0LYrpvQFbTv5ySE7c51gVg/UM6ZlvUvamGD9fKPEctJ5GeZ2J+a1M8vxNUSx4ZPTiFES0AdTX3S27V5lbXOtuH71tO8FtT6Nnn7gTaZ7cpK8HjKEWE8OuKFp58lj8nOVTXv5pZ0bxCumWDWDLZe42gjxK0J5G1Cxb5eQ85kiUgSuhGGLrF/Ubn7Q+/k0c//FuNdHQdxRQyJPgo5CEkCqhG0gwQkUPX9IZIQtPG7mHF1FEEt90t9fujSjdl5r8MYFOkiKQrJu6ibTNAY/PmU8clTU4PmfSjpi+Br/bjY3NIEppgu4i7t7osg5Zi/aHGzS1p8OhVptCMvo9jnylIis2xrglUywBLbe0udRZpQAnhnJChBbCnN93ovVa18rGva9lnZlvWkfYtIzUdl5Ki3MXejj36OirlguMauqkhW4qh0o9ITQDJZRwjKKiREYPdI2Rs6zq96nn/sKWQUNHSof5RjznQuk7lpAl9PvOFS1ZsyAZ80LSdyzixDpBtHdrqOsVOu9MruO+/ld/7VH6F3neOyDkgXWI02UVTAgjZXIhN/uTcLnPHmoXwwynZD3JWYju1rjhVyadLW1FWxcK1og+wmIno1WJl1q91osNaYWEvS1L++Vk3z6Fj+9lvMU5tY2+cZrmt9rhH5vlJfKbFdNEwT0/v7TkPYxRVDfV8WSGQj0dJrFAMrzQxAJLD/q+c4/NXzdO6wG32hmTb2RuENE0z70iTNSLRgPhGhl8BhXvHyItM9dA+f+L/8E8J9d3I5JIYII0rX9+Rk3WymCZWnOJPLdUMJkLT2PF0wPMl0bHJ6q0ttxrT+GU5OVQg9n41zSxrTglzo2/J9/zFMSdaOTvVpjpS0tW6lTtvI4HhZpXlpglrVktoMKSinl/uxxlzYZGkhQ5cD0WMZFYLJxaQQJlKopOM9XrGLjO7FKzESFj3j/iE//sZ36S4PdNlJLHv0QmzGiFuaYKhqor80QUCUlEdGHTlYZMZ793j0jz7FxUfeyX6f0WUHXURFyJoR904M3p1NYfQtz/sG3qtbH9rcYOuodYkwoVQmYZQqcJYW3572TcdNsFxYC5k0D6qQTU0/HWoEsZBC2d+Wv76O59nW0bOwupak/uu5T7vWs6rYKKKivotONNvey5JxKafss3vqJxSPY7X5ps0T2Jt47jFdm5+NFiNizbCUMjFEcgikrOgqcelXz/PKE7+iO0hGYFOrs2pAykRk1xtvmGC8CWuLWtdy1sQYYFwG9K4l7/ncx7j/Y+/ncj9y0MO4EI50tLZyynQECwnoN6G9MWWZsPlkZ1wrjE7s/lVDvQcyEle//ftv9722B9bv+ZogNj1IBabO+2GMceq0rX4O0pxbyEWmgZUFRmob6+VwTWc7q3BfxY/QruvYS+WY7sP6Xv+tTXa/luaam9X1fe4gahqJTNOf1OaR3QsjGV8v9SzX7Ttt9gchAb0GlvuJZ773GFeefIZzdHTJ8lw/98biDRMM/kIld/6RbK/xYchc2VXu+a1HeOizH+HwQk/a6djPK/bzYONdcmbRdZV1La/p5rQsjj/QG33Dblu0TYeNJsykZZTeqHVNpmGAY8TSoua3drwhl1qBdWJZz2gikvZve3zb3halmLa8TaxrRrZufDCtF2K1XcczqUXUJpDNmplLmRvvd6G1cl6xR4orZcEH/XYjnD+E4Ue/4udf+Q7LI0Wy9SiJTk0tlSlU7Y3CGyaYGjA5BPq+89n1IPVw4aG3897f/wTpnj0OFsqV4Yid3R1iFy0ea7DBW9p0PZuKWF6y6d310tqNGW8iTI4KmZR7v+7Wv2n0rERkGy74k8AWEqmEUJ5nSyY1Mz+jSW/b25/5CbsNbd5Nvu2hSnOb9WjytrI3ydbPX6vAVSojeM8YZkqoPWvlJnuikrzYZQqp+NHS7IkZLhxBeOYS3/8//5LwzCUWRA7SwOBNgNwYdsU67yqJXW9clWAmHwqbzhKbeMJvmE3hlbL594Qs5AxHXeZyGFg8dA8f+rd/yPKhu0ndQAojLIVRExZ32iKl5+wzBRSLebBAOqOYy4tosbgbe4vXa8arY9MHpkURYptN0IhdotnFVMqI39IN7F3DdV+zv+Y3ycuknZR5jMyIbNUob76TiQtvaITd5cubM2aoUE+rqma7azsB/Gtt2TrReYVKXaubZj1uacrxMlDQkgQ/Z72jW7xOhUqD59PeH/F7Z6Ok3Tbps06mMk1vMM/1MZQpWSyYelRfUiZmsYG+wTpDkJ4FS84PS869MPDUV7/PweO/ZjkAq5Fd6egJHPSBIQSUQJeE5WikVK//OuOqBFNQXoSUlM5HbWYySRMEIYUStDtbZPO37PHo5z7B+Xe/jSudsursYZVeopCtPUl5SL7eWrvLg5Vi/PUdx0VlxkmoGkb5AoOPwZnkfEq7vl2gng9rv9P6tH8iDpPvUmZlnQmNtmPJJ1vMlKbUSdaeupT8/diUZgOebm37BJx0SNomX9HUXjPsrOIXU/IJfqhcWZSAZqWP0c5we1gqHuwpEw4TyysjP//69/iHL/41sj/CqEQCaUzeYbJdW9my67rgmghGveJ935NSIiUfI+RfFhuAZT1CeSfwwCd/g7s/8ghX9iLjuZ5VwALmJKVLanNxueq2iaLN4DelqIzS+AjMeH0IwcexbBBEwTYhKkSxSVSU9A3ptORiD6/s2zjXjxVysUKPl4y/D3jdtbQbTkI51qTZmnXZt+UeQKmbVXIiynLohHM2YNn7dbsZQGRqssBkCghlsjURDg+OTFa6jqSZLnYEAv0o3DFEVj99hp9/8W9ZPLfPbrJpX3RI7MTO5okqzalaxlSfG4FtMn4c/jIENSnXTFUjRUCy+WqOPVx4172885MfIt17nsPO1LsgAkOq/fNG2969rfjkWW1xdjsKsRSo22hmvA74fVf7swXukVpJZuPNdKJYX8pDsqXGgG2/ClVYm6ZW+1TrR8Mr1Rr5fbuk1yKUBe3L0ZDVRALr5NUmL1jLoubt6b2qkxbX7rftY3nWY80vFEcOO1zqVaoHkH2ur64jo6zySOh60piJI5xPHaunXuQb/9ufMvz6ZXbHSFolQoz0nfmS1eL99mszVGf7Mz99XBPBlJZoygkUYrApQ7NHrAuabbK0vcC7P/Gb7L7rHg66TMojofEsjGvMKla8lAa0TcCG2uRatVdpw2hlTmHHHuuMV4F5vXhgSNmwY/nLTvN8TE4mm0JN44vFejUhqnYbP7FqmeV8T1fG+9B8LMqwBSOP6Zy67nlmAfFOgWptXrsEy7elR6tSqUzdYTieRbM17RXsnbP75WE7C1E09aUh0oLW/hUkVMGvTf7Cw1npJJBzsjnCfFhG0sy5bsH5ldC/cMAP/+zrPPePPyeMEGOHhGh2ymjNq5pfKb/c02sV9FPANZUrMjWTohgB5GyDEyVAiMKwFBYP3cdbP/II+eIOSTIxBjPi4jfBvwbltxBHq8bV5pM/45Imy7p6OePNg8mJ20MqmYgLkjSSMC0mU05a5fm18uUbLkdrglye/xrWzm3yct+TaXM6eKzcNo8tKKeWa6Wesp7Bpl4iblwWr8s2bJ5j+7w8pphI1Q7pH9zQ2CGzqlsy1SLUZaXfH1k8t89P/+KbPPU3P+ROXZBHZUgZCdFkMdnwgUquXpa28nVSxU8Z1yyvpsUEonS2FoSuj2iAo2HFUVTu//gH4d4LHEQzAEsIJFEGdN0Furn4gvb93UYwbboZrw+mvRhp1H8NkayvF0H0Ze1fyXA6B/u+130mWMdRtZur7LMSLAPFpbSU4VpN1RYqu2wX8hblWorkCzXbml/NdwMiFnB7WxknnOJo7qUzrdC+66atiwihixDsoxySsshCvz/yy2/9kMe++E36V1bEg5FF6EyRS0pIkFP2QcClRMM2cr/euCaCURWUYJO7Bh9V6tpLSitGBrqLO9z3Gw9xtBsZDw/YlUjKozMxBLWzsgRymFTs9uLLa2RTxGZUMjlkUshkKf7CN/J23boQBPW5pG3uHPVvZZkKRsr31SeRL1/5jW7uViqLQMo0qVjwX2TyTC3pJRZhmxbKGLRGq8C1oon0bN8E1yS8LC1NLf9a29ISpS2KBdouO6ZZILXuUynzQk9d8cUYS7DJ7EtXfbaq2N2t5FWIa7pH5YOaQiZ3MIRMjtaVnNW1QFU0CDb0Vwgo3ZWRK088w2Nf/Da7zx5wbqXELpAVYujMA15BfSyfIKSQGVxmEPMbjk39TiLQ08I1EYzdfxvGn932IgppHElkwrkld7/r7ezcdZEjScTlAo0eZT0luhA9jsu6j0Ob/7Z19T/1llzfe3NbwTRQH46xhaOnF+/4S1i3XeiRQghlvwuWiD9jW+pJjskPZlosi820frypxpYq+74tL8WadtKWdxWcmMR2bmpZWDHHNJpt9axkE/xXMFuLWKzpIZhRNw0jMXZ0oWM5BsZfvsg3/+OfceUXz9HlQBesO1pEyCkjPh1K3/fklNaCspV6CDdW678mgrEBWvZSqUAqwYdzJmlmP2TufNfb0S6SAhxI4kBHsqppL957tPmo67qvtOuUB7jxYLc85xmvgqKBiJjeIm5TwIlHAaK/CptfOv+VNY1g/YsofvzV0Bo9p2e7TjIn5bOuzVwFWzSIgumaXx3GlVMeLbH6jlrnFqXsck/KYnOr2/0WMZuLYEaYjCLRgqt1Q+ZcivTPHfDj//4N0uPPsTyEQEQz9NLZR9ftQVrua5mSdsvFbSPH64VrIphSv9qkcdWyC5HQRcLegotvvweip/SbZc6NdjPbvETBFETz9CyLFvN6eYl9rptWzdv24sy4Ctrmjb+MIo2U+ayZJjh+oPTieJey3Xc77KmnDO3kutrubiGNgE97JpKx9c2zDE0SR5vPpCtR0xa9ohwpothi2751lLOP1WuL5nI1KOvpVcwMENV8wjofKjOiLJOw89wBP/3zv+W57/yE5ZXEblzaZ146VIWg5rSquGtAmHI3o7E/llrijSOZqxJMy8D4TSoOQeVrpGoXeP7OC8QgSEqEMuixdD82j7Lm6bd887rbdrQwGcPa4zNeH0pPCLidpNEKggSINqG9YUpX7BDFFtE+I8t47Wc6vYi52J9QJ36fkhnnNHYeMcEpZ1s2a+JZ19DpmkIIxz4+9fyyvVbwMe4FTzOR7UYGBaWqJUmTr12OfSS1eV+rphjKV3pqMomYfVKkY7kSnv/2Y/zyr76LvLBPzJPmZ0MXLLwJks0kJNi+gH2o/d/Up3RjcVWCKSgGNKFoH/YQskfbIgbO7e2Rg2krFkjHJkpLwYyIaz1BJzy3bShprzX9jJOh6qTf+HWUd92e7/a7vCaYdfXktO2RoqGU35NQy9C2Hqax2tb6vvKzSSptMhPqhoDaJE09165vAyfdk4LNc6U2o1xgHO3dzpptzi8CWQOjQkiBC0eB/cd+zY/+/Jt0z1ziYo6EUdGUnJyL8dsJ0p9b+9Et2svNgmskGLsY0ybW47ZoFELfsdhZWtAcLA3exdyG7KsfDM+n3PZ2KcbIgk0NZsYbw0QpdceEIrAuH+2bOsmRkYUlO+FVFvtTzjlOLkVKJuKRohUXG8Uapu2petNfy6+kWSeOGszb7RbilT9WpU28aoItKJq512Xz/ghF87ctHRVGJYSe3RSRn77ID/73v+ToF8+xOBg5Nwo7CXqR2vMn3sFyYs1uMnm5JoJBAFW6GOjs1lg/vAopgSKkbL7JgeB9+/YCqLgaS+PB6Cr3NmzuXaebGa8d9tLbqn8F1WimaKbrAuofjvKvuhNMxKPFwCglTz+vfVa+z1R12whYz2I5vE5ARgDBdP3Je7ig4b22nFqPKVnzx05SrNemheVRmdLOXSOgiUiRohq092CqR7kPtSwv3pKKG0YERInATowWdkoDO2HBHezAswf85M+/ycvf/yn95ZEuLhmHZDbI2LHKyVoIecvA0AabGs2NxrURjN8oTcnsLzmbJ6/aER1GVgdH9aGVFmC9Tm8nH7/u8vS2LRtJZrw+tPfPf8vmJKj+bFrSb4XLt1thnKRv/bx1MV5/dG32xyrFJOClLsc/QibB/u2q2CzTKj+RgGe4maimodpdSl5tjttuhKH6yhTB3iA7r0att6giOcM4Itm6mRcaGX71Ek985Ts8+c0fsHsEu9KjGULfozEy5BGNVoeq3W25nJsR10Qw4g81qw8PECGESAzR5i4alfHgiCxCiva10GJ3KS7W2yxqM24IihCbQNvvdNDeXfuS1xOm4+1LvgVVoLDziud2QV0X+yOuEV0zXLuw9c26rWO6xpPrvLl3sk8dx5TH2lUeh9eruOmb3RKiRNTjJoVRWAzQXxl4+fuP8/iffp3+xX3OxyVpNaCaSaIcpIGVZnPyu1qZNymuiWDwm6siDCkxanYPSiUQ6EbllaeeJa1GiIExq3mDqg/kChEd02aWM24ATnxBjWlMeAsBNWRykoAeE/ATklGaDgUuw5uiXMfOXA1Oips68audtobNajfXcQK/rMNu0DGs36f1BDa/FEjXsSBw/hAOf/wrfvbFb7F4dt+0mTQi0QwRWSB3AelscLFy681wes0Eo971JtHdpf1iY1Zkf+DFn/2S5aDEbF1uQzJCEbGu7Rij3aDSvb2e/YxTRnnxyzMoMFuaorkMI5gaCWWtiMk2kmnPqfFmCtpyaib+sSoDFYp2u0EsJr/FJlLWN4il/JT9hQz93JOwlnfZ5z1NZbFDx/Owckr+Uq9RcJ+vmn+pV7k24SgnNHbW/Fkpw9Mv8rf/8U+59NgvuNgtiVg0gYDZoFK5Jz7rhqgPatzyHG5WXDPB0L50/oKICEsierDi+Sd+weLKyCJh44+CjY4ICOqxKmbcWBQh3PqCbghbERCuds4mimTVbdOGNjWSYvcw+fQmNJa2ntegqdmx/Vav5ryT6lmSsJH/SemvEeVeUQm5Oea9PaFcswq9BvZSRJ+/zE++/l1eeeLXLEcYj0Yk49OZ+FgrP7dEGMC7pm8lXBPBbDq6mZXcviQ9gT4Lhy+8wpVfPku3SqRxtK+AfR4tGtlMMjc/XOjrun3n15OsbW1D/bYbgZS9RfZdoE0wPTf3DPdTtsDr1VZv/ejx89qyvFbSElDzc03keRKcfLXR5KZjVq6vsiDQHSbii/s88ZVv8/OvfZfdg0QnkRgj0UdWp+aCggf6jj7T7iZZ3+y4JoIp4yhg8ksRLBD4OCaWoUMOBn72nR+y2B/psPCZAORcHfMKUW19IRoNyRZPpVuWGa8P2TR680uaBFx9RPXkcyQWCMztblpmjvAvqJQuZ1xgN4ikdulSmjWWZzXmlkcohWiOQ6HpIp+8o7TNrwh1eaFK865kWATezyn5lJ1WsgU8K/mX9KUs+6DamUVYyn4rxgoP+Chs31fqbedCGJXFSrk4dLzygyd56qvfh2cu0Q3KcHRUY8KYLmd3ufTFlssTbi4fl2vBtRFMs17eH1WLyztmpY893aA89cMfMzzzEkusa0083qiqefvaTfd8ClHVl7q5iYBUMtlcZrx+2D2cyNvvqCjJBcZIozwnC0lgglzOp5LK9OFvn8vU3ClEsPncpq+657N21LAmR8cS+Elej7qv/LhG0UKcsCgEVOtmv5VgSnOw0WrKvSiZlu5pWzctXZhmFShXp046CSWOcGHsuPL4r/nHP/068utX2NOOTgO7yx2GYUCLbxI+XqzUu9ShPK9bCNdEMMUzd9ohdS4jCcI4ZsIIq+de5vHv/BC9dEhP5zPYuUcvNnTgJAVkG+HMeHNRiVzrK+uYvLMN9pDqrjJ6fl3uXCCnZbsuYmjP24oimFsTtvvWj1cbjKoTzrbzDVcjNDiWdd0OPj9Uydve0elqy7ewRAyI2LzTRQOJWdijJ750wDf/w3/n0o+fYnmQCKtEn4V0NNL3PQQhR+/edvPCsWbXLYZrIpgCUXvZBMjeXRajR7jLys6h8sRff4+jXzzP7hDQUdHYIbEj5YR4mxJn6uRLPracjJMIasa1w0SyqOO+r/aOTIt1MfmPRXqvZ2y+9kV4t2HSZE6GJZmaBM0fO96e7mQmXu+qYzSJpvzqVgPfLqQofv1r5XldxCL3S6O1SNHixbVA93kp56UAGgKaoRuEvSHSv3jID//rV7j82JOcGwPL0LMIHYw+MLjpxSsNuc17fCvimglmasbYnYwx2o3VjAboCZxLgfzMK/zwT79K/+w+y0GIBHTM9HR0yYxVJCcSn6AqiQ1VL+3V5q2u3dqFfEoX97xsX46huYdJrdlanN/KSGnE2/9FBffxMtJGmwsWMpKy3Qpzsdd4BaZDtmL73Zu7WYpgW7pykmkiJtxTHs4GNUm1y6g25Xj9mCphe/x6gocGCeojkRU8UmIr2AWmtEzXmTfCtwIEz0O8WZYEBhHGKEiIdAn29hP/+Gff4PEvf4tz+0qXA0mFhL3/MXZVczftZ/0+rS0NCd4KuGaCaVFeRGt+Wvt9RJFVZu9QePn7P+UXX/oWey+tOHeoLHMk+uwBAoQu1KHqTts2RWm5eVdpJr0mr88Za1CPpKZizdUs6nN1rjtB2stcxLbtZm6EViYhfjWsE0Wzf8u+Cj+n8k9J79vlbalvzTXWZRtaEtmG9qi4napckhGlkEmI2uwAASFqIIywPFRe/ocn+fFffoPFi0ecSx0MCjUiUvD5jEK5tKvdlVsO10Qw5YLXLr6QTA2lGYgIO0k498rIE1/6Fk9/8+/ZefGI5SpbYOIuMJA5GgfwsA4MyYLuIHQqdN4ltw0WtWtz74xrRbGBTeQy/bZzUFMEtyGaTXt76eu4GiYNwPPZ0HymhJs7NoV62nLdxomnEI6TzbZ8xM/acgxOOGkT5UI91jBNnYpmLWIuG7JK9KOyHIULg3D0xDN8+z/+OTuvDOyox6eW6Hk05OZE5TP33DaIFy9e/PebOzex7eGVF86CEAU6hU5tIGRQJa9Gnn76aZa7u5x/612EvV0OJEEnSGeR08lKDJEQ7Dxxj0WAXDyLXHe04n3fVZcZ65juiQlm+/ZOke4PLh2QDo78i+NCVOwOVQbEg9w5URRNospdo2HUZk4R7nKgFr1GFJa+edGa/Ns81/Mo6+t1oSEcLclah7/mvEqodVcpz+sfvAtaIHu+wdOVD576/pigiz2dCjuHijz1Mt/7P/6Cy//4FHsrISTv7gdAa4+dbflv2dUYkQvK5d9KuEaCsSubSKW9TmNla8oaSXSxIx+tGA9XPP/sc4zjyB333g27PQmfXylbaIcYohl8c7L2rTO4lkapd9lZtK5NMtm2sGXf2VnW4uyI2TP88bHINj4Mm46dLkOvQsxwcHjEsH9gbgXTDLP+7O0Z2AfchbkhmVoA/m5UzWc9TV2vx/xcofrd1HPqIQt3YB+yKn01v2JDsqwKoTVpZbL9lLqVvK2AdQIs55ZrKDMsWNe7pbLmvGs0WsoIdAgpJZYp0r+wz2N/+g1+/a0fsXcUiAfZpnkVCOTJSOzw22LX73f9dsA1EkyrWk/7gkKfhZC9vRQD2R9sUGvyjPuHPPvLX3F0eMBdF+9kJ/ack44+22x0MQRCiKauRyG7sayQGpSxF9Ptt/bqScvZ/ne1O9Bpm86apSHb7+H+EasrB/VZqwtSedgmd3Vl2t4QBftANwJK++tC6vmWX23IyoTZy7REtjTpS56lfPuZ0qyTSLOvnl9WSz2beq2dYwkt4L3fE23vS3nrjPMiRuJ7V5Qnv/Z9fvrlb7FzaWR5mNlRC9ZtzVT3m2nqc7tCHnjgAd3cuQnxcA2jPXoT8TIdbLaHnFAGRpaLJUerQ3uBd5YcSeKSrhj3Ijtvu4tHP/NRHv74hwh3XeCSjBz1MCwjR5pQyYRszaSTKmXiMeMk1AbQ2j20tU6n+CUBDwo2JqIILzz/Ei8+9zyAzQbh6SNCklydyMC/3A1xrKHaybaQQPUInwQUF2JxDbklB/HzSoCrcsyyb4ilEdR1gimhXqd8NvO2uq2TUimrkFIs97JW3+sRBJFgmrVCSMqdY8/RD3/Bl/+X/0B8bp/FgbIzCDEHchRSsOlK7K7cRsaWE3BNBFO6/2r3pj0768LM9smLYvO2HAyHhC6iMXCUVhZSMwQkwqEOHO0Ezr/7Ph7+2G/yjg+8l+6tFzhYCnmnty47F4YiCP4ONJUxYruR2Cy+rd71wOstPwtoVhMMdwgjg6jy/HPP8esXniN5j17ISqdCn2Ho7HnggmcaR0MGJqYmeDWQ9UQuNE2n6SDevW0pivCvCbsnVbER1zFGtAQub5op2d/PteNML2rZzg2x1Lr5vva3EpbXsUNKX7tPyuZaFyCxI2bocmZ5qIxPPs+3/tf/wv4//pKdo0CfIzGZ9qhuVK+GRr83tzNeE8HgLwr+kqu9GUQCfTYGz5pJUWzRTMQ65BTlqFOGqIyS0UUk7O3ylvvv5W2PPMhd73w75+99C925JaHvzPclZ6IH2ll7cXL5+kxQV2NxX5n2JbXj0743fBxXcU86/mrnv9HjVynfbCyVmtsUJDecx2C9GMM40ncdw2rgmcsv8czBKwydC7Pal3uhwiq6JlDKLwRTBLLRBiaCWdca6rlObiJGEnaw/vHzyrrtb8mtEkujwWwjGMHfz4ZgprpMBFPv8xaCsSTBbIveVBp9cnqJEVEbJsPRyN1hh93n9vlv/6//lZf+/kkuDh1hBUE7OiKkMpZJbaKwUuhtjmsimOyu5LWHR2D0uaYRoctCn6BL9mKPQRlFbGoFb07hPUOj2BCwRGYUn0JzERn7gCwiYacH115yVkIz0NIgNk7pRJzQxz3DXmzXYkqTJ6Hs7Ozwlt98L3e85wH2l2XKVxPSLuPzVU2CqEXYG22gCGchH5fYiQhwQin7mATZN2zVyzavENudVet0KsVlv57vx3GCKTAyMtvgRDDNsdo0ApCJtL1+Ux62z26BQAysROn6njyMLHOkX2X2Xjniyf/6dR77i2+iV0aWKRJTh2bziwmI9ZI6wViNvUK3MV4zwYjaVCQpwOgvVMj2IvbZWpUZSGJtd3G7QMwQ3FsyRSOoHOxrQIBRM2kcTW3Hg00zPWx7AfCX4WoP5lUv5w2jyAWY5nS9cbXyr9aq15wIMXqPnRL7nsPhiG655ME/+DgXfuNhXlkq2gcz5osZLmmFr+pHLqCtb0hrK/HzizCD22AKORSUtLZRic/yt725hPyoBGPlWxlTONbwagRTtCuvP0VbknWtcKq/NwdL+pwZBVh2JIUuwQXtWFwa+NlffpMn/9PX6F88sAnShsyCBZqsjECw+YuwOd3t7V67E7clrkow5cGVW+HPqzaPshiRqJiDXHASUk9jk6p7PItyrpPSQGbQEfUZImMISIaQM5KtS1qD2HCCtcex7psxYx1rt2XDWN6rkHImd8KgybT/CEMfeNfHPsD533k/r+wF80Eqs20Woi86hRcgPgBQi8A7kbRNKdMQpvVWwCtcgHPJ0yO2beqhlo1rTEwEYGRgeWwace0apvpkL99CoblGU5rgpenmvUTq+Wjw0K+AaiL0PYeaURUuhh3OX15x+e9+xt/8v/8z+WfPc3e3x6iKjiM9Nk4vJxvHJZtd5WcA10Qw0pAM/hAKrFt5umGbvCzeRDLiUZIC0W+0E0cuTnaYcTH4C1W6xZVJRS91wV9IheOf8bOM5uZv3pWOntXREXGns6aqZlJQxmXkgY+/n4uf/qARjORKMIh9d4twlwKCay/W7JiaG5tCXvbj424KbFfVGazrVqQafms+/i605Ys/e19x4TU9q2R+EsGIU6U4wYj7pmgw+1Wbt5GnrQdVuqz0iwVXhhWd9Jw7hPSTp/nh//fPeeUHP6PXjl1ZkI8GqERmZavmWtZZIpiradQTvGmk/tKqk0aXoU/Qe7StXGZyFH94nq6cS7DpSUcyKSco3aESiGLNqxACEiLq02mq+oujbnvxX9Fgv7lsz4v4/SnL5jHN5mlKDjBCR6STDk0WjkHLQNINwg6VVvyv1FUnkYkEqDI5NT9q4o18i5gVEria4JX827IrudjGtP8ElMPlHW73F3Ip0HrAe37E7kseRnYlcmfu6J+9zA/+y19x9OOnuXAU6HLHaswkhRA7I6h6za9SudsUVyWY+tA3702zHVUJmhH1UamS7QuI7TNl1/aP7usiAhLti1YeZPlaZDFL/ehBkFIw57skkOqD9y9MqUt5w+fFv5n+b414jKi72FlkuzFBxjx6Qzd1v9IYdBuIzx8mgmsH1jwq4lPlyAfC1/OOvTz++tQy7FePnTddVpH0sl7Kr2dXLamcU0ivvL/+q019/HjJcSJRbzr5eerd9oqiHvB+kQLx+X1+9uVv88pjTxEPM8u4pCsfva5HPQB6GYV+NfK8nXFVgmlhqrChaCS1CeMLTXOo/SL4+40/44r2gwuT8TiJx4kJZrWvvRoe3qGUOy/Hl/J11s376z1GQ0qIwHKxRICj1REpGXUbycjG9708y9LcmbqN8Wc6PenjKBYccCLw3020AlhIYZ1YcCo4GXa0pJh+y1p92f2DVt5J8fcWL7vcO9Qd4hJmuFWhG4Xdy5mff+37PPHlb9O/PMCQORpHNGe6YFOMpDR6s2jK9yzi2gjGX6zS3aZuwB19SX7vAlME9OCvqY3YnV50qSp380KpPYBAIRIboxSweZVCOacQ17ycuFwNGtQWUbImMt62je5AVppJLnVVE3IfkLW8mgUX1IIiTCU/KPaVSfM4ERuHbdPJbcvx1wIrvxBuqbTlGxAWsWMYRxvgKNY8z6pEiQQCS42cOxTGnz/Hz776PfoXBw9HYnmOUUiakJzoVOmCkLNd+2az86zgmgimvTXlIeuGzYWGACoZlC9B82un+/iOou14es/a83Gjr1gAnkJu0dXZeTm+lPvdai3qGofdfyMXu8nY/YyBLkb/WvsXAJ2IoAhi85GpuzGhNUIpv35as67lhG1CVjLaOKccouUkbwLWalaUfFvKKybfpsy66lpKPWBxo1NK9H2HgGt10MWOcTUgKbMc4PLPn+Gr/+G/c/jUCyxWsJsCuxoJIhb6wuf+Fs1WgHic3XKNtcyzgbC5YxvKTVFXw8vLZsI+qc7tV0q9OVP2FYIoFnxhUku1IaDy/pe3qv0ql/JNaOZlc2HLfTby8X06+Kh06DRYKEgCktSmlRHqcX/M6199o6jp+W15PmskUeoG5M3xZf4cEaOCct6k2dqLIG7ob88zkrFz3Czt6c29Ibi/yUaJtb5TwC1PoRBQkiaPjRPoNbAg2n3qIudSYPniEY9/+Vtc+dnTxP0VvX8ER693VNcOo6Ah+vuaGTtljNnuT/NRPQu4JoKZcXugvtRqQzpyzmg2B8dxHN2gefWZA03PaUmkPXocRlTrWocR1JYT13b5xsZ5aztotBsvx7b9t2pXdqz41gSffyg4KaaorAJkURZdRxqTjUGSSBiVfqWElw/40Ze/yZPf+Xv6o8xOXCCYP9dYbGCFfJvmqvo2OmmWldjOAGaCOUsQMR3EbSNFu1Rs3FfBNntB0Qdcfot6s5lsHa3ws8EGdWfJz0mnEMRGuvUzJy3YyKQQS9me0sBEcMVLuHZE1Ga+MHRC6DrSMBJDQEUYh5EuCReHjl/+7T/w+Je+xeKFI7r90ZxHQ2fneqeEiBwjF6vJVP/WEH8WMBPMGUIljg27SQgWwL0VVJdRO69ZN2lxgW0SVQH3ZpK4vcSEexIxO72U1aRbO+75lH9NeaWYUnZLLHjepblYFhNomRwGcSLA+t6TWPNFXfjHbLpILx07OXL5saf40Z9/k+ULR1wYIufo0TGTcibJ5CEcGm/22ivlpoA1I3mt8+2PmWDOEMqXvYVuOqCsiXoLk+5iU2mPV42haCEb+9ewRjbTepNgWurhQkDba9ai2IpK8nVtIVgzqRKPeTOXCHUpJQiBGHvCqOyOgeHXL/HN//BnpF+8xM5K6HOAZFEbV2mEIHTRRtAFJ5O2ftJO/drc5qtdw+2EmWDOFI4LqDrJZJ9IbxtM2+GYWBw/Y1NsjCScI948NCRlm35dkzoDW+sHEuJk4C09Psm6lUNwV/6UuUhPfPYy3/8//pL0s+fYG2yWABBi16MihL5HYuTo8JDgJFKIRL2GoQRma/3DZiPvjNsb9nqrzx9eBLM0oWqTpIE0PUk0NpnCHq1wbwr6MZx0+KT9J8HL3oZt5JJQQmfhWVWE4FOMaPJhK+512xPIL13h8a9/h+d/8BO6/ZElEYmBHAKj5poHquz0C4LPklHcBQoKyWxqNmcFM8GcAUwOb/71LK0PCSYQYl2sRcBKzJXUeE7rBmmIvzwiFmKhdmNX7cASTTYYY6lCTC1ZYVNmeXe7rZfDJW0ZypBqWsuvEt+xuEEN/NBOgDwcoXmkixbhP4aeLixRiazGbM50r4y88reP88svfZfdZ4/YSZG8SuTSxILJ1yX57Bg+W4A2/mFJhFECqxgYPNyEqGuMWynw9sNMMGcYqtNrntKkzTS24LqvhTh5vJZvck25cYplvT2f1p6zue/4kS1wAirn2Gj+TOjMmU7HZEIfI12I7NKxu59IP3+ex7/+bYYXL7Mjnc22GCLkbPaqtqmzoZlUza4Qo5g3u7o96NoqfvtgJpgzDDPwFg1nIwLLCYJQCEHq+gbcYNoebCmh7N12aoEXAa4BVRvLZsItKOml1KMYnwUymRADIQaL0ZIUkloc4gGWRwq/fIXv/+9/zsFPfsXyUImjupegOdXF4FpfQy7SEovvKNtFm6tDZkpFz4YCMxPMWcIaKRRDpFg8nnE013gT5k23W8O6tlFEax2WpBDQcSFfO6fZNlKYDm/TXjYZbUuKiuO+PGLhVwVyTgiw6Hp6At0IO0MkvnzEj7/8t1z+ya/oL482l3roCBLWYkNv3hvd1FbK3XECKsdxgmlJ83bHTDBnCY0EmxCIBUHK5tVrSRopPybEzVYhjKJdFKE5psG03Ui+b/2nyWe97M3SXwu2namomWpU64Rqskpc1J7dy4mffuU7PPnNHxL2R3a7BZJhlUakC6SczDmxIQt83bx4bcHj99aeIx9P2mo4m9R3O2MmmDOHxuBbSGBTM2ibJpVAtibdCsWF+AQIDaHYxmaS14SqJ7WVW6u3rSvWLV3i+o4p02tguT/y7Lcf44kvfov48qFNxUMgis1SoKqk7M54HsOoaCWpLO2gX4xYugzdGe5BYiaYM44NG8dxFFuGk8G14CrEQiWBKa9rzPVEGAlu2WcrayWo202CD4VEhKVEXn7qGb73519DnrnMRVkSQ8eQRpuWpFsw5ozEaL1camxRmkS1R6toNrUM/22WWpMzpMXMBHOWkAKqHmMwqM0yoMoOHWImGMYIgyiZbOFIUyBgkdpMRNyW4bEKTRu6uri08r9mGxHqVMGl67YKrBOHejTDMcDg8YeQCCFa887HiqsYARRyERfwWpTAYqX0oSeHyAD0OZJ+8RLf+f/8d5Y/fZHz2pNGteumB+mJQ/BwIZOwtD1INunatIgbc4cAYyeMHrlRmpHumz1PtzNmgjnjKE2A2pXrcXml+KQ0aSdNpxEP2dzetMFswHlKmJpfZXe7UbSCcswm8LNA2ipGaoJNM2wwcipeutUXp1ZFyOeWDEGQEc4fBRbP7vPTr36H/Z/9GslKzFIJI7gtN4W1mHxrOFnzm1EwE8wMg2sWQULtbZFGiLb26vj+qUUykUs5ay1t7T5eb9bUc6oGMh0Uj5IYVeizzxNdylMQbM6uEuOl2ESyE6RnjgAHmkljZrlS9l464qmvfIdffvMH7B5k6zFKNtdRmcMLUZt6Z8ul1/vS1HtzmTETzNlEa1tVRRVySo1fh0tmq8VsyIusKyCTQLXk4mlM4JpyG1g9jlt5tETz9Z6bQDsq2XWKSoIlep0bWmtmTY6qkIUdOu5KCy798Eme/Or34Pl9dnJHp4FObZbSLttcSBklyWQUL5jJ49oxE8yZwhTdvmgSivnBJPeDadsDrQFzu/H26oLmJfmGay6b55RNZywRt720STa0muBak3qvTtV+XJup502rKBCy0O9nXnnsFzz2xb+BZy+zlyJhUA9C1WhXtcgzZDA5BcwEc4ZRVHnVXJ3PxCcnO0YnlZi27S4ksn7sJDiHlK3jeTZUJMUILKDeXAluWM6iNv2wgKgSfcBhVGtKVY5AQYQ7xo7lS4d89z/9BVce/yW7gxAGtch1zqaZqZk1heOc8XoxE8wZhSkkTbR/dU2hGRhZsN4kKITQtrPqkSbdCajnHE9diqlHCxP5QEezq1gsaJx0bN9k8I0eUL6GRmjqvnz5iB9/6W8Yf/E8i/2RTj1yHd7j5FpRErPp4PluXH2zNePVMBPMmcI0fYbNVmjdpp0EC7qUbR8x+OhkO57wOZNqs8ntK04yxcaSK914MyeUkdbNuU3Ty7qVvV7GbRUlaDk++DIxTciXrUO79haBIBqIObBM2TxoxebRytm6o3f3M0/+5bf52Z//Lfr8ATH2aLKeoyCBURJJMilkEMu/6C+1ZymbplQw6zavjplgziSsEZJztgnC8vpXuqLutOhv2xMVbLHgbqAI5EmCOWkbxzOShnSsd8j8SULTirEfGwKggI5Kn+DCGNl/7Ff86K/+hrA/sJBoiZ3oskCKUr1xi6HYf6AMA9jA8VrO2MRMMGcN3vIo0qEbzYgWVdzFpFc85skxeMJqOXGtpj1+UhkF5bi4dlSNy6X8ctwN01IIx3kvuzOeRiGp6VKL2HMud+z/+Jf8w3/8IovnD9kdzNel+M9ImOYtWltK2YXQZrwunPDGzLgtUZo1ZVOEEPyLXwSORrp8D0Wotwjamk2iEs06yra0G3V1yqGSTPnTMGHZlLUm2vQCq9hsozkGxpSJGjinHemZV/j+f/kr8uPPcm4lLHMkarAeowyiQnDnwqoMlQt1O462zTovb8a1YSaYs4Qa+2VaN6Gepi2x5oU2ZGKJg++oTnitM1mROmepY/xU1yfCMMaYtJNWw6lC7kRC0VR8CUxqRRV+L14RdvodlgPkp1/hsb/8G/Yff5pzhxipGEMZsYggqnR5ipkLkzczTMMNKvnMeE2YCeYMYeod8l8nl5TMFmNHCumYgFciqfJv9psWJY1WXjBjskhJ6X8LZ1RNatq/hs3tDQS3RWcxw28JkyCqhKTsZGH3SuLXf/1Dnv/2Y8hz+/QponXsksE8fq242JBMqVlZzOZjy9xcem2YCeaMof0Ki3/1U0o14FQ5ssYpJ8HJBCevouVQNSNPVEmkFdvt8NSbuyvEbS9gTaUyRXGQQN/19Any5SMu/expnvjqd4jPXOK8RjQpGddc1Oit2G2yWC9Rsc20znpcRXs5uZYzCmaCOUtwJzrx5lHyztja/BFBc/a3woggN82PthlTuaQsJZ37qpQE2W0j6jMqiqctznFVpWkydn86IzDAjCUlpJNPJO9OdQsVOkyDSjmjCcYnnuWH/+lL6FMvcX6IROkYukifLY8haCUWdZIp29IEiypEU0injIYu2EY6M9YxE8yZR2kGTTaZlkimVJtoBK2wwfFDdbUKoxtNjXjsqPiLWA22da/9tnXKKAMZxIiFNE2F2yvEFw/5hz/9Gld+8ksWo/nHoIFkkzhWKE4gxYi7UceyUfYdv/4Z14KZYM4ynFjEZzW0kdRxbZ5qgxHPphZTUPilHBNXPUo3ctVIPF3pkTEnOdcOfByQbGo0TLajcsymWxFkzPQSEazH6MI+/PxL3+bosac5fxhY0LvOEchp8mWRDcI4fkUz3izMBDOjIqvP3lyJoqAI/dQoqGuFXda2Hd4CAmv2tFDWDaalVZY97EIhH5xgVM2bOMSAZLX4LQR0zLA/cH4ffvJnf81zf/sY8soRjMCQySmjInQhVHLzoqrWVC/hpGXG68bmc59xBlCaRMegOCNMUijucm9ah9tkvKtam0xqz1JhHm0l1zZDE9WtrBcklIQNCSi2ESsfogfoBhhVydEmhUt9JMaOt8gOl/7hF/zsK9/l8JcvWCiqKEQvI2uyLuimV6zUY01rOmE5qdk449UxE8wMxyRIr1mW2vRlvWkGqRgBVT8WnUJMBtdkqtZSmlDWMIOmiYQIEgMD2QyzQFwpwxPP8sP/8mXyc5fZycIiRgtT2QUkCqB0xVu3VK/41fj2jNPBTDAzKlJK5NR2V18bGk6pmoyJddk57QveK7M2UbxA2piitioQmLdxaOYl6rqOXiKLDPrcJR77b1/l4B+f4twgdEAcEppGBk2MOkJOxBLAqpDLBi/OOB3MBHMGUDUTb3e4ybQJsGR0MA4jpGzhDrBuZBEPoynu+SpOIUXNEc+z0Q5MCylpTXPBwyCM1qljbv0+UtG6q5UQMkETnWYWis2XTULJDJItHowKJFhqR/f8Ib/62g94+R+e4vywYG/VE1OH5EinHVKGOGgmU6Z9ta753NiANv1eZrx5mAnmTMG/28YQiK5HuFePir/edHADq0+fqtm6iAvJrGkB7caGiqBio5U1QHZbTtm2BEY0UbWZS8gISFGyZqJEwmhzGYUXD/jV1/+Op772d/DyIZoAIoEOCR0xGMEETPvJOkW7m3KdcdqYCWYGULScab2yg9pUq8U7V7ypsoaiBK3TzTp5iRFSLtqON4myqUjVIBu8h6gQgA0DEIJEdJU4x4I7DwPys+d59us/YPHcZfZcW8nBQlDkZDNV5uwVCEKe6eSGYMvbMuPsojJMJRtF6bqeEKPvmAS1kIf9rpPLVriwq/dK0XQbB4SFdzsXB7gsMAZhFDHtZBR2BkF//Aw//M9fZvWL5+mGiQzjmIkykVXpHTJb0DXUb8abjplgzhDWtBTfV3poci5DBpwumlAO1kzK1dDaEsqatlPLsH3FLuNZgJpdpw4ZKB69AmTbf26541O7CqMq0nc2yVpSlmOge/mIJ/7q21x54mm6Qem7jiTucONl1LqU69O1KjZ1nHHamAnmjEFdCdlsMIhYwO8YzTtl6hmeCKMmxDc3ZXRzu4F471HpQQpmyqnnBICUGYaBEKONC4qBlDIxwd5KOH858bOvfpenfvAT5CARNZKyolgTKBfz0sbFFS1pxvXHTDBnCPY1989809TBNZic3Jm+kdLypV//4Led0b7Hu5SnFOsoBFPCIthgQu/FcqiqxdEVIAQbiKnCcoCLY+S5bz/GT7/0t8grhyyJgLBKCfVR0N2xUieu2STUGdcHM8GcQbTG1yL4Aozjaq3HyIS/2DBCjbuiHoNFi/NaaZ1UD1xXJfy3pZGqTRTG0uyBtDMqEPuelY1hpMuBc6Nw/ki48qOneOyL36R/aUWfo/V4xUAMQsC6t2EkS0ItVB2m21ihxwcrzLgemO/6GULbVGi9aoPaVCBpHGtvEcVIWgmmnmnLhslDjmkJfoKTjIVxmOwuNuyg8VORTIiRw2HgKCdivyAkYedQic9e5nv/+UscPvk851kQCDYTJRBUCSjBYyqoE0zbCW2+OPOrfiMw3/UzDG1c+QHyaNPHBgk+/sg9UZq5kqxnxtI71Tga9mr2tE5sLVEV7UekNMMCGgWJkUW3YFyt2IsLuksD3/kvX2T15LPcERakwxVBoZcOslbjcBlZNOPmwkwwZxSbhs9inwk+RcmkcTSaQPHmLdu+1tp9t6FtPk0etOsTpAEcqSJ9j4yJc0noXtjn8b/6Fs//8Am6o0xOyew0KdNJQDLEYN3nOedNFWrGTYCZYM4AigayqU1UoXdmKCOcNWXztHUrRhnNrOqGYPVmh4BIqFqOlG5tJ6HWFKxqgcX7xcImdsMCREkya450Ee07Do9W7OaO3UPl+e8/zs+//nf0BwqjVTQgRALkbL9m9LH6ncRwjrl7+vpjJpgzhmMk40Rj9hizxYg3jaq2IW6rwdatQeMEUrSXzeEDbm8JYisiQugiq2HFmFLVhkKIEALjmNEMe3HJuf3M/k+e4vGvfgeev0J3VOaPtqlhpRKLX4fbc/IGecyEcuMxE8wZR/vVD2BesB6cqS4NjKBs57YkhVzanqOyEpy4QgwW+jIncvDo/iikzOJQkV++xI//21cZnnyW87ljkQQZraurhNm0QmyYgTvxgGtam8Qy22ZuHGaCOVOY1BfjCduunFEMuX6optaJObwFNJ0HtafI1stO0yAsb28yuQbShQjRgkJJ1yFdRx86lkeZxUsH/PTr32H1k6fZ2c/EIdNJtJHgEnxO7bJYOVUT26xAQVO9GdcXM8GcAZQvuoqipY3UCKj4RGNpNCNq2bcplNZcssZR7X422kHK2GeX9EI+Vq6lD7gzXMqQrTs8pUQaMn0K3HEFnvzKt3nqO3/P8hAWY4AhW6+WgGSb98jYaqpX2bRdGwfBKtS2DWdcN8wEM8OgSiq9NJU5bPS09SY51qR5anys9SRt0Rgq+TjZdCESMjAqu9Jzfgi88PdP8JOvfIvw0iFhVGKGveUuaTWAWmvoWMYzbmrMBDMDnADGcXReaXSB0iYqto22abSGLQzTEhMwqnnrimCxXVQ4F5dczB2v/OgX/OOff4P+pSMuyBJ1t+FhTEiMSAgkcA1qxq2C+WmdUdQu5A2DaAge5LsxvWjOaLZmVOlVmtSUTZWi7Zz2PU4q6sbdNCbzGk5wfowMP32G7/+fX+Lg589yPiwZh1x7hVKJhCdKCtjI6Rm3DGaCmVFh/jL2G0MghmAObMWI23BJ8aFpxX2TatR3ChZYKnTW3OpiR6fCRZb0z+3zi69+j/TkC5zLgZSUURSVQJZg9pvac1RznXGLYCaYM4RtXbjtMYq2UmM11INQgm6vH3DtxPPckm+LISUbMKlKPMrEF/Z54qvf4clvfJ/do0xMwbz/CVaeqoW81GA+MAoe9mrGLYKZYM4gimYxbXhTqDSLPDA2eMDvYERSUJSZTb2ibjcHLU9rNgUJxK6HpOzmyMs/+QWP//X3CFdGwmATqYkKnQRijResNqAx21zU4dXcdWfcVJgJ5gxB1aZ/VcFi46rY6GkfE6QBuhjNBb8MdPRodqru0u/M4f60UCLXleZSGSRZNCIffxRzQBLoKnEh9Vz58S/58V99m/DyEZEI0hGT0KdITMFi8wpks9rYCCmdpn+dcWtgJpgzhaKjtNvTqmZvALU2j6k1tK6yFDT7i5ZTdlmvk4VTiGITrZ1PAXn2Ej/60jfZf+LXLA6SaSUhEJKyGJWQy/QGW5YZtxRmgjlTOIFcMMPuuBqsd6fVQBqNZavLvXga/y3+e+YJPM2rJKrsZGHnSuLHX/4mV370FOcPYDHAUqLNx1Snqp96sbYtM24dzARzBtDGcynbrciKaweSrbmkTadRRo8bb6s2UcjHllCaSt7rZHYcG/ncJWF5JfGjv/wmv/72Y/SXBvoUCBLocqBLShJlCBwvb8Yti5lgzhxymW3I3edtmYYIYPpKCN5kUnITGrPaWCijsC2uC5h9p/RGJdQMtjmwSIHzQyT94kWe/Nr3CM8fcI4FKSdGhDwmIoEUYAhKmvWU2wYzwZwpXN1EWn3YxOO3aDbbSGiMvm0XtruoBMQmS/NjSTMEodNAd5i5kBZc+snTfOv/92dceMm2QxaCdIRgE9WrQPRwEVRNaPsy49bBTDBnCD6mGUxnOWbQkDGx7HqOVisUiD7ZmmoGzXVu6gJXXEC0Wk1STtBFY54Me2EBLx/wvb/4GsOvX2b3SJCjRE7eHEuJQbNrPNCVJtuM2wIzwdzG2LS9xCwoQvIZAqx548GbssLBiA6ZbrFEg0Wq63JmqcpSofPYt0ggBxhj5ihmjjpltFlECF1n2Y2ZECLplQN+/F+/Rv7RLzl3lElp9DmpTWsRETrM94VgQwPAtKKTlhm3DmaCOUNoWkC1T8iCYhrBvPziS96bE+ocSSJCTEqXIaQyMb31LYkfF49O13U9KWdQYakW9vKnf/09fv69v2dnhEWCjmC+NjFe1bN4xu2BmWDOELL37ohrCHicXQH6UbnyzPPklw/ojjIdgRg701ay+chYa6j8QshCN0KfbEK1nDKLrmcxwLlD5ejHv+KXf/13LK6MsBotXINPbi/ZJqhXj9U74/bETDC3MVoNQURIwZpIouZ2qz4hmSAsktBdWfHLH/6Yc0nYDZ35xgjkRcfYBXIUUpkGwN32gzvnJRGyQjcGLqwi6WfP84P/9hXCCwfsjgEZzOUfgTHY6Oiq/fg4pxm3H+Yne4ZgswcYwUjtjrGumSABWSlP/eBHXPnFM+yMQkiWYuwCYxc5kkQS87IVt5+kPnDYwVG0KU8W+yPLZ/f58X/7OsMTz7E8yHA0suh7NwpPTjZzE+n2x0wwZwitDaauuLyrKmGVCC8f8tNvfI/065e4I3fspUBeGdNY6ErFJo41jSUjIIFeAxeGyFuuwK++/nfs/+RXnD9U9gahl8hRTmQxE22XrUk14/ZHvHjx4r/f3Dnj9sQYpsnOCs0Uewqi9CKkYeDg6JCjceCuu+9id7EkR0FzsrAsPk5JQgQVYlb6DOdzz4VXRn7yF3/NT//6+4QrK/pkTaiOQCRauAXjJrJrMDNub8gDDzyw4Q0x43ZD6apWArEJyq8u6ClAnxOoolG4pEccXVxy7j338+inPsZb7r+bvLfgcq8MHpAlJGURojnGHQzoi/s89ld/wws/eILw/BX2xkDUaM2yMg2Ko4xXmh1ebn/MBHMGMA0DCNb7o5MWkfy3yyO9WndzCvCKHnG41xPuOs+9j9zP/Y88xO69d8HOAqIgSQlj5ui5l/jlj3/G04/9jNWzL9MfjOzkSK8RTTaOKQuklInRAzzMBHNmMBPMGUAhmOAEI26PKdpLFgiaCauRc7FDsnJEJu127IfEwVJZnN9FFx3LO88Tl0vS0Yrx0j5yZYXur9DDFcskxBFisMBRKWcIEYmBlPIUzmEmmDODmWDOACaCsXAKWC816hqMDVo0T91uyEjOxEXPgY6kRWCVV6bZoOiiIwUbVhCHTPDJXFElIjbGyINRqbrHbhBSygS33wR1J7+ZX257zARzBtAOFygyXfa4SwxdNqoIqqDKKo1oJ2gMRBRNiaQ2qlqipe08Ql7y0dNZbPxSyDZwUVGS2v5WWTHPm2NDoWbchpi7qc8QilE3O6mA2WOiQkgwrAbGIBwJpD4SlgsAhqSkENG+J8SeQIdoYMygycJh9qEnakSzjaYecyI3cWfmHqOziZlgzhBKJJhCLoJtiEKIkbhccqAjq4WQlh0HaWRUJcSOJIGEkDLomNERkMAYA2MXSGokEm0egCkSXrAJ6efhAGcTcxPpDKFtKr1Z2NRM1ppjs9Zy5jFrMGcYb5QA3uj5M25/zARzhtCO/Snk0P5e69Ket4nNdDPONmaCmfGayeC1pp9xdjETzIwZM04NM8HMmDHj1DATzIwZM04NM8HMmDHj1DATzIwZM04NM8HMmDHj1DATzIwZM04NM8HMmDHj1DATzIwZM04NM8HMmDHj1DATzIwZM04NM8HMmDHj1DATzIwZM04NM8HMmDHj1DATzIwZM04NM8HMmDHj1DATzIwZM04NM8HMmDHj1DATzIwZM04NM8HMmDHj1DATzIwZM04NM8HMmDHj1DATzIwZM04NM8HMmDHj1DATzIwZM04N/39VUIhkWoABbQAAAABJRU5ErkJggg==;" vertex="1" parent="1">
          <mxGeometry x="519" y="40" width="120" height="125.57" as="geometry" />
        </mxCell>
        <mxCell id="ACYndl2Ck1AMMyre2MPW-17" value="SUPABASE&lt;div&gt;PostgresSQL + Auth&lt;/div&gt;" style="text;html=1;align=center;verticalAlign=middle;whiteSpace=wrap;rounded=0;" vertex="1" parent="1">
          <mxGeometry x="525" y="175.57" width="110" height="30" as="geometry" />
        </mxCell>
        <mxCell id="ACYndl2Ck1AMMyre2MPW-18" value="" style="shape=image;html=1;verticalAlign=top;verticalLabelPosition=bottom;labelBackgroundColor=#ffffff;imageAspect=0;aspect=fixed;image=https://cdn1.iconfinder.com/data/icons/ionicons-fill-vol-2/512/logo-vercel-128.png" vertex="1" parent="1">
          <mxGeometry x="544.5" y="240" width="60" height="60" as="geometry" />
        </mxCell>
        <mxCell id="ACYndl2Ck1AMMyre2MPW-19" value="Vercel&lt;div&gt;Next.js Aoo&lt;/div&gt;" style="text;html=1;align=center;verticalAlign=middle;whiteSpace=wrap;rounded=0;" vertex="1" parent="1">
          <mxGeometry x="544.5" y="300" width="60" height="30" as="geometry" />
        </mxCell>
        <mxCell id="ACYndl2Ck1AMMyre2MPW-20" value="" style="shape=image;verticalLabelPosition=bottom;labelBackgroundColor=default;verticalAlign=top;aspect=fixed;imageAspect=0;image=data:image/png,iVBORw0KGgoAAAANSUhEUgAAADgAAAAxCAYAAACPiWrWAAAAAXNSR0IArs4c6QAAAARnQU1BAACxjwv8YQUAAAAJcEhZcwAADsMAAA7DAcdvqGQAAAKISURBVGhD7ZlNbptAGIbf9Ab9WcJ3hiirEnyGtBsq4zMki1iKfQZTyV60Z4gte1P7DCB2Uc4wsKx6hXbhjoUpEzMfM6RYPCuLsQUP8/2BL96/dX7jjHlTPnBu9IJdpxfsOr1g17mw3Qf9gQff/wjXdUHkwB94ECIHAGQigxA5VqsNkjgt/9QIVgSJHAzDAJPpuLykRIgcq+Uaq+XmcANMYFxwMr3XEisjRaPZorzEwpggkYNv3+fwB155iYUQOT7fBI1304ggkYMfuw2InPJSI0xIGhF8ek6Ny0maSjZuE9vd2pocCtHBpZHgZHpvLOdeQuY3h0YhqrtzLrmHz0QOrq89hKPg6DsquKHKFiRyji64LpnIgL8XLAlHAR4m45M3bPm4wd2tXgtiCRI5eHpuPnkkcYooWiCJ90XqVJsRIsfVpXq9ClYODsN6YXUKf+Bhu1sf8uvudozlo7qgyFFPB9YOQjP/XHKx3a3Lh4+QOQbgxZ3UDVOWoG7+1a2CRUnV4JDEKT7dfCkfVsIS/PlrXyhsEM3miGYLhKOg8qbo5iFLUBU+ppBFp6qQtSJYFTqmESJXjoAf3tVPD5ag6sSmuLrcPxRXpUIrRcZmiMon++1uXXmeVgRt7t4wDOC6rnKEO9Ury7AEZYN+DVoR7BJsQX/gWQ3VKpI4bfdpQjVt2EC3/0lYwzYKb7/a4mv071RTB/YOSmz3RDDmzyLsHZRwnrJ1ECJny8GEIPdVQh2SOGXlXZHGgrAk2SQsixgRRKHKRbN5Y9FoNjciBxNFpgoiBw+TsXav1J1S6mBFsIj8+8z3vcNbACLn0LSzLEOW5cbFJNYFXxtjOfi/0gt2nV6w6/SCXefsBf8AXZ87tKaVqA0AAAAASUVORK5CYII=;" vertex="1" parent="1">
          <mxGeometry x="650" y="240" width="56" height="49" as="geometry" />
        </mxCell>
        <mxCell id="ACYndl2Ck1AMMyre2MPW-21" value="raylway&lt;div&gt;Node.js API&lt;/div&gt;" style="text;html=1;align=center;verticalAlign=middle;whiteSpace=wrap;rounded=0;" vertex="1" parent="1">
          <mxGeometry x="635" y="289" width="84" height="30" as="geometry" />
        </mxCell>
        <mxCell id="ACYndl2Ck1AMMyre2MPW-22" value="" style="shape=image;verticalLabelPosition=bottom;labelBackgroundColor=default;verticalAlign=top;aspect=fixed;imageAspect=0;image=data:image/png,iVBORw0KGgoAAAANSUhEUgAAAHcAAAA0CAYAAACw9adIAAAAAXNSR0IArs4c6QAAAARnQU1BAACxjwv8YQUAAAAJcEhZcwAADsMAAA7DAcdvqGQAAArgSURBVHhe7Zp7jB3VecB/58xr5z725fXugl8Y22BTuwXbQE0wIkCIEiAJCZCgRFGStqogoklVVfmnqlJVbaUmSqJaohVqEkHIi0CkNg8TBYNj3l4/6+die/3a9e6aXe/u3b3PmTmnf8zd2XvvLu0lEHS5mt8/u3vuOccz85v55vu+a7F0xVWamKZE1g7ENA+x3CYmltvExHKbmFhuExPLbWJiuU1MLLeJieU2MbHcJiaW28TEcpuYWG4TI37vb4WkgTJdEAJRyiO0X/WxNmyEDkAFVeOzaGmirQTCWPj+0lojCxnQCx+etly0aSMCD+HlF54nBNqwEIE373NttiCCEmhVNc7ssdkuQimEX6g5h9k9SxVjjUmdcgUQTlMtbRTW30Xhxs+jOpaBkIhChpY9P8HtexJRnKG44WPkN91P+tl/xjy/r2IbQZDqprDxAQqbHkAnF5X3no/IXKDz3+9BlHJzg9LA611HbuuX8VbfDNKEIMAcOoD78mPYZ3aHMsqoVBczH/17RC5D4nfbMKZHCdqWMHPn1wguW0fbE1/EmBycm9/aS+7GL1DYeB/YSVAKeekM7uuP4xzdjvBL5G79K7wV19P+3QeidY1K/XKlxFu2kem7/xHVuaJ2AgAiN4E5dBBv1QeQuSnST38FqyxXWy0U195J9ravolsvq11ahQg83Oe/RaLvBxAEIAQq1UVu68MUr/0U2rBqlwAa+9AvSe56FGPiHGiFSnUx/bF/wlt1C87Bn2OMDZDf8mfoRAcyM0zb45/HmBxEOWmK136C3M0PoxPttRsDYFw8gShM4S/fjDF6jI7HPlk7peFYOCbWIiSllVuY+syjkVihfEQhg8hnohClEx14a24FWXPxhaC47sPM3PX1SKwISojcJCI/hVBe1XTjwmGc48+FYgHtdpLd+jCFTZ8OxWoNpTwiNw6lbDlsCkob7iF7x9+i0r1V+wEU//hecrf/DTrRASpAlrIIrVB2ivz1nyW39cuRWOGXwuMqZBAqfN0E3Wvwl2+u2bWxMVrbF329drCWoH0JMx//F3RrL2iFMTmIdfw32P0vYJ3twxw7hXYS6GRXtEaUcjhHn8XIDIfr7/0G2m0P148exz7+W5z+HVjn9iInBlEtqfDCAzIzgtO/A1mYQkuT4vp7yG99CISEoIR9chdO/w6c/hcwR48hCtOo9GIwHYKulaAC7DOvoW2X0tW3hzekEIBA5CZxDv039skXMYcO4S/fSP6mPw/PDY154SjOkV9hn9yFObgfmRlBJ9rRTqq8B8jsOO7en0bn2qjUJbew+UG8q28DaSKnR0nsepTE609gn92NNXQAe+AVzIlz+D1XoVOLoVLu9Ai5Wx7Cu/JmQGOMHCO5899o2fcU1uB+rKGDWKdfQ+Ym8BevQSc6UK09GKP9WG++gXZS4ROf6gKtsQ//mtRz/4rd/zzm8GGsc3uwBg+g3DaCrlVgWPi9a3H2P40QzMkFKOVJvPIYyZ3bsIYOoB2XwrWfxFt1MwiJOXiA5HPfoOXAM+Fxnd+PdXYPsjiDf/l6tJ0AQGbH3hdy6wrLpSu3oA0HVIB1ZneYXFQmOmis06/h9v1oXvapzRaKG+4FQJQKOKdewjr9alW2KYISzhsv4Bx7Ngy5QlLccA/asNCz0gBjbAD3wDPIqeEowaP8pLt9P8QaOhiOWy7eFTdGn8/iHN1Oy/6no1CrUr14yzaDNEAFtPT9KMoRZpHFaexDv8A8v/ctM/9GpS65uqUtLHmUj3VuT1h61KIV5oUjiPx09bCVQLutAIj8BMbI0QXLCOHlMMbPQCncO+hZC8IgSPdE4dAaOoB58UTNyhBz/DTGpbNRyeNduaV2CvbZPkRhJvpbOwl0azcAMjeOOXp83s0JIEszmIMHw9LufURdchHlaeVE5i3RPlBd7yLnSh0R+Ai/WPVxhNagAwTlC2iY4U9pz83xCuia5CtCBQitIrnaCkNoJSIoIiqeeIRECyP8PfARQc2xV+IV5tXKjU5dcqPa0TDxl2yInqRqBCrVg3LDpCiilIfyHa+SHQSL1yy83jDQiU60kwYoh16FnB6Jpvi961AdyysWzaHcNgK3A2R4StbQ/top8+QIr4jMZwBQ6W6CdDcL1t3CIOhdh5blG+59Ql1yzQtHEMpHSxPvyg/g9a4P31MVqLYe8tc/iJh9ystIL4c18BIA2k7hLd9M0HnFXDQAkAZ+zzWU1n2oPKBxDv0CfA+Zm0CUBfjLrqO4+pYosZlF2wkKG+/HW3VTKEcF2P3PV81ZCDnzJuaFQ6F0aVLceB9BalHVHC1NSks34q+4Yd45Nzp1ZcsiO05pza1oJ4V22/G71yD9IrqlFd3ag3fZH5H/0y/hrZ2VU5EtTw1jjp2muP6usFTpWIZKdYfB0UkTtF+Ot3QT+Rs+h7fyJgCMyWESu7ZhZMfCZoTt4i/bGHa4lm+CwEPbCXRLmmDxakpr76Sw+cFyxwusgZdx9/4UbVWUQoBz7DcYYwPREyy8HNqw8VZsAjtB0H11WOtqwG0naF+Gt+J68lv/kqB7dUUp9P7IluvrUAmD3JYvkf/gI+hyg0IoHzk1gtY+qn1p2AqsQM6MzXWopEH2tr8mf8MXwAjvfqF8xMT5MOR1LEOUL5woZHBffgx3z08QpSwAQcdSZj7yD+Uns0wpi3HpHCrdHUkFMEaOkf6vr2FePFHVoRLKJ/Wzr+Cc2FmVNKnWy8hufYjShrvRlhsOBh5ychBh2ATp3uiYZ2muDpVWuH1P4u7chshPhUPSJOhYiuq8IhIrSnmMiydA1WScKsDd/STW2d3RkJYmatFKVOfySCxaYw+8RMuR7ZFYAGPyAskd38Q69eKcGDsZvgcrxFpn+0i+8B2MsdPR2CzGmb5yNl19bDIzjLv7CZzDv0LMJouGhVq0kqB9SSRWZseQ42er1jY6dYVlEAjlYY4cxRw5iihmCTpXgOkAoIMA++TvSD7/LZwj2xHKI0j34ryxAyMzHM5x0hT/5OOodE/N3hUI0NLCOr8fI3Oh4gONzF3CGvofjLEBVNvlYTdLCNAaOTmI++r3cXc/jjl0OKpjtZ2gtOZWZGaE5K5tmBdPhBl1DTJ3CXP4GNbgPlSinaBtSZQ7iNwkLfuewn3lP3GObEelutB2EnffU7XbNBz1heVKhEQ5qTCzNa3wAgcBMj+FzI0DoJx02JyfvhjVxNqwKWy4m+yH/w60IvHq97BO7UIoReGaO8nf9BfhBdUaY/Q4rc98FePSuZp/PNxHJxehZtuBWiG8AjI7Pq/+1tIMO2Y6QGbH//8mhJCo5CKU2xZm3VqHPfDsBLI4DVqjkl1oOxF+OdHgvH257wBt2pSu+iD4Ps7JndHF1tLEW7WVzH3fDqOBVqSfemTe+zHm7VFnWH53ECrAfPMU5vjpqppT6LCelb6Ht/LGsLmQWhy2OcshNubtU19C9R4g/CJyehS8sIPld6+OGhIxvx+Nc/U0aOXPPanSBL1AtyimbhpGrpYG2m2Lak2ZGQXi9+07oUHkCoJFKyle85GoxWcf3Q7+W3xJEFMXDSFX2y6F6+7DX3otlLtU9sBLcTL1DmkIucIr4PQ/h5wcQqsA98X/eMvvbWPq5z2tc/9PhKS49g6CzpW07P1x+H+WY94RjSM35l2nIcJyzB+GWG4TE8ttYmK5TUwst4mJ5TYxsdwmJpbbxMRym5hYbhMTy21iYrlNzP8CoWud3cmJxt4AAAAASUVORK5CYII=;" vertex="1" parent="1">
          <mxGeometry x="680" y="61.77999999999997" width="119" height="52" as="geometry" />
        </mxCell>
        <mxCell id="ACYndl2Ck1AMMyre2MPW-23" value="AGORA&lt;br&gt;WebRTC" style="text;html=1;align=center;verticalAlign=middle;whiteSpace=wrap;rounded=0;" vertex="1" parent="1">
          <mxGeometry x="680" y="133.77999999999997" width="120" height="30" as="geometry" />
        </mxCell>
        <mxCell id="ACYndl2Ck1AMMyre2MPW-24" value="" style="sketch=0;verticalLabelPosition=bottom;sketch=0;aspect=fixed;html=1;verticalAlign=top;strokeColor=none;fillColor=#000000;align=center;outlineConnect=0;pointerEvents=1;shape=mxgraph.citrix2.authentication_google;" vertex="1" parent="1">
          <mxGeometry x="260" y="230" width="50" height="50" as="geometry" />
        </mxCell>
        <mxCell id="ACYndl2Ck1AMMyre2MPW-26" value="" style="sketch=0;verticalLabelPosition=bottom;sketch=0;aspect=fixed;html=1;verticalAlign=top;strokeColor=none;fillColor=#000000;align=center;outlineConnect=0;pointerEvents=1;shape=mxgraph.citrix2.authentication_google;" vertex="1" parent="1">
          <mxGeometry x="750" y="240" width="50" height="50" as="geometry" />
        </mxCell>
        <mxCell id="ACYndl2Ck1AMMyre2MPW-27" value="Google&lt;br&gt;Oauth 2.0" style="text;html=1;align=center;verticalAlign=middle;whiteSpace=wrap;rounded=0;" vertex="1" parent="1">
          <mxGeometry x="720" y="297.78999999999996" width="110" height="30" as="geometry" />
        </mxCell>
        <mxCell id="ACYndl2Ck1AMMyre2MPW-29" value="" style="verticalLabelPosition=bottom;verticalAlign=top;html=1;shadow=0;dashed=0;strokeWidth=1;shape=mxgraph.android.phone2;strokeColor=#c0c0c0;" vertex="1" parent="1">
          <mxGeometry x="-690" y="175.57" width="140" height="264.43" as="geometry" />
        </mxCell>
        <mxCell id="ACYndl2Ck1AMMyre2MPW-39" value="CLIENTE /USUARIO" style="text;html=1;align=center;verticalAlign=middle;whiteSpace=wrap;rounded=0;fontSize=18;" vertex="1" parent="1">
          <mxGeometry x="-590" y="103.78" width="180" height="30" as="geometry" />
        </mxCell>
        <mxCell id="ACYndl2Ck1AMMyre2MPW-40" value="DESARROLLO EN NUBE" style="text;html=1;align=center;verticalAlign=middle;whiteSpace=wrap;rounded=0;fontSize=18;" vertex="1" parent="1">
          <mxGeometry x="-45" y="55" width="180" height="30" as="geometry" />
        </mxCell>
      </root>
    </mxGraphModel>
  </diagram>
</mxfile>
